<svg width="1103" height="1099" viewBox="0 0 1103 1099" fill="none" xmlns="http://www.w3.org/2000/svg">
<path d="M1101.68 751.6C1101.83 754.872 1101.93 758.156 1101.98 761.452L1101.48 761.46C1101.5 763.105 1101.51 764.754 1101.51 766.405C1101.51 768.056 1101.5 769.704 1101.48 771.35L1101.98 771.357C1101.93 774.653 1101.83 777.938 1101.68 781.21L1101.18 781.187C1101.03 784.48 1100.83 787.761 1100.58 791.029L1101.08 791.067C1100.83 794.349 1100.53 797.618 1100.18 800.873L1099.68 800.82C1099.33 804.098 1098.93 807.362 1098.48 810.612L1098.98 810.68C1098.53 813.943 1098.03 817.192 1097.48 820.424L1096.98 820.341C1096.43 823.585 1095.83 826.813 1095.19 830.025L1095.68 830.124C1095.03 833.355 1094.33 836.569 1093.58 839.766L1093.09 839.652C1092.34 842.852 1091.55 846.033 1090.7 849.197L1091.19 849.326C1090.34 852.512 1089.44 855.679 1088.49 858.827L1088.02 858.684C1087.07 861.832 1086.08 864.96 1085.04 868.069L1085.52 868.228C1084.47 871.351 1083.38 874.454 1082.25 877.537L1081.78 877.364C1080.64 880.449 1079.46 883.513 1078.23 886.555L1078.7 886.742C1077.47 889.793 1076.19 892.822 1074.87 895.828L1074.41 895.627C1073.09 898.637 1071.72 901.625 1070.31 904.588L1070.76 904.803C1069.35 907.774 1067.89 910.721 1066.39 913.644L1065.94 913.415C1064.44 916.337 1062.9 919.235 1061.31 922.107L1061.75 922.349C1060.16 925.229 1058.52 928.083 1056.85 930.911L1056.42 930.657C1054.74 933.482 1053.03 936.281 1051.27 939.054L1051.69 939.321C1049.93 942.1 1048.13 944.852 1046.29 947.576L1045.87 947.296C1044.04 950.016 1042.16 952.708 1040.24 955.372L1040.64 955.665C1038.72 958.333 1036.76 960.973 1034.76 963.584L1034.36 963.28C1032.36 965.886 1030.33 968.463 1028.26 971.01L1028.64 971.325C1026.57 973.875 1024.46 976.396 1022.3 978.885L1021.93 978.558C1019.78 981.042 1017.6 983.496 1015.38 985.918L1015.75 986.255C1013.53 988.679 1011.27 991.072 1008.98 993.432L1008.62 993.084C1006.33 995.439 1004.01 997.762 1001.66 1000.05L1002 1000.41C999.648 1002.7 997.258 1004.96 994.834 1007.18L994.496 1006.81C992.077 1009.03 989.625 1011.22 987.14 1013.37L987.467 1013.75C984.983 1015.9 982.466 1018.01 979.918 1020.1L979.602 1019.71C977.061 1021.78 974.488 1023.82 971.884 1025.83L972.189 1026.23C969.585 1028.23 966.95 1030.2 964.285 1032.14L963.992 1031.73C961.338 1033.66 958.654 1035.55 955.941 1037.4L956.223 1037.81C953.509 1039.67 950.766 1041.48 947.995 1043.26L947.725 1042.84C944.966 1044.61 942.178 1046.35 939.364 1048.05L939.622 1048.47C936.809 1050.17 933.969 1051.83 931.102 1053.45L930.856 1053.01C927.999 1054.62 925.116 1056.2 922.207 1057.74L922.441 1058.18C919.538 1059.71 916.611 1061.21 913.659 1062.66L913.438 1062.21C910.494 1063.66 907.526 1065.07 904.534 1066.44L904.743 1066.9C901.759 1068.26 898.751 1069.59 895.721 1070.87L895.526 1070.41C892.508 1071.7 889.467 1072.94 886.404 1074.13L886.586 1074.6C883.528 1075.8 880.448 1076.95 877.346 1078.07L877.177 1077.6C874.095 1078.71 870.992 1079.77 867.868 1080.8L868.024 1081.27C864.902 1082.3 861.759 1083.28 858.597 1084.22L858.455 1083.74C855.317 1084.68 852.16 1085.57 848.985 1086.42L849.114 1086.9C845.943 1087.75 842.753 1088.55 839.545 1089.31L839.429 1088.83C836.242 1089.59 833.037 1090.3 829.815 1090.97L829.917 1091.46C826.707 1092.13 823.48 1092.76 820.237 1093.34L820.148 1092.85C816.921 1093.43 813.677 1093.96 810.418 1094.46L810.493 1094.95C807.254 1095.44 804.001 1095.89 800.733 1096.29L800.672 1095.79C797.416 1096.19 794.146 1096.55 790.862 1096.86L790.91 1097.36C787.651 1097.67 784.379 1097.94 781.094 1098.16L781.06 1097.66C777.791 1097.89 774.509 1098.06 771.215 1098.2L771.235 1098.7C767.961 1098.83 764.676 1098.92 761.379 1098.96L761.373 1098.46C759.727 1098.49 758.078 1098.5 756.426 1098.5C754.775 1098.5 753.126 1098.49 751.48 1098.46L751.473 1098.96C748.177 1098.92 744.891 1098.83 741.618 1098.7L741.638 1098.2C738.344 1098.06 735.062 1097.89 731.793 1097.66L731.759 1098.16C728.474 1097.94 725.202 1097.67 721.943 1097.36L721.991 1096.86C718.707 1096.55 715.437 1096.19 712.181 1095.79L712.12 1096.29C708.852 1095.89 705.598 1095.44 702.36 1094.95L702.435 1094.46C699.176 1093.96 695.932 1093.43 692.704 1092.85L692.616 1093.34C689.373 1092.76 686.146 1092.13 682.935 1091.46L683.037 1090.97C679.816 1090.3 676.611 1089.59 673.423 1088.83L673.308 1089.31C670.1 1088.55 666.91 1087.75 663.738 1086.9L663.867 1086.42C660.692 1085.57 657.535 1084.68 654.398 1083.74L654.255 1084.22C651.093 1083.28 647.951 1082.3 644.829 1081.27L644.985 1080.8C641.861 1079.77 638.758 1078.71 635.675 1077.6L635.506 1078.07C632.405 1076.95 629.325 1075.8 626.266 1074.6L626.449 1074.13C623.386 1072.94 620.345 1071.7 617.327 1070.41L617.132 1070.87C614.101 1069.59 611.094 1068.26 608.11 1066.9L608.318 1066.44C605.326 1065.07 602.358 1063.66 599.415 1062.21L599.194 1062.66C596.242 1061.21 593.314 1059.71 590.412 1058.18L590.645 1057.74C587.737 1056.2 584.853 1054.62 581.996 1053.01L581.75 1053.45C578.884 1051.83 576.044 1050.17 573.231 1048.47L573.489 1048.05C570.674 1046.35 567.887 1044.61 565.127 1042.84L564.857 1043.26C562.086 1041.48 559.343 1039.67 556.63 1037.81L556.912 1037.4C554.199 1035.55 551.515 1033.66 548.861 1031.73L548.567 1032.14C545.902 1030.2 543.267 1028.23 540.663 1026.23L540.968 1025.83C538.365 1023.82 535.792 1021.78 533.251 1019.71L532.934 1020.1C530.386 1018.01 527.869 1015.9 525.385 1013.75L525.713 1013.37C523.228 1011.22 520.776 1009.03 518.357 1006.81L518.019 1007.18C515.595 1004.96 513.204 1002.7 510.848 1000.41L511.196 1000.05C508.84 997.762 506.518 995.439 504.231 993.084L503.872 993.432C501.581 991.072 499.324 988.679 497.104 986.255L497.473 985.918C495.254 983.496 493.072 981.042 490.926 978.559L490.548 978.885C488.397 976.396 486.284 973.875 484.208 971.325L484.596 971.01C482.523 968.463 480.488 965.886 478.491 963.28L478.094 963.584C476.094 960.973 474.132 958.333 472.21 955.665L472.616 955.373C470.697 952.708 468.817 950.016 466.978 947.296L466.564 947.576C464.722 944.852 462.92 942.1 461.16 939.322L461.582 939.054C459.825 936.281 458.109 933.482 456.435 930.657L456.005 930.912C454.33 928.083 452.696 925.229 451.104 922.349L451.542 922.107C449.955 919.235 448.41 916.337 446.908 913.415L446.464 913.644C444.962 910.721 443.503 907.774 442.089 904.804L442.54 904.589C441.129 901.625 439.762 898.637 438.44 895.627L437.982 895.829C436.661 892.822 435.385 889.793 434.154 886.742L434.618 886.555C433.39 883.513 432.208 880.449 431.072 877.364L430.603 877.537C429.468 874.455 428.379 871.351 427.336 868.228L427.81 868.07C426.773 864.961 425.781 861.832 424.837 858.684L424.358 858.827C423.414 855.679 422.516 852.512 421.667 849.326L422.15 849.197C421.306 846.034 420.51 842.852 419.762 839.653L419.275 839.767C418.527 836.57 417.827 833.355 417.176 830.124L417.666 830.025C417.018 826.814 416.419 823.585 415.868 820.341L415.375 820.425C414.826 817.192 414.326 813.944 413.875 810.68L414.371 810.612C413.921 807.363 413.521 804.098 413.17 800.82L412.673 800.873C412.325 797.618 412.026 794.349 411.776 791.067L412.274 791.029C412.025 787.761 411.825 784.48 411.676 781.187L411.176 781.21C411.027 777.938 410.927 774.653 410.877 771.357L411.377 771.35C411.352 769.704 411.34 768.056 411.34 766.405C411.34 764.754 411.352 763.105 411.377 761.46L410.877 761.452C410.927 758.156 411.027 754.872 411.176 751.6L411.676 751.623C411.825 748.329 412.025 745.049 412.274 741.781L411.776 741.743C412.025 738.461 412.325 735.192 412.673 731.937L413.17 731.99C413.521 728.712 413.921 725.447 414.371 722.198L413.875 722.13C414.326 718.866 414.826 715.618 415.375 712.385L415.868 712.469C416.419 709.225 417.018 705.996 417.666 702.784L417.175 702.686C417.827 699.455 418.527 696.24 419.275 693.043L419.762 693.157C420.51 689.958 421.306 686.776 422.15 683.613L421.667 683.484C422.516 680.298 423.413 677.131 424.358 673.982L424.837 674.126C425.781 670.978 426.772 667.849 427.81 664.74L427.336 664.582C428.378 661.459 429.468 658.355 430.603 655.273L431.072 655.445C432.208 652.361 433.39 649.297 434.618 646.254L434.154 646.067C435.385 643.017 436.661 639.988 437.982 636.981L438.44 637.182C439.762 634.172 441.129 631.185 442.54 628.221L442.089 628.006C443.503 625.036 444.962 622.089 446.464 619.166L446.908 619.395C448.41 616.473 449.955 613.575 451.542 610.702L451.104 610.46C452.696 607.581 454.329 604.727 456.005 601.898L456.435 602.153C458.109 599.328 459.825 596.528 461.582 593.756L461.16 593.488C462.92 590.71 464.722 587.958 466.564 585.234L466.978 585.514C468.817 582.794 470.697 580.101 472.616 577.437L472.21 577.145C474.132 574.477 476.094 571.837 478.094 569.226L478.491 569.53C480.488 566.924 482.523 564.347 484.596 561.8L484.208 561.484C486.284 558.934 488.397 556.414 490.548 553.924L490.926 554.251C493.071 551.767 495.254 549.314 497.473 546.892L497.104 546.554C499.324 544.13 501.581 541.738 503.872 539.378L504.231 539.726C506.518 537.371 508.84 535.048 511.196 532.757L510.848 532.399C513.204 530.109 515.595 527.851 518.019 525.627L518.357 525.996C520.775 523.777 523.228 521.591 525.713 519.44L525.385 519.062C527.869 516.912 530.386 514.795 532.934 512.714L533.251 513.101C535.792 511.026 538.365 508.985 540.968 506.98L540.663 506.584C543.267 504.578 545.902 502.608 548.567 500.674L548.861 501.079C551.515 499.153 554.199 497.263 556.911 495.41L556.629 494.997C559.343 493.143 562.086 491.326 564.857 489.547L565.127 489.968C567.887 488.196 570.674 486.461 573.489 484.764L573.231 484.336C576.044 482.64 578.884 480.982 581.75 479.363L581.996 479.799C584.853 478.185 587.737 476.609 590.645 475.073L590.412 474.631C593.314 473.098 596.242 471.605 599.194 470.15L599.415 470.599C602.358 469.149 605.326 467.739 608.318 466.369L608.11 465.914C611.094 464.547 614.101 463.221 617.131 461.935L617.327 462.395C620.345 461.114 623.386 459.874 626.448 458.675L626.266 458.209C629.324 457.012 632.405 455.855 635.506 454.74L635.675 455.211C638.758 454.103 641.861 453.036 644.984 452.01L644.828 451.535C647.951 450.511 651.093 449.528 654.255 448.587L654.398 449.067C657.535 448.134 660.692 447.242 663.867 446.394L663.738 445.911C666.91 445.063 670.1 444.257 673.307 443.495L673.423 443.982C676.611 443.224 679.815 442.51 683.037 441.838L682.935 441.349C686.146 440.679 689.373 440.053 692.616 439.471L692.704 439.963C695.932 439.383 699.176 438.846 702.434 438.353L702.36 437.859C705.598 437.369 708.852 436.923 712.119 436.52L712.18 437.017C715.436 436.616 718.707 436.258 721.99 435.945L721.943 435.447C725.202 435.137 728.474 434.87 731.758 434.647L731.792 435.146C735.062 434.924 738.344 434.746 741.638 434.612L741.617 434.112C744.891 433.98 748.176 433.891 751.473 433.846L751.48 434.346C753.126 434.324 754.775 434.312 756.426 434.312C758.078 434.312 759.726 434.324 761.372 434.346L761.379 433.846C764.676 433.891 767.961 433.98 771.235 434.112L771.214 434.612C774.508 434.746 777.79 434.924 781.06 435.146L781.094 434.647C784.378 434.87 787.651 435.137 790.909 435.447L790.862 435.945C794.146 436.258 797.416 436.616 800.672 437.017L800.733 436.52C804.001 436.923 807.254 437.369 810.492 437.859L810.418 438.353C813.677 438.846 816.92 439.383 820.148 439.963L820.237 439.471C823.48 440.053 826.707 440.679 829.917 441.348L829.815 441.838C833.037 442.509 836.242 443.224 839.429 443.982L839.545 443.495C842.752 444.257 845.942 445.063 849.114 445.91L848.985 446.394C852.16 447.242 855.317 448.133 858.455 449.067L858.597 448.587C861.759 449.528 864.901 450.511 868.024 451.535L867.868 452.01C870.991 453.035 874.095 454.102 877.177 455.211L877.346 454.74C880.448 455.855 883.528 457.012 886.586 458.209L886.404 458.675C889.467 459.874 892.507 461.114 895.526 462.395L895.721 461.935C898.751 463.221 901.759 464.547 904.742 465.914L904.534 466.369C907.526 467.739 910.494 469.149 913.438 470.599L913.659 470.15C916.611 471.605 919.538 473.098 922.44 474.631L922.207 475.073C925.116 476.609 927.999 478.185 930.856 479.799L931.102 479.363C933.969 480.982 936.809 482.64 939.622 484.336L939.363 484.764C942.178 486.461 944.966 488.196 947.725 489.968L947.995 489.547C950.766 491.326 953.509 493.143 956.223 494.997L955.941 495.41C958.654 497.263 961.338 499.153 963.992 501.079L964.285 500.674C966.95 502.608 969.585 504.578 972.189 506.583L971.884 506.98C974.488 508.985 977.061 511.026 979.602 513.101L979.918 512.714C982.466 514.795 984.983 516.912 987.467 519.062L987.14 519.44C989.625 521.591 992.077 523.777 994.496 525.996L994.834 525.627C997.258 527.851 999.648 530.109 1002 532.399L1001.66 532.757C1004.01 535.048 1006.33 537.371 1008.62 539.726L1008.98 539.378C1011.27 541.738 1013.53 544.13 1015.75 546.554L1015.38 546.892C1017.6 549.314 1019.78 551.767 1021.93 554.251L1022.3 553.924C1024.46 556.414 1026.57 558.934 1028.64 561.484L1028.26 561.8C1030.33 564.347 1032.36 566.924 1034.36 569.53L1034.76 569.226C1036.76 571.837 1038.72 574.476 1040.64 577.145L1040.24 577.437C1042.16 580.101 1044.03 582.794 1045.87 585.514L1046.29 585.234C1048.13 587.958 1049.93 590.71 1051.69 593.488L1051.27 593.756C1053.03 596.528 1054.74 599.328 1056.42 602.153L1056.85 601.898C1058.52 604.726 1060.16 607.581 1061.75 610.46L1061.31 610.702C1062.9 613.575 1064.44 616.472 1065.94 619.394L1066.39 619.166C1067.89 622.089 1069.35 625.036 1070.76 628.006L1070.31 628.221C1071.72 631.185 1073.09 634.172 1074.41 637.182L1074.87 636.981C1076.19 639.987 1077.47 643.016 1078.7 646.067L1078.23 646.254C1079.46 649.296 1080.64 652.36 1081.78 655.445L1082.25 655.273C1083.38 658.355 1084.47 661.458 1085.52 664.582L1085.04 664.74C1086.08 667.849 1087.07 670.978 1088.02 674.126L1088.49 673.982C1089.44 677.13 1090.34 680.298 1091.19 683.484L1090.7 683.612C1091.55 686.776 1092.34 689.958 1093.09 693.157L1093.58 693.043C1094.33 696.24 1095.03 699.454 1095.68 702.685L1095.19 702.784C1095.83 705.996 1096.43 709.225 1096.98 712.469L1097.48 712.385C1098.03 715.618 1098.53 718.866 1098.98 722.129L1098.48 722.198C1098.93 725.447 1099.33 728.711 1099.68 731.99L1100.18 731.936C1100.53 735.191 1100.83 738.46 1101.08 741.743L1100.58 741.781C1100.83 745.048 1101.03 748.329 1101.18 751.622L1101.68 751.6Z" stroke="white" stroke-dasharray="10 10"/>
<path d="M978.578 738.541C978.877 741.936 979.078 745.359 979.179 748.808L978.679 748.823C978.729 750.531 978.754 752.245 978.754 753.965C978.754 755.685 978.729 757.399 978.679 759.107L979.179 759.122C979.078 762.571 978.877 765.994 978.578 769.389L978.08 769.345C977.778 772.77 977.377 776.165 976.879 779.528L977.374 779.602C976.869 783.012 976.265 786.39 975.565 789.732L975.075 789.63C974.371 792.993 973.568 796.319 972.672 799.606L973.154 799.737C972.248 803.059 971.245 806.34 970.15 809.577L969.676 809.417C968.577 812.667 967.383 815.872 966.099 819.029L966.562 819.218C965.267 822.403 963.879 825.541 962.403 828.626L961.952 828.41C960.472 831.503 958.903 834.544 957.249 837.53L957.686 837.772C956.02 840.778 954.267 843.728 952.43 846.618L952.008 846.35C950.172 849.24 948.251 852.071 946.251 854.839L946.656 855.132C944.644 857.915 942.552 860.634 940.382 863.286L939.995 862.969C937.828 865.618 935.582 868.2 933.263 870.711L933.631 871.05C931.302 873.571 928.9 876.021 926.427 878.396L926.08 878.035C923.613 880.404 921.075 882.698 918.47 884.914L918.794 885.295C916.182 887.517 913.503 889.661 910.76 891.722L910.459 891.322C907.727 893.376 904.932 895.347 902.076 897.233L902.352 897.651C899.493 899.539 896.574 901.343 893.599 903.057L893.349 902.624C890.39 904.33 887.375 905.947 884.308 907.473L884.531 907.92C881.466 909.445 878.348 910.878 875.182 912.217L874.987 911.757C871.846 913.085 868.657 914.32 865.424 915.458L865.589 915.929C862.364 917.064 859.095 918.103 855.784 919.042L855.648 918.561C852.37 919.491 849.051 920.323 845.696 921.054L845.802 921.543C842.465 922.27 839.09 922.898 835.682 923.422L835.606 922.928C832.246 923.445 828.853 923.862 825.431 924.176L825.476 924.673C822.083 924.984 818.66 925.193 815.211 925.298L815.196 924.798C813.488 924.85 811.774 924.876 810.055 924.876C808.335 924.876 806.621 924.85 804.913 924.798L804.898 925.298C801.45 925.193 798.027 924.984 794.633 924.673L794.678 924.176C791.256 923.862 787.863 923.445 784.503 922.928L784.427 923.422C781.019 922.898 777.645 922.27 774.307 921.543L774.413 921.054C771.058 920.323 767.739 919.491 764.461 918.561L764.325 919.042C761.014 918.103 757.745 917.064 754.52 915.929L754.686 915.458C751.452 914.32 748.263 913.085 745.122 911.757L744.927 912.217C741.761 910.878 738.643 909.445 735.578 907.92L735.801 907.473C732.734 905.947 729.719 904.33 726.76 902.624L726.51 903.057C723.535 901.343 720.616 899.539 717.757 897.651L718.033 897.233C715.177 895.347 712.382 893.376 709.65 891.322L709.349 891.722C706.606 889.661 703.927 887.517 701.315 885.295L701.639 884.914C699.034 882.698 696.496 880.404 694.029 878.035L693.683 878.396C691.209 876.021 688.807 873.571 686.478 871.05L686.846 870.711C684.527 868.2 682.282 865.618 680.114 862.969L679.727 863.286C677.557 860.634 675.465 857.915 673.453 855.132L673.859 854.839C671.858 852.071 669.938 849.24 668.101 846.35L667.679 846.618C665.842 843.728 664.089 840.778 662.423 837.772L662.861 837.53C661.206 834.544 659.637 831.503 658.157 828.41L657.706 828.626C656.23 825.541 654.843 822.403 653.547 819.218L654.01 819.03C652.726 815.872 651.533 812.667 650.433 809.417L649.959 809.577C648.864 806.34 647.861 803.059 646.955 799.737L647.437 799.606C646.541 796.319 645.738 792.993 645.034 789.63L644.544 789.732C643.844 786.39 643.24 783.012 642.735 779.602L643.23 779.528C642.732 776.165 642.331 772.77 642.029 769.345L641.531 769.389C641.232 765.994 641.031 762.571 640.931 759.122L641.43 759.107C641.381 757.399 641.355 755.685 641.355 753.965C641.355 752.245 641.381 750.531 641.43 748.823L640.931 748.808C641.031 745.359 641.232 741.936 641.531 738.541L642.029 738.585C642.331 735.16 642.732 731.765 643.23 728.402L642.735 728.329C643.24 724.918 643.844 721.54 644.544 718.198L645.034 718.3C645.738 714.937 646.541 711.611 647.437 708.324L646.955 708.193C647.861 704.871 648.864 701.59 649.959 698.353L650.433 698.513C651.533 695.264 652.726 692.058 654.01 688.901L653.547 688.712C654.842 685.527 656.23 682.39 657.706 679.304L658.157 679.52C659.637 676.427 661.206 673.386 662.861 670.4L662.423 670.158C664.089 667.152 665.842 664.202 667.679 661.312L668.101 661.58C669.938 658.69 671.858 655.859 673.859 653.091L673.453 652.798C675.465 650.015 677.557 647.296 679.727 644.644L680.114 644.961C682.282 642.312 684.527 639.73 686.846 637.219L686.478 636.88C688.807 634.359 691.209 631.909 693.683 629.534L694.029 629.895C696.496 627.526 699.034 625.232 701.639 623.016L701.315 622.635C703.927 620.413 706.606 618.269 709.349 616.208L709.65 616.608C712.382 614.555 715.177 612.583 718.033 610.697L717.757 610.279C720.616 608.391 723.535 606.587 726.51 604.873L726.76 605.306C729.719 603.601 732.734 601.983 735.801 600.458L735.578 600.01C738.643 598.485 741.761 597.052 744.927 595.713L745.122 596.173C748.263 594.845 751.452 593.61 754.686 592.472L754.52 592.001C757.745 590.866 761.014 589.827 764.325 588.888L764.461 589.369C767.739 588.439 771.058 587.607 774.413 586.876L774.307 586.387C777.645 585.66 781.019 585.032 784.427 584.508L784.503 585.002C787.863 584.485 791.256 584.068 794.678 583.755L794.633 583.257C798.027 582.946 801.449 582.737 804.898 582.632L804.913 583.132C806.621 583.08 808.335 583.054 810.055 583.054C811.774 583.054 813.488 583.08 815.196 583.132L815.211 582.632C818.66 582.737 822.082 582.946 825.476 583.257L825.431 583.755C828.853 584.068 832.246 584.485 835.606 585.002L835.682 584.508C839.09 585.032 842.465 585.66 845.802 586.387L845.696 586.876C849.051 587.607 852.37 588.439 855.648 589.369L855.784 588.888C859.095 589.827 862.364 590.866 865.589 592.001L865.423 592.472C868.657 593.61 871.846 594.845 874.987 596.173L875.182 595.713C878.348 597.052 881.466 598.485 884.531 600.01L884.308 600.458C887.375 601.983 890.39 603.6 893.349 605.306L893.599 604.873C896.574 606.587 899.493 608.391 902.352 610.279L902.076 610.697C904.932 612.583 907.727 614.554 910.459 616.608L910.76 616.208C913.503 618.269 916.182 620.413 918.794 622.635L918.47 623.016C921.075 625.232 923.613 627.526 926.08 629.895L926.427 629.534C928.9 631.909 931.302 634.359 933.631 636.88L933.263 637.219C935.582 639.73 937.828 642.312 939.995 644.961L940.382 644.644C942.552 647.296 944.644 650.015 946.656 652.798L946.251 653.091C948.251 655.859 950.172 658.69 952.008 661.58L952.43 661.312C954.267 664.202 956.02 667.152 957.686 670.158L957.248 670.4C958.903 673.386 960.472 676.427 961.952 679.52L962.403 679.304C963.879 682.39 965.267 685.527 966.562 688.712L966.099 688.901C967.383 692.058 968.577 695.263 969.676 698.513L970.15 698.353C971.245 701.59 972.248 704.871 973.154 708.193L972.672 708.324C973.568 711.611 974.371 714.937 975.075 718.3L975.565 718.198C976.265 721.54 976.869 724.918 977.374 728.328L976.879 728.402C977.377 731.765 977.778 735.16 978.08 738.585L978.578 738.541Z" stroke="white" stroke-dasharray="10 10"/>
<path d="M335.647 757.521C332.448 756.818 329.249 756.064 326.053 755.259L326.175 754.774C324.579 754.372 322.983 753.958 321.388 753.531C319.794 753.103 318.205 752.665 316.622 752.215L316.485 752.695C313.314 751.794 310.168 750.848 307.046 749.857L307.197 749.38C304.055 748.383 300.937 747.341 297.845 746.255L297.68 746.727C294.574 745.636 291.494 744.5 288.44 743.322L288.62 742.855C285.544 741.668 282.495 740.436 279.472 739.162L279.278 739.622C276.243 738.342 273.235 737.018 270.254 735.652L270.462 735.197C267.471 733.826 264.508 732.411 261.573 730.954L261.351 731.402C258.399 729.937 255.475 728.428 252.58 726.879L252.816 726.438C249.92 724.887 247.053 723.294 244.215 721.661L243.966 722.094C241.108 720.449 238.281 718.762 235.485 717.035L235.747 716.61C232.951 714.883 230.185 713.116 227.451 711.309L227.175 711.726C224.428 709.91 221.712 708.055 219.029 706.161L219.317 705.752C216.631 703.856 213.978 701.922 211.357 699.949L211.056 700.348C208.428 698.37 205.832 696.353 203.27 694.299L203.583 693.909C201.018 691.853 198.486 689.759 195.989 687.629L195.664 688.009C193.161 685.874 190.692 683.702 188.257 681.495L188.593 681.125C186.159 678.918 183.76 676.676 181.396 674.4L181.05 674.76C178.68 672.477 176.346 670.16 174.048 667.81L174.405 667.46C172.109 665.112 169.849 662.73 167.626 660.316L167.258 660.654C165.03 658.235 162.838 655.782 160.684 653.298L161.062 652.97C158.91 650.489 156.796 647.977 154.719 645.434L154.332 645.75C152.252 643.203 150.21 640.625 148.205 638.017L148.602 637.712C146.602 635.109 144.639 632.477 142.716 629.815L142.31 630.108C140.384 627.443 138.497 624.749 136.649 622.028L137.062 621.747C135.218 619.032 133.413 616.289 131.648 613.519L131.227 613.787C129.46 611.015 127.733 608.217 126.046 605.392L126.475 605.136C124.792 602.317 123.149 599.473 121.547 596.604L121.111 596.848C119.508 593.979 117.947 591.086 116.426 588.169L116.869 587.938C115.352 585.027 113.876 582.093 112.441 579.136L111.991 579.354C110.557 576.398 109.164 573.419 107.813 570.419L108.269 570.214C106.922 567.222 105.616 564.209 104.353 561.175L103.892 561.367C102.629 558.333 101.408 555.278 100.229 552.203L100.696 552.024C99.5229 548.962 98.392 545.881 97.3042 542.78L96.8324 542.946C95.7442 539.845 94.699 536.725 93.6974 533.588L94.1737 533.436C93.1763 530.312 92.2221 527.171 91.3117 524.013L90.8312 524.151C89.9214 520.995 89.0552 517.823 88.2331 514.635L88.7173 514.51C87.8979 511.333 87.1224 508.14 86.3914 504.933L85.9039 505.044C85.1746 501.844 84.4894 498.629 83.8489 495.401L84.3394 495.304C83.7008 492.086 83.1066 488.854 82.5574 485.609L82.0644 485.693C81.5167 482.457 81.0138 479.208 80.5559 475.949L81.0511 475.879C80.5951 472.632 80.184 469.374 79.8184 466.105L79.3215 466.161C78.9563 462.897 78.6363 459.622 78.362 456.338L78.8603 456.296C78.5877 453.032 78.3603 449.758 78.1785 446.476L77.6793 446.504C77.4976 443.222 77.3616 439.933 77.2716 436.635L77.7714 436.622C77.6821 433.349 77.6382 430.07 77.6402 426.783L77.1402 426.783C77.1422 423.5 77.19 420.21 77.284 416.914L77.7838 416.928C77.8772 413.653 78.0162 410.373 78.2015 407.087L77.7022 407.059C77.8868 403.785 78.1172 400.506 78.3938 397.222L78.892 397.264C79.1673 393.996 79.4885 390.724 79.856 387.449L79.3591 387.393C79.7243 384.138 80.1352 380.88 80.5921 377.62L81.0873 377.689C81.5426 374.44 82.0438 371.189 82.5913 367.936L82.0982 367.853C82.6416 364.625 83.2304 361.395 83.8652 358.165L84.3558 358.261C84.9877 355.046 85.6651 351.829 86.3885 348.613L85.9007 348.503C86.6197 345.307 87.384 342.11 88.1942 338.915L88.6789 339.037C89.0834 337.442 89.4994 335.846 89.9269 334.251C90.3543 332.656 90.7918 331.066 91.2392 329.482L90.7581 329.346C91.6543 326.173 92.5907 323.023 93.5663 319.895L94.0436 320.044C95.0252 316.897 96.0466 313.773 97.1072 310.672L96.6341 310.51C97.6996 307.395 98.8045 304.304 99.948 301.237L100.417 301.411C101.569 298.32 102.76 295.254 103.99 292.213L103.527 292.025C104.761 288.973 106.035 285.946 107.346 282.945L107.804 283.145C109.123 280.125 110.481 277.13 111.877 274.163L111.425 273.95C112.827 270.968 114.267 268.013 115.744 265.085L116.19 265.31C117.673 262.372 119.193 259.462 120.749 256.579L120.309 256.341C121.876 253.44 123.479 250.567 125.119 247.723L125.552 247.973C127.194 245.125 128.872 242.307 130.585 239.518L130.159 239.256C131.886 236.445 133.648 233.664 135.446 230.914L135.865 231.187C137.664 228.435 139.497 225.714 141.366 223.023L140.955 222.738C142.834 220.031 144.749 217.355 146.697 214.711L147.1 215.008C149.051 212.36 151.036 209.743 153.054 207.16L152.66 206.852C154.687 204.258 156.746 201.696 158.839 199.167L159.224 199.486C161.322 196.951 163.452 194.449 165.614 191.981L165.238 191.652C167.407 189.176 169.608 186.735 171.839 184.329L172.206 184.669C174.443 182.257 176.711 179.879 179.009 177.537L178.652 177.187C180.958 174.837 183.294 172.523 185.66 170.245L186.007 170.605C188.374 168.325 190.771 166.082 193.197 163.875L192.861 163.505C195.297 161.289 197.762 159.11 200.255 156.968L200.581 157.348C203.073 155.207 205.593 153.104 208.14 151.038L207.825 150.65C210.383 148.576 212.968 146.541 215.579 144.545L215.883 144.942C218.493 142.946 221.13 140.989 223.793 139.072L223.501 138.666C226.171 136.743 228.866 134.86 231.586 133.017L231.867 133.431C234.588 131.588 237.334 129.785 240.103 128.023L239.835 127.601C242.61 125.835 245.409 124.11 248.231 122.427L248.487 122.856C251.31 121.173 254.154 119.531 257.021 117.932L256.778 117.496C259.651 115.893 262.546 114.332 265.462 112.815L265.692 113.259C268.606 111.742 271.541 110.269 274.495 108.84L274.277 108.39C277.239 106.957 280.22 105.568 283.221 104.223L283.425 104.679C286.422 103.336 289.438 102.037 292.472 100.783L292.281 100.321C295.32 99.0646 298.378 97.8532 301.453 96.6873L301.63 97.1548C304.7 95.9906 307.787 94.872 310.891 93.7993L310.727 93.3268C313.836 92.2526 316.96 91.2244 320.099 90.243L320.248 90.7202C323.381 89.7408 326.529 88.808 329.692 87.9224L329.557 87.4409C332.722 86.5543 335.902 85.7148 339.096 84.9231L339.216 85.4084C342.402 84.6186 345.6 83.8764 348.811 83.1824L348.706 82.6937C351.918 81.9995 355.142 81.3534 358.377 80.7561L358.468 81.2477C361.696 80.6517 364.935 80.1043 368.185 79.606L368.109 79.1117C371.355 78.614 374.611 78.1653 377.876 77.766L377.937 78.2623C381.193 77.8642 384.459 77.5154 387.733 77.2164L387.687 76.7185C390.958 76.4198 394.238 76.1709 397.525 75.9722L397.555 76.4713C400.826 76.2736 404.105 76.1258 407.39 76.0284L407.376 75.5286C410.661 75.4313 413.953 75.3843 417.25 75.3883L417.249 75.8883C420.523 75.8923 423.803 75.9466 427.087 76.0517L427.103 75.552C430.384 75.657 433.67 75.8128 436.96 76.0199L436.928 76.5189C440.198 76.7247 443.472 76.9813 446.748 77.2891L446.795 76.7913C450.059 77.0981 453.326 77.4556 456.595 77.8646L456.533 78.3607C459.788 78.7679 463.045 79.226 466.302 79.7358L466.379 79.2418C469.614 79.7479 472.849 80.3047 476.084 80.9127L475.991 81.4041C479.212 82.0094 482.433 82.6657 485.653 83.3732L485.76 82.8849C488.959 83.5879 492.158 84.3416 495.354 85.1463L495.232 85.6312C496.828 86.033 498.423 86.4475 500.018 86.8749C501.613 87.3022 503.202 87.7409 504.785 88.1909L504.922 87.7099C508.092 88.6113 511.239 89.5577 514.361 90.5485L514.21 91.0251C517.352 92.0222 520.469 93.0643 523.561 94.1504L523.727 93.6787C526.833 94.7696 529.913 95.905 532.967 97.0838L532.787 97.5503C535.863 98.7375 538.912 99.969 541.934 101.244L542.129 100.783C545.164 102.063 548.172 103.387 551.153 104.754L550.944 105.208C553.935 106.58 556.899 107.994 559.834 109.451L560.056 109.003C563.008 110.469 565.932 111.977 568.826 113.527L568.59 113.967C571.487 115.518 574.354 117.111 577.192 118.745L577.441 118.311C580.298 119.956 583.126 121.643 585.922 123.37L585.659 123.795C588.456 125.522 591.221 127.29 593.956 129.097L594.232 128.68C596.979 130.495 599.694 132.35 602.378 134.245L602.09 134.653C604.775 136.549 607.429 138.484 610.05 140.457L610.351 140.057C612.979 142.036 615.574 144.052 618.136 146.106L617.824 146.496C620.389 148.553 622.921 150.647 625.418 152.777L625.743 152.396C628.246 154.531 630.715 156.703 633.149 158.91L632.814 159.28C635.247 161.487 637.646 163.729 640.01 166.006L640.357 165.646C642.727 167.928 645.061 170.245 647.359 172.596L647.002 172.945C649.298 175.293 651.557 177.675 653.781 180.09L654.149 179.751C656.377 182.171 658.568 184.623 660.723 187.108L660.345 187.435C662.497 189.916 664.611 192.428 666.688 194.972L667.075 194.655C669.155 197.202 671.197 199.78 673.201 202.388L672.805 202.693C674.805 205.296 676.768 207.929 678.691 210.59L679.097 210.297C681.023 212.962 682.91 215.656 684.758 218.378L684.345 218.659C686.189 221.374 687.993 224.117 689.759 226.887L690.18 226.618C691.947 229.39 693.674 232.189 695.361 235.013L694.931 235.27C696.614 238.088 698.257 240.932 699.86 243.801L700.296 243.557C701.899 246.426 703.46 249.319 704.981 252.236L704.538 252.468C706.055 255.378 707.531 258.313 708.966 261.27L709.416 261.052C710.85 264.007 712.243 266.986 713.594 269.986L713.138 270.192C714.485 273.183 715.791 276.197 717.054 279.23L717.515 279.038C718.778 282.073 719.999 285.128 721.177 288.202L720.711 288.381C721.884 291.443 723.015 294.525 724.103 297.625L724.574 297.459C725.663 300.561 726.708 303.68 727.709 306.817L727.233 306.969C728.23 310.093 729.185 313.235 730.095 316.393L730.576 316.254C731.485 319.41 732.352 322.583 733.174 325.77L732.69 325.895C733.509 329.073 734.284 332.266 735.015 335.473L735.503 335.362C736.232 338.562 736.917 341.776 737.558 345.004L737.067 345.101C737.706 348.32 738.3 351.552 738.849 354.796L739.342 354.713C739.89 357.949 740.393 361.197 740.851 364.457L740.356 364.526C740.812 367.773 741.223 371.031 741.588 374.3L742.085 374.245C742.451 377.509 742.77 380.783 743.045 384.068L742.547 384.109C742.819 387.373 743.047 390.647 743.228 393.929L743.727 393.902C743.909 397.183 744.045 400.473 744.135 403.77L743.635 403.784C743.725 407.056 743.769 410.336 743.767 413.623L744.267 413.623C744.265 416.906 744.217 420.196 744.123 423.491L743.623 423.477C743.53 426.752 743.391 430.033 743.205 433.318L743.705 433.347C743.52 436.621 743.29 439.9 743.013 443.183L742.515 443.141C742.239 446.409 741.918 449.681 741.551 452.957L742.048 453.012C741.683 456.267 741.272 459.525 740.815 462.786L740.32 462.716C739.864 465.965 739.363 469.217 738.815 472.469L739.309 472.552C738.765 475.78 738.176 479.01 737.542 482.241L737.051 482.144C736.419 485.36 735.742 488.576 735.018 491.792L735.506 491.902C734.787 495.099 734.023 498.295 733.213 501.491L732.728 501.368C732.323 502.964 731.907 504.559 731.48 506.155C731.053 507.75 730.615 509.339 730.168 510.923L730.649 511.059C729.752 514.232 728.816 517.383 727.841 520.51L727.363 520.361C726.382 523.509 725.36 526.633 724.3 529.733L724.773 529.895C723.707 533.01 722.602 536.102 721.459 539.169L720.99 538.994C719.838 542.085 718.646 545.151 717.416 548.193L717.88 548.38C716.645 551.432 715.372 554.459 714.061 557.461L713.603 557.26C712.283 560.281 710.925 563.275 709.53 566.243L709.982 566.456C708.58 569.437 707.14 572.392 705.663 575.32L705.216 575.095C703.734 578.033 702.214 580.944 700.658 583.827L701.097 584.064C699.531 586.965 697.928 589.838 696.288 592.682L695.855 592.433C694.213 595.28 692.535 598.099 690.822 600.888L691.248 601.149C689.521 603.96 687.758 606.741 685.96 609.492L685.542 609.218C683.743 611.97 681.909 614.691 680.041 617.382L680.452 617.667C678.572 620.374 676.658 623.05 674.71 625.694L674.307 625.398C672.356 628.046 670.371 630.662 668.353 633.246L668.747 633.554C666.72 636.148 664.66 638.709 662.568 641.238L662.183 640.919C660.085 643.454 657.955 645.956 655.792 648.424L656.168 648.754C654 651.229 651.799 653.67 649.568 656.077L649.201 655.737C646.964 658.149 644.696 660.526 642.398 662.868L642.755 663.219C640.449 665.568 638.113 667.883 635.747 670.161L635.4 669.801C633.032 672.08 630.635 674.324 628.21 676.53L628.546 676.9C626.11 679.116 623.645 681.295 621.152 683.437L620.826 683.058C618.334 685.199 615.814 687.302 613.267 689.367L613.582 689.755C611.024 691.829 608.439 693.864 605.828 695.861L605.524 695.463C602.914 697.459 600.276 699.416 597.614 701.334L597.906 701.739C595.236 703.662 592.541 705.545 589.82 707.388L589.54 706.974C586.819 708.817 584.073 710.621 581.304 712.383L581.572 712.804C578.797 714.57 575.997 716.295 573.175 717.979L572.919 717.549C570.097 719.232 567.252 720.874 564.386 722.473L564.629 722.91C561.756 724.513 558.861 726.073 555.945 727.59L555.714 727.147C552.801 728.663 549.866 730.136 546.912 731.566L547.129 732.016C544.168 733.449 541.187 734.838 538.186 736.183L537.982 735.726C534.985 737.069 531.969 738.368 528.935 739.622L529.126 740.084C526.087 741.341 523.029 742.552 519.954 743.718L519.777 743.251C516.707 744.415 513.619 745.533 510.516 746.606L510.679 747.079C507.571 748.153 504.447 749.181 501.308 750.162L501.158 749.685C498.026 750.665 494.877 751.597 491.715 752.483L491.85 752.964C488.684 753.851 485.504 754.691 482.311 755.482L482.191 754.997C479.005 755.787 475.806 756.529 472.595 757.223L472.701 757.712C469.489 758.406 466.265 759.052 463.03 759.649L462.939 759.158C459.711 759.754 456.472 760.301 453.222 760.799L453.298 761.294C450.052 761.791 446.796 762.24 443.53 762.639L443.47 762.143C440.214 762.541 436.948 762.89 433.674 763.189L433.72 763.687C430.448 763.986 427.169 764.235 423.882 764.433L423.852 763.934C420.58 764.132 417.302 764.28 414.016 764.377L414.031 764.877C410.746 764.974 407.454 765.021 404.157 765.017L404.158 764.517C400.884 764.513 397.604 764.459 394.32 764.354L394.304 764.853C391.023 764.748 387.737 764.593 384.447 764.386L384.479 763.887C381.208 763.681 377.935 763.424 374.659 763.116L374.612 763.614C371.347 763.307 368.08 762.95 364.812 762.541L364.874 762.045C361.619 761.638 358.362 761.179 355.105 760.67L355.027 761.164C351.793 760.658 348.558 760.101 345.323 759.493L345.415 759.001C342.195 758.396 338.974 757.74 335.754 757.032L335.647 757.521Z" stroke="white" stroke-dasharray="10 10"/>
<path d="M480.608 665.019C477.242 664.386 473.874 663.665 470.508 662.854L470.625 662.368C468.955 661.965 467.286 661.54 465.617 661.093C463.948 660.646 462.29 660.179 460.642 659.693L460.501 660.172C457.18 659.192 453.903 658.133 450.671 656.997L450.837 656.525C447.58 655.381 444.369 654.159 441.206 652.862L441.016 653.325C437.816 652.013 434.664 650.624 431.563 649.162L431.776 648.709C428.657 647.238 425.589 645.693 422.573 644.075L422.337 644.516C419.292 642.882 416.3 641.175 413.364 639.398L413.623 638.971C410.675 637.186 407.784 635.331 404.95 633.408L404.669 633.822C401.812 631.883 399.013 629.875 396.276 627.801L396.578 627.403C393.833 625.324 391.149 623.179 388.529 620.97L388.206 621.353C385.568 619.129 382.993 616.842 380.483 614.494L380.824 614.128C378.312 611.777 375.865 609.365 373.485 606.895L373.125 607.242C370.732 604.758 368.407 602.215 366.153 599.617L366.53 599.29C364.276 596.692 362.092 594.039 359.98 591.334L359.586 591.642C357.464 588.925 355.416 586.155 353.442 583.337L353.851 583.05C351.879 580.234 349.982 577.369 348.161 574.459L347.737 574.724C345.909 571.803 344.159 568.836 342.487 565.827L342.924 565.584C341.256 562.58 339.666 559.534 338.157 556.448L337.708 556.668C336.195 553.575 334.763 550.442 333.413 547.273L333.873 547.077C332.528 543.917 331.265 540.722 330.086 537.493L329.616 537.665C328.436 534.432 327.34 531.166 326.33 527.871L326.808 527.724C325.802 524.443 324.882 521.132 324.049 517.795L323.564 517.916C322.732 514.579 321.986 511.216 321.33 507.829L321.821 507.734C321.169 504.368 320.605 500.979 320.131 497.571L319.636 497.64C319.163 494.236 318.78 490.813 318.488 487.374L318.987 487.332C318.697 483.919 318.498 480.489 318.391 477.047L317.892 477.062C317.785 473.631 317.77 470.187 317.848 466.733L318.348 466.744C318.425 463.323 318.594 459.892 318.857 456.455L318.358 456.416C318.619 452.997 318.973 449.571 319.42 446.142L319.915 446.206C320.357 442.817 320.891 439.423 321.519 436.029L321.027 435.938C321.65 432.57 322.364 429.201 323.172 425.834L323.658 425.951C324.059 424.281 324.483 422.611 324.93 420.943C325.377 419.274 325.845 417.616 326.333 415.97L325.853 415.828C326.837 412.508 327.903 409.233 329.048 406.005L329.519 406.172C330.673 402.919 331.907 399.713 333.219 396.556L332.757 396.365C334.085 393.171 335.492 390.027 336.976 386.936L337.426 387.152C338.918 384.044 340.487 380.988 342.131 377.986L341.692 377.746C343.351 374.716 345.086 371.741 346.894 368.823L347.319 369.086C349.133 366.158 351.02 363.288 352.977 360.476L352.567 360.191C354.539 357.358 356.583 354.585 358.694 351.874L359.088 352.182C361.203 349.467 363.385 346.814 365.633 344.225L365.256 343.897C367.517 341.292 369.844 338.752 372.234 336.278L372.594 336.626C374.983 334.152 377.435 331.745 379.947 329.406L379.606 329.04C382.129 326.691 384.711 324.411 387.35 322.201L387.671 322.585C390.306 320.378 392.997 318.242 395.742 316.179L395.442 315.779C398.195 313.71 401.002 311.712 403.859 309.79L404.138 310.205C406.988 308.287 409.887 306.444 412.834 304.677L412.577 304.248C415.529 302.478 418.529 300.783 421.572 299.168L421.806 299.609C424.839 297.999 427.914 296.467 431.03 295.015L430.819 294.561C433.938 293.107 437.097 291.733 440.292 290.441L440.48 290.905C443.661 289.618 446.879 288.413 450.13 287.29L449.967 286.818C453.219 285.695 456.503 284.656 459.818 283.701L459.956 284.181C463.252 283.232 466.577 282.366 469.929 281.586L469.816 281.099C473.163 280.321 476.537 279.627 479.934 279.021L480.022 279.513C483.396 278.911 486.792 278.395 490.209 277.967L490.147 277.471C493.554 277.044 496.982 276.704 500.426 276.453L500.462 276.952C503.878 276.704 507.309 276.543 510.754 276.472L510.744 275.972C514.175 275.901 517.619 275.918 521.074 276.026L521.058 276.526C524.478 276.633 527.908 276.828 531.345 277.114L531.386 276.616C534.803 276.9 538.227 277.273 541.655 277.737L541.588 278.233C544.975 278.691 548.367 279.238 551.76 279.876L551.852 279.384C555.219 280.017 558.586 280.738 561.952 281.549L561.835 282.035C563.505 282.438 565.175 282.863 566.843 283.31C568.512 283.757 570.171 284.224 571.818 284.71L571.959 284.231C575.28 285.211 578.557 286.27 581.789 287.406L581.623 287.878C584.88 289.022 588.091 290.244 591.254 291.541L591.444 291.078C594.644 292.39 597.796 293.779 600.897 295.241L600.684 295.694C603.803 297.165 606.872 298.71 609.887 300.328L610.123 299.887C613.169 301.521 616.16 303.228 619.096 305.005L618.837 305.432C621.785 307.217 624.677 309.072 627.51 310.995L627.791 310.581C630.648 312.52 633.447 314.528 636.184 316.601L635.883 317C638.627 319.079 641.311 321.224 643.932 323.433L644.254 323.05C646.893 325.274 649.468 327.561 651.977 329.909L651.636 330.275C654.149 332.626 656.596 335.038 658.975 337.508L659.335 337.161C661.728 339.645 664.053 342.188 666.307 344.786L665.93 345.113C668.184 347.711 670.368 350.364 672.48 353.069L672.874 352.761C674.996 355.478 677.044 358.248 679.019 361.066L678.609 361.353C680.581 364.169 682.479 367.034 684.3 369.944L684.724 369.679C686.551 372.6 688.301 375.567 689.973 378.576L689.536 378.819C691.204 381.823 692.794 384.869 694.303 387.954L694.752 387.735C696.265 390.828 697.697 393.961 699.047 397.13L698.587 397.326C699.932 400.486 701.195 403.681 702.374 406.909L702.844 406.738C704.024 409.971 705.121 413.237 706.131 416.532L705.653 416.679C706.658 419.96 707.578 423.271 708.411 426.608L708.896 426.487C709.729 429.824 710.474 433.187 711.13 436.574L710.639 436.669C711.291 440.035 711.855 443.424 712.329 446.832L712.824 446.763C713.297 450.167 713.68 453.589 713.972 457.029L713.474 457.071C713.763 460.484 713.962 463.914 714.069 467.356L714.569 467.341C714.675 470.772 714.69 474.216 714.612 477.67L714.112 477.659C714.035 481.08 713.866 484.511 713.603 487.948L714.102 487.986C713.841 491.406 713.488 494.832 713.04 498.261L712.545 498.196C712.103 501.586 711.569 504.98 710.942 508.374L711.433 508.465C710.811 511.833 710.096 515.202 709.288 518.569L708.802 518.452C708.401 520.122 707.977 521.791 707.53 523.46C707.083 525.129 706.615 526.787 706.127 528.433L706.607 528.575C705.623 531.895 704.557 535.17 703.413 538.398L702.941 538.231C701.788 541.484 700.553 544.69 699.241 547.846L699.703 548.038C698.375 551.232 696.968 554.375 695.484 557.467L695.034 557.251C693.542 560.359 691.973 563.415 690.329 566.417L690.768 566.657C689.109 569.687 687.374 572.662 685.566 575.58L685.141 575.317C683.327 578.245 681.44 581.115 679.483 583.927L679.893 584.212C677.921 587.045 675.878 589.818 673.766 592.529L673.372 592.221C671.257 594.936 669.075 597.589 666.827 600.178L667.204 600.506C664.943 603.111 662.616 605.651 660.226 608.125L659.867 607.777C657.477 610.251 655.025 612.658 652.513 614.997L652.854 615.363C650.332 617.712 647.749 619.992 645.111 622.201L644.79 621.818C642.155 624.025 639.463 626.16 636.718 628.224L637.019 628.623C634.265 630.693 631.458 632.69 628.602 634.613L628.322 634.198C625.473 636.116 622.573 637.959 619.626 639.726L619.883 640.155C616.931 641.925 613.931 643.619 610.888 645.235L610.654 644.794C607.622 646.404 604.546 647.936 601.43 649.388L601.642 649.842C598.522 651.296 595.363 652.67 592.168 653.962L591.98 653.498C588.799 654.785 585.581 655.99 582.33 657.113L582.493 657.585C579.241 658.708 575.957 659.747 572.643 660.702L572.504 660.222C569.208 661.171 565.883 662.037 562.531 662.817L562.645 663.304C559.297 664.082 555.923 664.776 552.526 665.382L552.438 664.89C549.065 665.492 545.668 666.008 542.251 666.436L542.314 666.932C538.906 667.359 535.478 667.699 532.034 667.949L531.998 667.451C528.583 667.699 525.151 667.86 521.706 667.931L521.716 668.431C518.285 668.502 514.841 668.485 511.387 668.377L511.402 667.877C507.982 667.77 504.552 667.575 501.115 667.289L501.074 667.787C497.657 667.503 494.233 667.13 490.805 666.666L490.872 666.17C487.485 665.712 484.093 665.165 480.7 664.527L480.608 665.019Z" stroke="white" stroke-dasharray="10 10"/>
</svg>
