<svg width="687" height="683" viewBox="0 0 687 683" fill="none" xmlns="http://www.w3.org/2000/svg">
<path d="M685.485 461.63C685.718 464.853 685.875 468.095 685.954 471.357L685.454 471.369C685.493 472.988 685.513 474.613 685.513 476.241C685.513 477.87 685.493 479.495 685.454 481.114L685.954 481.126C685.875 484.388 685.718 487.63 685.485 490.852L684.986 490.816C684.751 494.06 684.437 497.283 684.048 500.484L684.544 500.544C684.151 503.779 683.68 506.992 683.133 510.179L682.64 510.095C682.09 513.297 681.464 516.474 680.763 519.625L681.251 519.734C680.544 522.912 679.762 526.063 678.905 529.185L678.423 529.053C677.563 532.183 676.63 535.284 675.623 538.355L676.098 538.51C675.085 541.602 673.999 544.662 672.84 547.688L672.373 547.51C671.214 550.539 669.983 553.536 668.682 556.496L669.14 556.698C667.832 559.674 666.454 562.615 665.008 565.518L664.56 565.295C663.115 568.197 661.601 571.061 660.02 573.885L660.457 574.13C658.87 576.965 657.217 579.76 655.499 582.514L655.075 582.249C653.36 584.998 651.581 587.705 649.739 590.368L650.15 590.653C648.303 593.323 646.394 595.95 644.423 598.531L644.026 598.228C642.061 600.801 640.036 603.33 637.951 605.811L638.334 606.132C636.247 608.617 634.101 611.055 631.898 613.443L631.531 613.104C629.336 615.483 627.086 617.813 624.78 620.092L625.132 620.448C622.825 622.728 620.464 624.958 618.051 627.134L617.716 626.763C615.313 628.93 612.858 631.045 610.354 633.104L610.671 633.491C608.167 635.55 605.612 637.556 603.01 639.504L602.711 639.104C600.122 641.043 597.485 642.926 594.803 644.752L595.085 645.165C592.405 646.989 589.68 648.755 586.912 650.462L586.649 650.036C583.897 651.733 581.102 653.371 578.265 654.949L578.508 655.386C575.677 656.96 572.804 658.475 569.892 659.927L569.669 659.48C566.777 660.922 563.846 662.303 560.878 663.621L561.081 664.078C558.121 665.392 555.124 666.644 552.093 667.831L551.911 667.365C548.902 668.543 545.86 669.657 542.785 670.706L542.946 671.179C539.882 672.224 536.785 673.204 533.659 674.117L533.519 673.637C530.418 674.543 527.288 675.383 524.13 676.155L524.249 676.641C521.106 677.409 517.935 678.111 514.738 678.745L514.64 678.254C511.476 678.881 508.286 679.441 505.072 679.933L505.148 680.427C501.953 680.916 498.734 681.336 495.494 681.688L495.44 681.19C492.234 681.538 489.008 681.817 485.761 682.027L485.793 682.526C482.569 682.735 479.326 682.875 476.065 682.945L476.054 682.445C474.434 682.48 472.809 682.497 471.18 682.497C469.55 682.497 467.925 682.48 466.305 682.445L466.294 682.945C463.033 682.875 459.789 682.735 456.566 682.526L456.598 682.027C453.351 681.817 450.125 681.538 446.919 681.19L446.865 681.688C443.625 681.336 440.406 680.916 437.211 680.427L437.287 679.933C434.073 679.441 430.883 678.881 427.719 678.254L427.621 678.745C424.424 678.111 421.253 677.409 418.11 676.641L418.229 676.155C415.071 675.383 411.941 674.543 408.84 673.637L408.7 674.117C405.573 673.204 402.477 672.224 399.413 671.179L399.574 670.706C396.499 669.657 393.456 668.543 390.448 667.365L390.266 667.831C387.234 666.644 384.238 665.392 381.278 664.078L381.48 663.621C378.513 662.303 375.582 660.922 372.69 659.48L372.467 659.927C369.555 658.475 366.682 656.96 363.851 655.386L364.094 654.949C361.257 653.371 358.462 651.733 355.71 650.036L355.447 650.462C352.679 648.755 349.954 646.989 347.274 645.165L347.556 644.752C344.874 642.926 342.237 641.043 339.648 639.104L339.349 639.504C336.747 637.555 334.192 635.55 331.688 633.491L332.005 633.104C329.501 631.045 327.046 628.93 324.643 626.763L324.308 627.134C321.895 624.958 319.534 622.728 317.227 620.448L317.579 620.092C315.273 617.813 313.023 615.483 310.828 613.104L310.46 613.443C308.258 611.055 306.112 608.617 304.025 606.132L304.408 605.811C302.323 603.33 300.298 600.801 298.333 598.228L297.936 598.531C295.965 595.95 294.056 593.323 292.209 590.653L292.62 590.368C290.778 587.705 288.999 584.998 287.284 582.249L286.86 582.513C285.142 579.76 283.489 576.965 281.902 574.129L282.339 573.885C280.758 571.061 279.244 568.197 277.799 565.295L277.351 565.518C275.905 562.615 274.527 559.674 273.219 556.698L273.677 556.496C272.376 553.536 271.145 550.539 269.986 547.51L269.519 547.688C268.36 544.662 267.274 541.602 266.261 538.51L266.736 538.355C265.729 535.284 264.796 532.183 263.936 529.053L263.454 529.185C262.597 526.063 261.815 522.912 261.108 519.734L261.596 519.625C260.895 516.474 260.269 513.297 259.719 510.095L259.226 510.179C258.679 506.992 258.208 503.779 257.815 500.544L258.311 500.484C257.922 497.283 257.608 494.06 257.373 490.816L256.874 490.852C256.641 487.63 256.484 484.388 256.405 481.126L256.905 481.114C256.866 479.494 256.846 477.87 256.846 476.241C256.846 474.613 256.866 472.988 256.905 471.369L256.405 471.357C256.484 468.095 256.641 464.853 256.874 461.63L257.373 461.667C257.608 458.423 257.922 455.2 258.311 451.999L257.815 451.938C258.208 448.703 258.679 445.491 259.226 442.304L259.719 442.388C260.269 439.186 260.895 436.009 261.596 432.858L261.108 432.749C261.815 429.571 262.597 426.42 263.454 423.298L263.936 423.43C264.796 420.3 265.729 417.198 266.736 414.128L266.261 413.972C267.274 410.881 268.36 407.821 269.519 404.794L269.986 404.973C271.145 401.944 272.376 398.947 273.677 395.986L273.219 395.785C274.527 392.809 275.905 389.868 277.351 386.965L277.799 387.188C279.244 384.286 280.758 381.422 282.339 378.597L281.902 378.353C283.489 375.518 285.142 372.723 286.86 369.969L287.284 370.234C288.999 367.485 290.778 364.778 292.62 362.114L292.209 361.83C294.056 359.16 295.965 356.533 297.936 353.952L298.333 354.255C300.298 351.681 302.323 349.153 304.408 346.672L304.025 346.35C306.112 343.866 308.258 341.428 310.461 339.04L310.828 339.379C313.023 337 315.273 334.67 317.579 332.391L317.227 332.035C319.534 329.755 321.895 327.525 324.308 325.348L324.643 325.72C327.046 323.553 329.501 321.438 332.005 319.378L331.688 318.992C334.192 316.933 336.747 314.927 339.349 312.978L339.648 313.379C342.237 311.44 344.874 309.557 347.556 307.731L347.274 307.318C349.954 305.494 352.679 303.728 355.447 302.021L355.71 302.446C358.462 300.75 361.257 299.112 364.094 297.534L363.851 297.097C366.682 295.522 369.555 294.008 372.467 292.556L372.69 293.003C375.582 291.561 378.513 290.18 381.481 288.862L381.278 288.405C384.238 287.09 387.235 285.839 390.266 284.652L390.448 285.118C393.456 283.94 396.499 282.825 399.574 281.777L399.413 281.304C402.477 280.259 405.574 279.279 408.7 278.366L408.84 278.845C411.941 277.94 415.071 277.1 418.229 276.328L418.11 275.842C421.253 275.074 424.424 274.372 427.621 273.738L427.719 274.229C430.883 273.601 434.073 273.041 437.287 272.55L437.211 272.056C440.406 271.567 443.625 271.147 446.865 270.795L446.919 271.292C450.125 270.945 453.351 270.666 456.598 270.456L456.566 269.957C459.79 269.748 463.033 269.608 466.294 269.538L466.305 270.038C467.925 270.003 469.55 269.986 471.18 269.986C472.809 269.986 474.434 270.003 476.054 270.038L476.065 269.538C479.326 269.608 482.57 269.748 485.793 269.957L485.761 270.456C489.008 270.666 492.234 270.945 495.44 271.292L495.494 270.795C498.734 271.147 501.953 271.567 505.148 272.056L505.072 272.55C508.286 273.041 511.476 273.601 514.641 274.229L514.738 273.738C517.935 274.372 521.106 275.074 524.249 275.842L524.13 276.328C527.288 277.1 530.418 277.94 533.519 278.846L533.659 278.366C536.786 279.279 539.882 280.259 542.946 281.304L542.785 281.777C545.86 282.825 548.903 283.94 551.911 285.118L552.093 284.652C555.125 285.839 558.121 287.091 561.081 288.405L560.879 288.862C563.846 290.18 566.777 291.561 569.669 293.003L569.892 292.556C572.804 294.008 575.677 295.522 578.508 297.097L578.265 297.534C581.102 299.112 583.897 300.75 586.649 302.447L586.912 302.021C589.68 303.728 592.405 305.494 595.085 307.318L594.803 307.731C597.485 309.557 600.122 311.44 602.711 313.379L603.01 312.978C605.612 314.927 608.167 316.933 610.671 318.992L610.354 319.379C612.858 321.438 615.313 323.553 617.716 325.72L618.051 325.348C620.464 327.525 622.825 329.755 625.132 332.035L624.78 332.391C627.086 334.67 629.336 337 631.531 339.379L631.899 339.04C634.101 341.428 636.247 343.866 638.334 346.35L637.951 346.672C640.036 349.153 642.061 351.681 644.026 354.255L644.423 353.952C646.394 356.533 648.303 359.16 650.15 361.83L649.739 362.114C651.581 364.778 653.361 367.485 655.075 370.234L655.499 369.969C657.217 372.723 658.87 375.518 660.457 378.353L660.02 378.598C661.601 381.422 663.115 384.286 664.56 387.188L665.008 386.965C666.454 389.868 667.832 392.809 669.14 395.785L668.682 395.986C669.983 398.947 671.214 401.944 672.373 404.973L672.84 404.794C673.999 407.821 675.085 410.881 676.098 413.972L675.623 414.128C676.63 417.198 677.563 420.3 678.423 423.43L678.905 423.298C679.762 426.42 680.544 429.571 681.251 432.749L680.763 432.858C681.464 436.009 682.09 439.186 682.64 442.388L683.133 442.304C683.68 445.491 684.151 448.703 684.544 451.938L684.048 451.999C684.437 455.2 684.751 458.423 684.986 461.667L685.485 461.63Z" stroke="#8ECBF1" stroke-dasharray="10 10"/>
<path d="M608.589 452.966C609.079 456.365 609.411 459.816 609.577 463.311L609.078 463.335C609.159 465.049 609.2 466.774 609.2 468.508C609.2 470.243 609.159 471.968 609.078 473.682L609.577 473.706C609.411 477.201 609.079 480.652 608.589 484.051L608.094 483.98C607.598 487.421 606.938 490.808 606.124 494.133L606.61 494.252C605.78 497.639 604.791 500.962 603.65 504.213L603.178 504.047C602.031 507.317 600.729 510.514 599.282 513.627L599.736 513.838C598.27 516.992 596.657 520.061 594.904 523.036L594.473 522.783C592.718 525.762 590.823 528.647 588.797 531.428L589.201 531.722C587.157 534.527 584.981 537.228 582.681 539.813L582.308 539.481C580.014 542.06 577.597 544.524 575.066 546.864L575.405 547.231C572.861 549.584 570.203 551.811 567.44 553.904L567.138 553.506C564.392 555.586 561.542 557.532 558.597 559.336L558.858 559.762C555.91 561.568 552.867 563.231 549.738 564.743L549.521 564.292C546.427 565.787 543.249 567.133 539.997 568.32L540.168 568.789C536.93 569.971 533.618 570.996 530.241 571.856L530.118 571.372C526.799 572.217 523.417 572.901 519.981 573.417L520.055 573.911C516.659 574.421 513.209 574.766 509.714 574.938L509.69 574.439C507.976 574.523 506.252 574.566 504.518 574.566C502.783 574.566 501.059 574.523 499.345 574.439L499.321 574.938C495.826 574.766 492.377 574.421 488.98 573.911L489.054 573.417C485.618 572.901 482.236 572.217 478.918 571.372L478.794 571.856C475.417 570.996 472.105 569.971 468.867 568.789L469.038 568.32C465.786 567.133 462.608 565.787 459.514 564.292L459.297 564.743C456.169 563.231 453.126 561.568 450.177 559.762L450.439 559.336C447.494 557.532 444.643 555.586 441.897 553.506L441.595 553.904C438.832 551.811 436.174 549.584 433.63 547.231L433.969 546.864C431.439 544.524 429.021 542.06 426.728 539.481L426.354 539.813C424.054 537.228 421.878 534.527 419.834 531.722L420.238 531.428C418.212 528.647 416.317 525.762 414.562 522.783L414.131 523.036C412.379 520.061 410.765 516.992 409.299 513.838L409.753 513.627C408.306 510.514 407.004 507.317 405.857 504.047L405.385 504.213C404.244 500.962 403.255 497.639 402.425 494.252L402.911 494.133C402.097 490.808 401.437 487.421 400.941 483.98L400.446 484.051C399.956 480.652 399.624 477.201 399.458 473.706L399.958 473.682C399.876 471.968 399.835 470.243 399.835 468.508C399.835 466.774 399.876 465.049 399.958 463.335L399.458 463.311C399.624 459.816 399.956 456.365 400.446 452.966L400.941 453.037C401.437 449.596 402.097 446.209 402.911 442.884L402.425 442.765C403.255 439.378 404.244 436.055 405.385 432.804L405.857 432.97C407.004 429.7 408.306 426.503 409.753 423.39L409.299 423.179C410.765 420.025 412.379 416.956 414.131 413.981L414.562 414.234C416.317 411.255 418.212 408.37 420.238 405.589L419.834 405.295C421.878 402.49 424.054 399.789 426.354 397.204L426.728 397.536C429.021 394.957 431.439 392.493 433.969 390.153L433.63 389.786C436.174 387.433 438.832 385.206 441.595 383.113L441.897 383.511C444.643 381.431 447.494 379.485 450.439 377.681L450.177 377.255C453.126 375.449 456.169 373.786 459.297 372.274L459.514 372.725C462.608 371.23 465.786 369.884 469.038 368.697L468.867 368.228C472.105 367.046 475.417 366.021 478.794 365.161L478.918 365.645C482.236 364.8 485.618 364.116 489.054 363.6L488.98 363.106C492.377 362.596 495.826 362.251 499.321 362.079L499.345 362.578C501.059 362.494 502.783 362.451 504.518 362.451C506.252 362.451 507.976 362.494 509.69 362.578L509.714 362.079C513.209 362.251 516.659 362.596 520.055 363.106L519.981 363.6C523.417 364.116 526.799 364.8 530.118 365.645L530.241 365.161C533.618 366.021 536.93 367.046 540.168 368.228L539.997 368.697C543.249 369.884 546.427 371.23 549.521 372.725L549.738 372.274C552.867 373.786 555.91 375.449 558.858 377.255L558.597 377.681C561.542 379.485 564.392 381.431 567.138 383.511L567.44 383.113C570.203 385.206 572.861 387.433 575.405 389.786L575.066 390.153C577.597 392.493 580.014 394.957 582.308 397.536L582.681 397.204C584.981 399.789 587.157 402.49 589.201 405.295L588.797 405.589C590.823 408.37 592.718 411.255 594.473 414.234L594.904 413.981C596.657 416.956 598.27 420.025 599.736 423.179L599.282 423.39C600.729 426.503 602.031 429.7 603.178 432.97L603.65 432.804C604.791 436.055 605.78 439.378 606.61 442.765L606.124 442.884C606.938 446.209 607.598 449.596 608.094 453.037L608.589 452.966Z" stroke="#8ECBF1" stroke-dasharray="10 10"/>
<path d="M214.909 471.81C211.736 471.201 208.563 470.514 205.392 469.746L205.51 469.26C203.935 468.878 202.361 468.477 200.788 468.055C199.215 467.634 197.651 467.194 196.097 466.737L195.956 467.217C192.826 466.297 189.734 465.306 186.682 464.246L186.846 463.774C183.774 462.707 180.742 461.57 177.751 460.366L177.564 460.83C174.541 459.612 171.56 458.326 168.623 456.972L168.832 456.518C165.881 455.159 162.974 453.732 160.112 452.239L159.881 452.683C156.994 451.177 154.153 449.605 151.359 447.97L151.612 447.538C148.81 445.898 146.056 444.193 143.351 442.427L143.077 442.845C140.354 441.066 137.679 439.225 135.056 437.323L135.349 436.918C132.723 435.014 130.147 433.05 127.624 431.027L127.311 431.417C124.774 429.383 122.291 427.291 119.861 425.143L120.192 424.768C117.763 422.621 115.389 420.417 113.069 418.159L112.721 418.518C110.393 416.252 108.12 413.931 105.905 411.559L106.271 411.218C104.059 408.85 101.905 406.431 99.8089 403.962L99.4278 404.286C97.3264 401.811 95.2834 399.286 93.3003 396.715L93.6962 396.41C91.7185 393.846 89.8006 391.235 87.9435 388.579L87.5338 388.866C85.6738 386.207 83.8749 383.503 82.1384 380.758L82.561 380.49C80.8307 377.755 79.1626 374.977 77.5578 372.161L77.1234 372.408C75.5175 369.59 73.975 366.732 72.4973 363.838L72.9426 363.61C71.4712 360.729 70.0642 357.81 68.7228 354.858L68.2676 355.065C66.9263 352.112 65.6504 349.126 64.4414 346.108L64.9056 345.922C63.7027 342.92 62.5661 339.886 61.4971 336.823L61.025 336.988C59.9568 333.927 58.956 330.838 58.0239 327.722L58.5029 327.579C57.5761 324.481 56.7174 321.357 55.9279 318.209L55.4429 318.331C54.6547 315.188 53.9354 312.021 53.2863 308.833L53.7762 308.733C53.1314 305.566 52.5559 302.378 52.0512 299.17L51.5573 299.248C51.0538 296.048 50.6204 292.83 50.2585 289.595L50.7554 289.539C50.3962 286.328 50.1075 283.101 49.8905 279.86L49.3917 279.893C49.1754 276.663 49.0303 273.418 48.9574 270.162L49.4573 270.15C49.3851 266.921 49.3841 263.681 49.4555 260.43L48.9556 260.419C49.0267 257.184 49.1694 253.939 49.3848 250.687L49.8837 250.72C50.0969 247.501 50.3816 244.275 50.7388 241.044L50.2419 240.989C50.597 237.776 51.0237 234.558 51.5231 231.337L52.0172 231.414C52.5112 228.228 53.0763 225.039 53.7139 221.849L53.2236 221.751C53.8567 218.583 54.5609 215.414 55.3373 212.246L55.8229 212.365C56.2087 210.79 56.6124 209.216 57.0341 207.642C57.4558 206.069 57.8933 204.503 58.3463 202.947L57.8662 202.807C58.7779 199.675 59.7526 196.579 60.7882 193.519L61.2619 193.679C62.3049 190.598 63.4099 187.553 64.5752 184.547L64.109 184.366C65.287 181.327 66.5264 178.327 67.8252 175.367L68.283 175.568C69.5894 172.591 70.9559 169.655 72.3808 166.76L71.9322 166.539C73.3716 163.615 74.8704 160.734 76.4265 157.897L76.8649 158.137C78.4282 155.287 80.0494 152.481 81.7265 149.72L81.2991 149.461C82.9905 146.677 84.7384 143.94 86.541 141.25L86.9563 141.528C88.7649 138.83 90.6286 136.179 92.5452 133.578L92.1426 133.281C94.0736 130.661 96.0581 128.09 98.094 125.571L98.4828 125.885C100.524 123.36 102.616 120.886 104.758 118.466L104.384 118.134C106.54 115.698 108.746 113.315 111 110.987L111.36 111.335C113.617 109.004 115.923 106.728 118.275 104.508L117.931 104.145C120.296 101.913 122.708 99.7376 125.163 97.6212L125.49 97.9999C127.947 95.8819 130.448 93.8228 132.991 91.8239L132.682 91.4308C135.238 89.4218 137.836 87.4735 140.474 85.5875L140.765 85.9942C143.403 84.108 146.08 82.2842 148.795 80.5241L148.523 80.1046C151.25 78.3368 154.015 76.6333 156.815 74.9953L157.068 75.4269C159.866 73.7901 162.699 72.219 165.565 70.715L165.333 70.2723C168.209 68.7628 171.119 67.3208 174.059 65.9477L174.271 66.4008C177.207 65.0298 180.173 63.7278 183.168 62.496L182.978 62.0336C185.981 60.7983 189.012 59.6337 192.07 58.5409L192.238 59.0118C195.288 57.9218 198.363 56.9037 201.462 55.9588L201.316 55.4805C204.421 54.5339 207.549 53.6606 210.698 52.8621L210.821 53.3468C213.958 52.5512 217.116 51.8301 220.293 51.1848L220.194 50.6948C223.372 50.0491 226.57 49.4792 229.783 48.9864L229.859 49.4806C233.055 48.9904 236.268 48.5768 239.495 48.2412L239.443 47.7439C242.666 47.4086 245.903 47.1509 249.151 46.9723L249.179 47.4715C252.405 47.2941 255.642 47.1949 258.889 47.1752L258.886 46.6753C262.123 46.6557 265.369 46.715 268.622 46.8547L268.601 47.3542C271.825 47.4927 275.057 47.7103 278.292 48.0083L278.338 47.5104C281.558 47.8071 284.783 48.1834 288.01 48.6405L287.94 49.1356C291.132 49.5878 294.326 50.1194 297.521 50.7317L297.615 50.2407C300.788 50.8489 303.961 51.5364 307.131 52.3046L307.013 52.7906C308.588 53.1721 310.162 53.5735 311.735 53.9951C313.308 54.4166 314.872 54.856 316.427 55.3129L316.568 54.8332C319.698 55.7532 322.789 56.7441 325.841 57.8039L325.677 58.2762C328.75 59.3431 331.782 60.4799 334.773 61.6844L334.959 61.2206C337.982 62.4381 340.963 63.7246 343.9 65.0779L343.691 65.532C346.642 66.8916 349.549 68.3187 352.411 69.8112L352.642 69.3678C355.529 70.8733 358.37 72.4451 361.164 74.0808L360.912 74.5123C363.713 76.1524 366.467 77.857 369.172 79.6238L369.446 79.2051C372.17 80.9839 374.844 82.8255 377.468 84.7276L377.174 85.1324C379.801 87.0363 382.376 89.0008 384.9 91.0237L385.212 90.6336C387.749 92.667 390.233 94.7593 392.663 96.9078L392.332 97.2824C394.76 99.4297 397.135 101.633 399.454 103.891L399.803 103.533C402.131 105.799 404.403 108.119 406.618 110.491L406.253 110.832C408.464 113.2 410.618 115.62 412.714 118.088L413.096 117.765C415.197 120.24 417.24 122.764 419.223 125.335L418.827 125.641C420.805 128.205 422.723 130.816 424.58 133.471L424.99 133.184C426.85 135.844 428.648 138.547 430.385 141.293L429.962 141.56C431.693 144.296 433.361 147.073 434.966 149.889L435.4 149.642C437.006 152.46 438.548 155.318 440.026 158.213L439.581 158.44C441.052 161.322 442.459 164.24 443.801 167.192L444.256 166.986C445.597 169.938 446.873 172.924 448.082 175.942L447.618 176.128C448.821 179.13 449.957 182.164 451.026 185.227L451.498 185.063C452.567 188.123 453.567 191.212 454.499 194.328L454.02 194.471C454.947 197.569 455.806 200.693 456.595 203.841L457.08 203.719C457.869 206.862 458.588 210.029 459.237 213.217L458.747 213.317C459.392 216.484 459.967 219.673 460.472 222.88L460.966 222.802C461.47 226.002 461.903 229.22 462.265 232.455L461.768 232.511C462.127 235.722 462.416 238.949 462.633 242.191L463.132 242.157C463.348 245.388 463.493 248.632 463.566 251.889L463.066 251.9C463.138 255.129 463.139 258.37 463.068 261.62L463.568 261.631C463.497 264.866 463.354 268.111 463.139 271.363L462.64 271.33C462.426 274.549 462.142 277.775 461.785 281.007L462.282 281.061C461.926 284.274 461.5 287.492 461 290.713L460.506 290.636C460.012 293.822 459.447 297.012 458.809 300.202L459.3 300.3C458.667 303.468 457.963 306.637 457.186 309.805L456.7 309.686C456.315 311.26 455.911 312.834 455.489 314.408C455.068 315.982 454.63 317.547 454.177 319.103L454.657 319.243C453.745 322.375 452.771 325.471 451.735 328.531L451.262 328.371C450.219 331.453 449.113 334.497 447.948 337.503L448.414 337.684C447.236 340.723 445.997 343.723 444.698 346.683L444.24 346.482C442.934 349.459 441.567 352.396 440.143 355.29L440.591 355.511C439.152 358.435 437.653 361.316 436.097 364.154L435.658 363.913C434.095 366.764 432.474 369.57 430.797 372.33L431.224 372.59C429.533 375.373 427.785 378.111 425.982 380.8L425.567 380.522C423.758 383.221 421.895 385.871 419.978 388.472L420.381 388.769C418.45 391.39 416.465 393.96 414.429 396.479L414.041 396.165C412 398.69 409.907 401.164 407.765 403.585L408.14 403.916C405.983 406.352 403.777 408.735 401.523 411.063L401.164 410.715C398.906 413.047 396.6 415.323 394.249 417.542L394.592 417.906C392.227 420.138 389.816 422.313 387.36 424.429L387.034 424.05C384.577 426.168 382.075 428.228 379.532 430.226L379.841 430.62C377.285 432.629 374.687 434.577 372.05 436.463L371.759 436.056C369.121 437.942 366.443 439.766 363.728 441.526L364 441.946C361.273 443.714 358.508 445.417 355.708 447.055L355.456 446.623C352.658 448.26 349.825 449.831 346.958 451.335L347.191 451.778C344.314 453.288 341.404 454.729 338.464 456.103L338.252 455.65C335.316 457.021 332.35 458.323 329.355 459.554L329.545 460.017C326.542 461.252 323.511 462.417 320.454 463.509L320.285 463.039C317.236 464.129 314.16 465.147 311.061 466.092L311.207 466.57C308.103 467.516 304.975 468.39 301.826 469.188L301.703 468.704C298.565 469.499 295.407 470.22 292.23 470.866L292.33 471.356C289.151 472.001 285.954 472.571 282.74 473.064L282.665 472.57C279.468 473.06 276.255 473.474 273.029 473.809L273.08 474.306C269.857 474.642 266.62 474.899 263.372 475.078L263.345 474.579C260.118 474.756 256.881 474.855 253.635 474.875L253.638 475.375C250.4 475.395 247.154 475.335 243.901 475.196L243.923 474.696C240.698 474.558 237.467 474.34 234.231 474.042L234.185 474.54C230.965 474.243 227.74 473.867 224.514 473.41L224.584 472.915C221.391 472.463 218.197 471.931 215.003 471.319L214.909 471.81Z" stroke="#8ECBF1" stroke-dasharray="10 10"/>
<path d="M304.466 414.013C301.313 413.545 298.156 412.954 295 412.235L295.111 411.748C293.556 411.393 292.001 411.008 290.447 410.592C288.893 410.176 287.355 409.732 285.831 409.261L285.683 409.739C282.591 408.783 279.56 407.717 276.596 406.546L276.78 406.081C273.785 404.898 270.858 403.607 268.003 402.215L267.784 402.665C264.879 401.249 262.049 399.729 259.294 398.11L259.548 397.679C256.778 396.052 254.086 394.324 251.476 392.503L251.19 392.913C248.545 391.068 245.984 389.126 243.51 387.096L243.827 386.709C241.347 384.674 238.955 382.549 236.655 380.34L236.309 380.701C233.987 378.471 231.758 376.157 229.627 373.764L230 373.431C227.869 371.039 225.835 368.568 223.902 366.025L223.504 366.328C221.559 363.769 219.716 361.137 217.979 358.439L218.399 358.169C216.667 355.478 215.041 352.722 213.525 349.907L213.084 350.144C211.562 347.316 210.15 344.43 208.853 341.492L209.31 341.29C208.02 338.365 206.843 335.389 205.785 332.368L205.313 332.533C204.253 329.507 203.311 326.435 202.491 323.325L202.974 323.198C202.161 320.112 201.468 316.988 200.9 313.833L200.408 313.922C199.841 310.77 199.398 307.587 199.083 304.381L199.58 304.332C199.269 301.162 199.083 297.969 199.026 294.759L198.526 294.768C198.47 291.572 198.541 288.36 198.744 285.136L199.243 285.168C199.443 281.997 199.77 278.816 200.228 275.63L199.733 275.559C200.188 272.404 200.77 269.245 201.484 266.088L201.972 266.198C202.323 264.643 202.707 263.088 203.123 261.535C203.54 259.981 203.985 258.443 204.458 256.92L203.98 256.772C204.94 253.68 206.016 250.653 207.2 247.694L207.664 247.88C208.86 244.892 210.167 241.973 211.58 239.127L211.132 238.905C212.568 236.012 214.112 233.194 215.759 230.455L216.187 230.713C217.841 227.961 219.599 225.288 221.453 222.699L221.047 222.408C222.923 219.789 224.898 217.254 226.966 214.808L227.348 215.131C229.417 212.683 231.578 210.324 233.826 208.058L233.471 207.706C235.736 205.423 238.087 203.234 240.519 201.142L240.845 201.522C243.272 199.434 245.779 197.445 248.359 195.558L248.064 195.155C250.656 193.258 253.322 191.465 256.055 189.777L256.317 190.203C259.037 188.523 261.824 186.949 264.67 185.485L264.441 185.04C267.294 183.573 270.206 182.215 273.17 180.971L273.364 181.432C276.309 180.197 279.306 179.074 282.348 178.067L282.191 177.593C285.233 176.587 288.32 175.696 291.446 174.926L291.565 175.412C294.662 174.649 297.796 174.004 300.961 173.482L300.88 172.988C304.038 172.467 307.226 172.066 310.44 171.791L310.482 172.289C313.654 172.017 316.848 171.866 320.061 171.842L320.057 171.342C323.251 171.317 326.463 171.416 329.686 171.642L329.651 172.141C332.82 172.364 336 172.71 339.185 173.182L339.258 172.688C342.411 173.156 345.568 173.747 348.724 174.466L348.613 174.953C350.168 175.308 351.723 175.693 353.277 176.109C354.831 176.525 356.37 176.969 357.893 177.44L358.041 176.962C361.134 177.918 364.164 178.984 367.128 180.155L366.944 180.62C369.939 181.803 372.866 183.094 375.722 184.486L375.941 184.036C378.845 185.452 381.676 186.972 384.43 188.591L384.177 189.022C386.946 190.649 389.638 192.377 392.248 194.198L392.534 193.788C395.179 195.633 397.74 197.575 400.215 199.605L399.897 199.992C402.377 202.027 404.769 204.152 407.069 206.361L407.415 206C409.737 208.23 411.966 210.544 414.097 212.937L413.724 213.27C415.855 215.662 417.889 218.133 419.822 220.676L420.22 220.373C422.165 222.932 424.008 225.564 425.745 228.262L425.325 228.532C427.057 231.223 428.684 233.979 430.2 236.794L430.64 236.557C432.162 239.385 433.574 242.271 434.871 245.209L434.414 245.411C435.705 248.336 436.881 251.312 437.939 254.333L438.411 254.168C439.472 257.194 440.414 260.266 441.233 263.376L440.75 263.503C441.563 266.589 442.256 269.713 442.824 272.868L443.316 272.779C443.883 275.931 444.327 279.114 444.642 282.32L444.144 282.369C444.456 285.539 444.642 288.732 444.698 291.942L445.198 291.933C445.254 295.129 445.183 298.341 444.98 301.565L444.481 301.533C444.282 304.704 443.954 307.885 443.496 311.071L443.991 311.142C443.537 314.297 442.954 317.456 442.24 320.613L441.753 320.503C441.401 322.058 441.017 323.613 440.601 325.166C440.184 326.72 439.74 328.258 439.267 329.781L439.744 329.929C438.784 333.021 437.709 336.048 436.524 339.007L436.06 338.821C434.864 341.809 433.557 344.728 432.145 347.574L432.592 347.796C431.156 350.689 429.612 353.507 427.965 356.246L427.537 355.988C425.883 358.74 424.125 361.413 422.271 364.002L422.677 364.293C420.801 366.912 418.826 369.447 416.759 371.893L416.377 371.57C414.308 374.018 412.146 376.377 409.898 378.643L410.253 378.995C407.988 381.278 405.637 383.467 403.205 385.559L402.879 385.179C400.452 387.267 397.945 389.256 395.365 391.143L395.66 391.546C393.068 393.443 390.402 395.236 387.67 396.924L387.407 396.498C384.687 398.178 381.9 399.752 379.054 401.216L379.283 401.661C376.43 403.128 373.518 404.486 370.554 405.73L370.36 405.269C367.415 406.504 364.418 407.627 361.376 408.634L361.533 409.108C358.491 410.114 355.404 411.005 352.278 411.775L352.159 411.289C349.062 412.052 345.928 412.697 342.763 413.219L342.845 413.713C339.687 414.234 336.498 414.635 333.284 414.91L333.242 414.412C330.071 414.684 326.876 414.835 323.664 414.859L323.667 415.359C320.473 415.384 317.261 415.285 314.038 415.059L314.074 414.56C310.904 414.337 307.724 413.991 304.539 413.519L304.466 414.013Z" stroke="#8ECBF1" stroke-dasharray="10 10"/>
</svg>
