<svg width="74" height="74" viewBox="0 0 74 74" fill="none" xmlns="http://www.w3.org/2000/svg">
<g clip-path="url(#clip0_671_18892)">
<path d="M65.7586 13.6642C65.7586 18.646 61.7202 22.6844 56.739 22.6844C51.7572 22.6844 47.7188 18.646 47.7188 13.6642C47.7188 8.68294 51.7572 4.64453 56.739 4.64453C61.7202 4.64453 65.7586 8.68294 65.7586 13.6642Z" fill="#A4E9FC"/>
<path d="M41.1265 25.3477L36.8453 18.9279V7.97406C36.8453 3.60312 33.3201 0 28.8729 0H7.97406C3.54948 0 0 3.58167 0 7.97406V20.7448C0 25.127 3.5365 28.7182 7.97406 28.7182H39.3227C41.0497 28.7182 42.0863 26.7874 41.1265 25.3477ZM18.3622 20.5912H11.5173C10.3498 20.5912 9.34541 19.6929 9.29121 18.5265C9.23419 17.2811 10.2245 16.2552 11.4569 16.2552H18.4238C19.654 16.2552 20.6465 17.2811 20.5889 18.526C20.5353 19.6929 19.5304 20.5912 18.3622 20.5912ZM25.3901 12.463H11.5185C10.3515 12.463 9.34767 11.567 9.29178 10.4017C9.23193 9.15628 10.2233 8.12706 11.4569 8.12706H25.3285C26.4966 8.12706 27.5016 9.0253 27.5552 10.1923C27.6128 11.4372 26.6203 12.463 25.3901 12.463Z" fill="#EBF8FF"/>
<path d="M11.5179 20.5912H18.3628C19.5309 20.5912 20.5358 19.6929 20.5895 18.526C20.6471 17.2811 19.6545 16.2552 18.4243 16.2552H11.4575C10.225 16.2552 9.23474 17.2811 9.29176 18.5265C9.34596 19.6929 10.3503 20.5912 11.5179 20.5912Z" fill="#0C1A4C"/>
<path d="M11.519 12.463H25.3906C26.6208 12.463 27.6134 11.4372 27.5558 10.1923C27.5021 9.0253 26.4972 8.12706 25.3291 8.12706H11.4575C10.2239 8.12706 9.23248 9.15628 9.29233 10.4017C9.34822 11.567 10.352 12.463 11.519 12.463Z" fill="#0C1A4C"/>
<path d="M16.8356 53.7872C7.49812 53.8194 0 61.5281 0 70.8656V71.341C0 72.8094 1.19012 73.9996 2.65858 73.9996H31.1318C32.6003 73.9996 33.7904 72.8094 33.7904 71.341V70.6821C33.7904 61.3311 26.194 53.7545 16.8356 53.7872Z" fill="#1D98E4"/>
<path d="M27.5336 43.1486C27.5336 49.0242 22.7708 53.7875 16.8947 53.7875C11.0192 53.7875 6.25586 49.0242 6.25586 43.1486C6.25586 37.2731 11.0192 32.5098 16.8947 32.5098C22.7708 32.5098 27.5336 37.2731 27.5336 43.1486Z" fill="#1D98E4"/>
<path d="M70.4191 34.8316H43.0547C43.8615 27.9912 49.6788 22.6836 56.7377 22.6836C63.7949 22.6836 69.6123 27.9912 70.4191 34.8316Z" fill="#A4E9FC"/>
<path d="M71.8314 39.3125C73.0289 39.3125 73.9994 40.283 73.9994 41.4805V67.1884C73.9994 68.4197 72.9719 69.4128 71.7258 69.3535C70.5611 69.2982 69.6635 68.2938 69.6635 67.1263V64.711H37.2698C35.8127 59.7507 32.5912 55.5361 28.332 52.803C30.5373 50.1941 31.8702 46.8236 31.8702 43.1482C31.8702 41.8232 31.6963 40.5382 31.3711 39.3125H71.8314Z" fill="#1D98E4"/>
</g>
<defs>
<clipPath id="clip0_671_18892">
<rect width="74" height="74" fill="white"/>
</clipPath>
</defs>
</svg>
