<svg width="29" height="29" viewBox="0 0 29 29" fill="none" xmlns="http://www.w3.org/2000/svg">
<g clip-path="url(#clip0_823_19946)">
<path d="M14.5 29C22.5081 29 29 22.5081 29 14.5C29 6.49187 22.5081 0 14.5 0C6.49187 0 0 6.49187 0 14.5C0 22.5081 6.49187 29 14.5 29Z" fill="#FFC700"/>
<path d="M23.7169 14.678H5.2832V21.6035H23.7169V14.678Z" fill="#363F6A"/>
<path d="M23.7169 13.8052H5.2832V16.4353H23.7169V13.8052Z" fill="#0C1A4C"/>
<path d="M4.92725 8.0166V13.495C4.92725 13.7534 5.06507 13.9946 5.28903 14.121C13.2884 18.6059 21.7472 15.0398 23.671 14.1152C23.9179 13.9946 24.073 13.7477 24.073 13.472V8.02234H4.92725V8.0166Z" fill="#363F6A"/>
<path d="M18.5943 8.01676H17.4171V6.76487H11.5884V8.01676H10.4111V6.73042C10.4111 6.09874 10.9222 5.58765 11.5539 5.58765H17.4458C18.0775 5.58765 18.5886 6.09874 18.5886 6.73042V8.01676H18.5943Z" fill="#334A5E"/>
<path d="M16.1365 15.1145H12.8633V17.4632H16.1365V15.1145Z" fill="#EBF5FF"/>
</g>
<defs>
<clipPath id="clip0_823_19946">
<rect width="29" height="29" fill="white"/>
</clipPath>
</defs>
</svg>
