<svg xmlns="http://www.w3.org/2000/svg" width="543" height="459" viewBox="0 0 543 459" version="1.1"><path d="M 212.327 46.750 C 245.782 46.896, 300.232 46.896, 333.327 46.750 C 366.422 46.604, 339.050 46.484, 272.500 46.484 C 205.950 46.484, 178.872 46.604, 212.327 46.750 M 123.815 55.035 C 121.788 56.105, 119.865 57.410, 119.541 57.933 C 119.076 58.685, 127.191 54.702, 128.917 53.331 C 130.241 52.279, 126.954 53.377, 123.815 55.035 M 415.083 53.324 C 416.612 54.514, 427 59.923, 427 59.529 C 427 58.875, 416.749 53.021, 415.583 53.009 C 415.079 53.004, 414.854 53.146, 415.083 53.324 M 114.306 61.573 L 111.500 64.146 114.750 61.885 C 116.537 60.641, 118 59.484, 118 59.312 C 118 58.523, 116.894 59.200, 114.306 61.573 M 106.453 68.250 L 102.500 72.500 106.750 68.547 C 109.088 66.373, 111 64.460, 111 64.297 C 111 63.540, 110.129 64.298, 106.453 68.250 M 437.500 69 C 440.209 71.750, 442.650 74, 442.925 74 C 443.200 74, 441.209 71.750, 438.500 69 C 435.791 66.250, 433.350 64, 433.075 64 C 432.800 64, 434.791 66.250, 437.500 69 M 212.827 84.750 C 246.007 84.896, 300.007 84.896, 332.827 84.750 C 365.647 84.604, 338.500 84.484, 272.500 84.484 C 206.500 84.484, 179.647 84.604, 212.827 84.750 M 146.250 86.031 C 142.787 87.423, 143.585 88.036, 147.250 86.800 C 149.037 86.196, 150.688 85.545, 150.917 85.352 C 151.730 84.665, 148.465 85.141, 146.250 86.031 M 407.765 92.640 C 409.561 94.213, 412.261 96.875, 413.765 98.555 C 415.269 100.235, 415.838 100.685, 415.029 99.555 C 412.256 95.682, 408.499 91.828, 406.500 90.804 C 405.400 90.241, 405.969 91.067, 407.765 92.640 M 459.484 234 C 459.484 299.725, 459.604 326.612, 459.750 293.750 C 459.896 260.887, 459.896 207.112, 459.750 174.250 C 459.604 141.387, 459.484 168.275, 459.484 234 M 84.484 234 C 84.484 299.175, 84.604 325.838, 84.750 293.250 C 84.896 260.663, 84.896 207.338, 84.750 174.750 C 84.604 142.163, 84.484 168.825, 84.484 234 M 288.302 140.746 C 293.693 140.926, 302.243 140.925, 307.302 140.744 C 312.361 140.563, 307.950 140.416, 297.500 140.417 C 287.050 140.418, 282.911 140.566, 288.302 140.746 M 258 149.150 C 256.075 150.838, 255.405 151.762, 256.511 151.202 C 258.338 150.279, 262.867 145.944, 261.905 146.041 C 261.682 146.063, 259.925 147.462, 258 149.150 M 247 186.500 L 247 202 237.500 202 L 228 202 228.223 218.250 L 228.445 234.500 228.748 218.750 L 229.051 203 238.525 203 L 248 203 248 187 C 248 178.200, 247.775 171, 247.500 171 C 247.225 171, 247 177.975, 247 186.500 M 289.635 175.073 C 288.186 176.212, 287 177.612, 287 178.183 C 287 178.754, 287.859 178.159, 288.908 176.861 C 290.684 174.664, 291.707 174.461, 303.658 173.941 L 316.500 173.382 304.385 173.191 C 293.476 173.019, 292.007 173.206, 289.635 175.073 M 286.378 191 C 286.378 197.325, 286.541 199.912, 286.739 196.750 C 286.937 193.588, 286.937 188.412, 286.739 185.250 C 286.541 182.088, 286.378 184.675, 286.378 191 M 315.272 209 C 315.272 211.475, 315.467 212.488, 315.706 211.250 C 315.944 210.012, 315.944 207.988, 315.706 206.750 C 315.467 205.512, 315.272 206.525, 315.272 209 M 314.232 219 C 314.232 220.925, 314.438 221.713, 314.689 220.750 C 314.941 219.787, 314.941 218.213, 314.689 217.250 C 314.438 216.287, 314.232 217.075, 314.232 219 M 247.462 281 C 247.462 307.125, 247.591 317.813, 247.749 304.750 C 247.907 291.688, 247.907 270.313, 247.749 257.250 C 247.591 244.188, 247.462 254.875, 247.462 281 M 286.462 281 C 286.462 307.125, 286.591 317.813, 286.749 304.750 C 286.907 291.688, 286.907 270.313, 286.749 257.250 C 286.591 244.188, 286.462 254.875, 286.462 281 M 129.885 369.839 C 130.997 371.400, 132.697 373.313, 133.663 374.089 C 134.630 374.865, 133.900 373.587, 132.043 371.250 C 128.228 366.449, 126.813 365.524, 129.885 369.839 M 409 374.171 C 406.379 376.551, 405.753 377.413, 407.500 376.236 C 410.261 374.377, 414.845 369.944, 413.905 370.043 C 413.682 370.066, 411.475 371.924, 409 374.171 M 153.762 383.707 C 155.006 383.946, 156.806 383.937, 157.762 383.687 C 158.718 383.437, 157.700 383.241, 155.500 383.252 C 153.300 383.263, 152.518 383.468, 153.762 383.707 M 386.762 383.707 C 388.006 383.946, 389.806 383.937, 390.762 383.687 C 391.718 383.437, 390.700 383.241, 388.500 383.252 C 386.300 383.263, 385.518 383.468, 386.762 383.707 M 436.966 399.750 L 431.500 405.500 437.250 400.034 C 442.592 394.956, 443.458 394, 442.716 394 C 442.560 394, 439.972 396.587, 436.966 399.750 M 105.500 398.866 C 107.150 400.692, 110.300 403.571, 112.500 405.264 C 117.185 408.870, 115.677 407.251, 108 400.432 C 104.807 397.596, 103.758 396.939, 105.500 398.866 M 122 411.490 C 122 412.175, 128.123 415.210, 128.580 414.753 C 128.797 414.536, 127.406 413.610, 125.487 412.695 C 123.569 411.781, 122 411.239, 122 411.490 M 418 413 C 416.075 414.054, 414.860 414.935, 415.300 414.958 C 416.359 415.014, 422 412.081, 422 411.474 C 422 410.820, 421.941 410.842, 418 413 M 213.250 421.750 C 245.563 421.896, 298.438 421.896, 330.750 421.750 C 363.063 421.603, 336.625 421.484, 272 421.484 C 207.375 421.484, 180.938 421.603, 213.250 421.750" stroke="none" fill="#ba6c6c" fill-rule="evenodd"/><path d="M 145 48.427 C 116.763 54.703, 96.550 73.310, 87.842 101.043 L 85.500 108.500 85.500 234 L 85.500 359.500 87.842 366.957 C 92.631 382.210, 100.651 394.476, 112.020 403.937 C 118.821 409.597, 133.596 417.096, 142 419.154 C 146.461 420.246, 171.115 420.500, 272.500 420.500 C 414.022 420.500, 402.263 421.167, 419.395 412.171 C 439.416 401.658, 454.492 381.185, 457.963 359.799 C 458.618 355.762, 458.988 310.527, 458.992 233.838 C 459.001 103.929, 459.112 106.767, 453.465 93 C 444.729 71.702, 424.503 54.446, 401.934 49.036 C 393.697 47.061, 390.661 47.016, 272 47.109 C 180.227 47.182, 149.154 47.504, 145 48.427 M 149.879 85.050 C 143.016 86.690, 134.093 92.974, 128.758 99.927 C 127.249 101.892, 125.112 106.360, 124.008 109.855 C 122.045 116.069, 122 118.838, 122 233.924 C 122 363.622, 121.693 357.014, 128.191 367.247 C 131.651 372.697, 136.167 376.517, 144 380.619 L 149.500 383.500 272 383.500 L 394.500 383.500 400.500 380.540 C 408.896 376.398, 416.058 368.821, 419.350 360.598 L 422 353.979 422 234 L 422 114.021 419.476 107.716 C 415.979 98.982, 409.813 92.259, 401.378 87.985 L 394.500 84.500 274 84.342 C 207.725 84.256, 151.871 84.574, 149.879 85.050 M 269.832 143.396 C 260.895 146.550, 255.699 151.023, 251.731 158.976 L 248.500 165.451 248.156 184.226 L 247.813 203 238.406 203 L 229 203 229 218.500 L 229 234 238.500 234 L 248 234 248 281 L 248 328 267 328 L 286 328 286 281 L 286 234 298.933 234 C 313.954 234, 312.392 235.454, 313.973 220 C 314.565 214.225, 315.268 207.813, 315.536 205.750 L 316.024 202 300.928 202 L 285.833 202 286.166 189.911 C 286.493 178.086, 286.561 177.770, 289.306 175.411 C 291.932 173.154, 292.875 173, 304.056 173 L 316 173 316 157 L 316 141 296.250 141.021 C 278.097 141.040, 275.961 141.232, 269.832 143.396" stroke="none" fill="#8a0404" fill-rule="evenodd"/></svg>