<svg width="16" height="16" viewBox="0 0 16 16" fill="none" xmlns="http://www.w3.org/2000/svg">
<path d="M11.5156 6.85322C11.3656 7.09541 11.1859 7.33291 10.9781 7.56572C10.8773 7.679 10.7549 7.77105 10.618 7.8365C10.4812 7.90196 10.3327 7.93952 10.1813 7.94697C10.0297 7.95572 9.87783 7.93425 9.7346 7.88383C9.59136 7.8334 9.45957 7.75501 9.34689 7.65322C9.21686 7.53642 9.11499 7.39165 9.04896 7.22982C8.98293 7.06798 8.95444 6.89328 8.96564 6.71885C9.01251 5.97822 8.77189 5.10791 8.25001 4.12979C7.98595 3.63916 7.67032 3.22041 7.29376 2.87354C7.2552 3.12144 7.19187 3.36484 7.1047 3.6001C6.89079 4.17274 6.58351 4.706 6.19532 5.17822C5.92581 5.50879 5.61851 5.80665 5.2797 6.06572C4.74845 6.47354 4.31095 7.00322 4.0172 7.59541C3.71663 8.19695 3.56092 8.86046 3.56251 9.53291C3.56251 10.7032 4.02345 11.8032 4.85939 12.6329C5.69845 13.4642 6.81251 13.9204 8.00001 13.9204C9.18751 13.9204 10.3016 13.4642 11.1406 12.6329C11.9766 11.8048 12.4375 10.7032 12.4375 9.53291C12.4375 8.92041 12.3109 8.3251 12.0625 7.76572C11.9172 7.4376 11.7344 7.13291 11.5156 6.85322Z" fill="#FFF9F2"/>
<path d="M13.0328 7.33118C12.7295 6.64846 12.2885 6.03568 11.7375 5.53118L11.2828 5.114C11.2674 5.10022 11.2488 5.09044 11.2287 5.08552C11.2086 5.0806 11.1876 5.0807 11.1675 5.08579C11.1475 5.09088 11.129 5.10081 11.1137 5.11472C11.0984 5.12863 11.0867 5.14609 11.0797 5.16556L10.8766 5.74837C10.75 6.114 10.5172 6.48743 10.1875 6.85462C10.1656 6.87806 10.1406 6.88431 10.1234 6.88587C10.1063 6.88743 10.0797 6.88431 10.0562 6.86243C10.0344 6.84368 10.0234 6.81556 10.025 6.78743C10.0828 5.84681 9.80156 4.78587 9.18594 3.63118C8.67656 2.67181 7.96875 1.92337 7.08437 1.4015L6.43906 1.02181C6.35469 0.971808 6.24688 1.03743 6.25156 1.13587L6.28594 1.88587C6.30937 2.39837 6.25 2.8515 6.10938 3.22806C5.9375 3.689 5.69063 4.11712 5.375 4.5015C5.15535 4.76863 4.90639 5.01024 4.63281 5.22181C3.97391 5.72832 3.43815 6.37733 3.06562 7.12025C2.69402 7.86964 2.50045 8.69471 2.5 9.53118C2.5 10.2687 2.64531 10.9827 2.93281 11.6562C3.21042 12.3046 3.61103 12.893 4.1125 13.389C4.61875 13.889 5.20625 14.2827 5.86094 14.5562C6.53906 14.8406 7.25781 14.9843 8 14.9843C8.74219 14.9843 9.46094 14.8406 10.1391 14.5577C10.7921 14.2859 11.386 13.8895 11.8875 13.3906C12.3937 12.8906 12.7906 12.3062 13.0672 11.6577C13.3543 10.9861 13.5015 10.2631 13.5 9.53274C13.5 8.77024 13.3437 8.02962 13.0328 7.33118ZM11.1406 12.6327C10.3016 13.464 9.1875 13.9202 8 13.9202C6.8125 13.9202 5.69844 13.464 4.85938 12.6327C4.02344 11.8031 3.5625 10.7031 3.5625 9.53274C3.5625 8.85306 3.71563 8.2015 4.01719 7.59525C4.31094 7.00306 4.74844 6.47337 5.27969 6.06556C5.6185 5.80648 5.9258 5.50862 6.19531 5.17806C6.58594 4.7015 6.89219 4.17024 7.10469 3.59993C7.19185 3.36468 7.25519 3.12127 7.29375 2.87337C7.67031 3.22025 7.98594 3.63899 8.25 4.12962C8.77188 5.10774 9.0125 5.97806 8.96562 6.71868C8.95443 6.89311 8.98291 7.06782 9.04895 7.22965C9.11498 7.39149 9.21684 7.53625 9.34688 7.65306C9.45956 7.75485 9.59135 7.83323 9.73458 7.88366C9.87782 7.93409 10.0296 7.95555 10.1812 7.94681C10.4891 7.93118 10.7719 7.79525 10.9781 7.56556C11.1859 7.33275 11.3656 7.09525 11.5156 6.85306C11.7344 7.13275 11.9172 7.43743 12.0625 7.76556C12.3109 8.32493 12.4375 8.92024 12.4375 9.53274C12.4375 10.7031 11.9766 11.8046 11.1406 12.6327Z" fill="#FF9028"/>
</svg>
