<svg width="24" height="25" viewBox="0 0 24 25" fill="none" xmlns="http://www.w3.org/2000/svg">
<path d="M12 2.21729C6.20156 2.21729 1.5 6.91885 1.5 12.7173C1.5 18.5157 6.20156 23.2173 12 23.2173C17.7984 23.2173 22.5 18.5157 22.5 12.7173C22.5 6.91885 17.7984 2.21729 12 2.21729ZM12 21.436C7.18594 21.436 3.28125 17.5313 3.28125 12.7173C3.28125 7.90322 7.18594 3.99854 12 3.99854C16.8141 3.99854 20.7188 7.90322 20.7188 12.7173C20.7188 17.5313 16.8141 21.436 12 21.436Z" fill="#1D98E4"/>
<path d="M10.875 8.59229C10.875 8.89065 10.9935 9.1768 11.2045 9.38778C11.4155 9.59876 11.7016 9.71729 12 9.71729C12.2984 9.71729 12.5845 9.59876 12.7955 9.38778C13.0065 9.1768 13.125 8.89065 13.125 8.59229C13.125 8.29392 13.0065 8.00777 12.7955 7.79679C12.5845 7.58581 12.2984 7.46729 12 7.46729C11.7016 7.46729 11.4155 7.58581 11.2045 7.79679C10.9935 8.00777 10.875 8.29392 10.875 8.59229ZM12.5625 11.2173H11.4375C11.3344 11.2173 11.25 11.3017 11.25 11.4048V17.7798C11.25 17.8829 11.3344 17.9673 11.4375 17.9673H12.5625C12.6656 17.9673 12.75 17.8829 12.75 17.7798V11.4048C12.75 11.3017 12.6656 11.2173 12.5625 11.2173Z" fill="#1D98E4"/>
</svg>
