<svg width="27" height="28" viewBox="0 0 27 28" fill="none" xmlns="http://www.w3.org/2000/svg">
<g id="bi:instagram" clip-path="url(#clip0_201_14652)">
<path id="Vector" d="M13.5 0.5C9.83644 0.5 9.37575 0.516875 7.93631 0.581C6.49688 0.6485 5.51644 0.874625 4.6575 1.20875C3.75653 1.54763 2.94045 2.07921 2.26631 2.76631C1.57963 3.4408 1.04812 4.25678 0.70875 5.1575C0.374625 6.01475 0.146812 6.99687 0.081 8.43125C0.016875 9.87406 0 10.3331 0 14.0017C0 17.6669 0.016875 18.1259 0.081 19.5654C0.1485 21.0031 0.374625 21.9836 0.70875 22.8425C1.05469 23.7301 1.51538 24.4827 2.26631 25.2337C3.01556 25.9846 3.76819 26.447 4.65581 26.7913C5.51644 27.1254 6.49519 27.3532 7.93294 27.419C9.37406 27.4831 9.83306 27.5 13.5 27.5C17.1669 27.5 17.6243 27.4831 19.0654 27.419C20.5014 27.3515 21.4853 27.1254 22.3442 26.7913C23.2446 26.4522 24.0601 25.9206 24.7337 25.2337C25.4846 24.4827 25.9453 23.7301 26.2913 22.8425C26.6237 21.9836 26.8515 21.0031 26.919 19.5654C26.9831 18.1259 27 17.6669 27 14C27 10.3331 26.9831 9.87406 26.919 8.43294C26.8515 6.99688 26.6237 6.01475 26.2913 5.1575C25.9519 4.25676 25.4204 3.44077 24.7337 2.76631C24.0598 2.07895 23.2436 1.54734 22.3425 1.20875C21.4819 0.874625 20.4998 0.646812 19.0637 0.581C17.6226 0.516875 17.1653 0.5 13.4966 0.5H13.5017H13.5ZM12.2901 2.93338H13.5017C17.1062 2.93338 17.5331 2.94519 18.9557 3.011C20.2719 3.07006 20.9874 3.29113 21.4633 3.47506C22.0928 3.71975 22.5433 4.01338 23.0158 4.48587C23.4883 4.95837 23.7803 5.40725 24.0249 6.03837C24.2106 6.51256 24.4299 7.22806 24.489 8.54431C24.5548 9.96688 24.5683 10.3938 24.5683 13.9966C24.5683 17.5994 24.5548 18.0281 24.489 19.4506C24.4299 20.7669 24.2089 21.4807 24.0249 21.9566C23.8085 22.5427 23.463 23.0727 23.0141 23.5074C22.5416 23.9799 22.0928 24.2718 21.4616 24.5165C20.9891 24.7021 20.2736 24.9215 18.9557 24.9823C17.5331 25.0464 17.1062 25.0616 13.5017 25.0616C9.89719 25.0616 9.46856 25.0464 8.046 24.9823C6.72975 24.9215 6.01594 24.7021 5.54006 24.5165C4.95365 24.3004 4.42315 23.9555 3.98756 23.5074C3.53827 23.0721 3.19228 22.5415 2.97506 21.9549C2.79113 21.4807 2.57006 20.7652 2.511 19.4489C2.44688 18.0264 2.43338 17.5994 2.43338 13.9932C2.43338 10.3888 2.44688 9.9635 2.511 8.54094C2.57175 7.22469 2.79113 6.50919 2.97675 6.03331C3.22144 5.40387 3.51506 4.95331 3.98756 4.48081C4.46006 4.00831 4.90894 3.71638 5.54006 3.47169C6.01594 3.28606 6.72975 3.06669 8.046 3.00594C9.29138 2.94856 9.774 2.93169 12.2901 2.93V2.93338ZM20.7073 5.17438C20.4946 5.17438 20.2839 5.21628 20.0874 5.29769C19.8908 5.3791 19.7122 5.49843 19.5618 5.64886C19.4114 5.79929 19.292 5.97788 19.2106 6.17443C19.1292 6.37098 19.0873 6.58163 19.0873 6.79437C19.0873 7.00712 19.1292 7.21777 19.2106 7.41432C19.292 7.61087 19.4114 7.78946 19.5618 7.93989C19.7122 8.09032 19.8908 8.20965 20.0874 8.29106C20.2839 8.37247 20.4946 8.41438 20.7073 8.41438C21.137 8.41438 21.549 8.2437 21.8528 7.93989C22.1566 7.63608 22.3273 7.22403 22.3273 6.79437C22.3273 6.36472 22.1566 5.95267 21.8528 5.64886C21.549 5.34505 21.137 5.17438 20.7073 5.17438ZM13.5017 7.06775C12.5821 7.0534 11.6689 7.22213 10.8152 7.56411C9.96142 7.90609 9.18424 8.41449 8.52888 9.05971C7.87351 9.70493 7.35305 10.4741 6.99779 11.3224C6.64254 12.1707 6.45958 13.0812 6.45958 14.0008C6.45958 14.9205 6.64254 15.831 6.99779 16.6793C7.35305 17.5276 7.87351 18.2968 8.52888 18.942C9.18424 19.5872 9.96142 20.0956 10.8152 20.4376C11.6689 20.7796 12.5821 20.9483 13.5017 20.9339C15.3217 20.9055 17.0576 20.1626 18.3346 18.8655C19.6117 17.5684 20.3275 15.8211 20.3275 14.0008C20.3275 12.1806 19.6117 10.4333 18.3346 9.1362C17.0576 7.83908 15.3217 7.09615 13.5017 7.06775ZM13.5017 9.49944C14.6953 9.49944 15.84 9.9736 16.6841 10.8176C17.5281 11.6616 18.0023 12.8064 18.0023 14C18.0023 15.1936 17.5281 16.3384 16.6841 17.1824C15.84 18.0264 14.6953 18.5006 13.5017 18.5006C12.3081 18.5006 11.1633 18.0264 10.3193 17.1824C9.47529 16.3384 9.00113 15.1936 9.00113 14C9.00113 12.8064 9.47529 11.6616 10.3193 10.8176C11.1633 9.9736 12.3081 9.49944 13.5017 9.49944Z" fill="#0C1A4C"/>
</g>
<defs>
<clipPath id="clip0_201_14652">
<rect width="27" height="27" fill="white" transform="translate(0 0.5)"/>
</clipPath>
</defs>
</svg>
