<svg xmlns="http://www.w3.org/2000/svg" width="543" height="459" viewBox="0 0 543 459" version="1.1"><path d="M 194.750 30.737 C 197.637 30.939, 202.363 30.939, 205.250 30.737 C 208.137 30.535, 205.775 30.370, 200 30.370 C 194.225 30.370, 191.863 30.535, 194.750 30.737 M 337.750 30.737 C 340.637 30.939, 345.363 30.939, 348.250 30.737 C 351.137 30.535, 348.775 30.370, 343 30.370 C 337.225 30.370, 334.863 30.535, 337.750 30.737 M 177.264 31.718 C 178.784 31.947, 181.034 31.941, 182.264 31.704 C 183.494 31.467, 182.250 31.279, 179.500 31.286 C 176.750 31.294, 175.744 31.488, 177.264 31.718 M 360.750 31.706 C 361.988 31.944, 364.012 31.944, 365.250 31.706 C 366.488 31.467, 365.475 31.272, 363 31.272 C 360.525 31.272, 359.512 31.467, 360.750 31.706 M 124.979 47.420 C 120.866 49.851, 115.250 53.940, 112.500 56.506 L 107.500 61.172 113.165 56.537 C 116.281 53.988, 122.345 49.899, 126.641 47.451 C 130.937 45.003, 134.003 43, 133.455 43 C 132.907 43, 129.093 44.989, 124.979 47.420 M 412.500 45.161 C 413.600 45.766, 416.676 47.572, 419.336 49.174 C 421.996 50.776, 423.899 51.645, 423.565 51.105 C 422.831 49.917, 412.616 43.988, 411.378 44.030 C 410.895 44.047, 411.400 44.556, 412.500 45.161 M 429 55.313 C 429 55.485, 430.462 56.948, 432.250 58.563 L 435.500 61.500 432.563 58.250 C 429.825 55.221, 429 54.540, 429 55.313 M 440.958 67.349 C 443.410 69.907, 445.582 72, 445.784 72 C 446.585 72, 441.350 66.224, 439 64.515 C 437.625 63.515, 438.506 64.790, 440.958 67.349 M 247.319 65.749 C 260.419 65.907, 281.569 65.907, 294.319 65.749 C 307.068 65.591, 296.350 65.461, 270.500 65.462 C 244.650 65.462, 234.218 65.591, 247.319 65.749 M 99.086 69.382 L 96.672 72.500 99.533 69.780 C 101.106 68.284, 102.193 66.881, 101.947 66.662 C 101.701 66.443, 100.414 67.667, 99.086 69.382 M 193.250 66.735 C 195.863 66.941, 200.137 66.941, 202.750 66.735 C 205.363 66.529, 203.225 66.360, 198 66.360 C 192.775 66.360, 190.637 66.529, 193.250 66.735 M 338.250 66.735 C 340.863 66.941, 345.137 66.941, 347.750 66.735 C 350.363 66.529, 348.225 66.360, 343 66.360 C 337.775 66.360, 335.637 66.529, 338.250 66.735 M 358.250 67.689 C 359.212 67.941, 360.788 67.941, 361.750 67.689 C 362.712 67.438, 361.925 67.232, 360 67.232 C 358.075 67.232, 357.288 67.438, 358.250 67.689 M 402 80.332 C 402 80.607, 403.800 82.258, 406 84 C 408.200 85.742, 410 86.943, 410 86.668 C 410 86.393, 408.200 84.742, 406 83 C 403.800 81.258, 402 80.057, 402 80.332 M 133.500 85.625 C 131.702 87.155, 131.334 87.763, 132.582 87.143 C 134.415 86.233, 137.853 82.941, 136.872 83.036 C 136.668 83.056, 135.150 84.221, 133.500 85.625 M 85.951 89.097 C 84.801 91.350, 84.032 93.365, 84.242 93.575 C 84.451 93.785, 85.602 91.941, 86.798 89.478 C 89.524 83.869, 88.787 83.537, 85.951 89.097 M 455.695 88.487 C 456.610 90.406, 457.536 91.797, 457.753 91.580 C 458.210 91.123, 455.175 85, 454.490 85 C 454.239 85, 454.781 86.569, 455.695 88.487 M 414.500 92 C 416.648 94.200, 418.631 96, 418.906 96 C 419.181 96, 417.648 94.200, 415.500 92 C 413.352 89.800, 411.369 88, 411.094 88 C 410.819 88, 412.352 89.800, 414.500 92 M 126.437 93.250 L 123.500 96.500 126.750 93.563 C 128.537 91.948, 130 90.485, 130 90.313 C 130 89.540, 129.175 90.221, 126.437 93.250 M 82.162 97.543 C 80.487 101.220, 80.807 102.005, 82.618 98.662 C 83.464 97.100, 83.969 95.636, 83.741 95.407 C 83.512 95.179, 82.802 96.140, 82.162 97.543 M 459.071 95.500 C 459.071 96.050, 459.714 97.625, 460.500 99 C 461.286 100.375, 461.929 101.050, 461.929 100.500 C 461.929 99.950, 461.286 98.375, 460.500 97 C 459.714 95.625, 459.071 94.950, 459.071 95.500 M 364.250 102.934 C 362.022 104.548, 359.857 106.460, 359.439 107.184 C 359.020 107.908, 359.763 107.535, 361.089 106.355 C 362.415 105.175, 365.075 103.264, 367 102.109 C 368.925 100.953, 370.005 100.006, 369.400 100.004 C 368.795 100.002, 366.477 101.320, 364.250 102.934 M 392 103.313 C 392 103.485, 393.462 104.948, 395.250 106.563 L 398.500 109.500 395.563 106.250 C 392.825 103.221, 392 102.540, 392 103.313 M 115.111 112.111 C 114.495 113.878, 114.166 115.499, 114.380 115.713 C 114.594 115.927, 115.273 114.656, 115.889 112.889 C 116.505 111.122, 116.834 109.501, 116.620 109.287 C 116.406 109.073, 115.727 110.344, 115.111 112.111 M 426.157 109.500 C 426.154 110.050, 426.759 112.075, 427.500 114 C 428.241 115.925, 428.862 116.825, 428.879 116 C 428.896 115.175, 428.292 113.150, 427.536 111.500 C 426.781 109.850, 426.160 108.950, 426.157 109.500 M 266.750 126.723 C 268.538 126.945, 271.462 126.945, 273.250 126.723 C 275.038 126.502, 273.575 126.320, 270 126.320 C 266.425 126.320, 264.962 126.502, 266.750 126.723 M 468.232 130 C 468.232 131.925, 468.438 132.713, 468.689 131.750 C 468.941 130.787, 468.941 129.213, 468.689 128.250 C 468.438 127.287, 468.232 128.075, 468.232 130 M 297.500 131 C 298.600 131.473, 300.175 131.859, 301 131.859 C 301.945 131.859, 301.761 131.542, 300.500 131 C 299.400 130.527, 297.825 130.141, 297 130.141 C 296.055 130.141, 296.239 130.458, 297.500 131 M 73.300 140 C 73.300 143.025, 73.487 144.262, 73.716 142.750 C 73.945 141.238, 73.945 138.762, 73.716 137.250 C 73.487 135.738, 73.300 136.975, 73.300 140 M 395.566 138.750 C 393.405 141.512, 393.232 141.976, 394.909 140.511 C 396.914 138.760, 399.558 135, 398.785 135 C 398.628 135, 397.180 136.688, 395.566 138.750 M 469.300 141 C 469.300 144.025, 469.487 145.262, 469.716 143.750 C 469.945 142.238, 469.945 139.762, 469.716 138.250 C 469.487 136.738, 469.300 137.975, 469.300 141 M 109.272 141 C 109.272 143.475, 109.467 144.488, 109.706 143.250 C 109.944 142.012, 109.944 139.988, 109.706 138.750 C 109.467 137.512, 109.272 138.525, 109.272 141 M 218.853 140.118 C 215.748 141.803, 211.698 144.510, 209.853 146.133 C 206.826 148.798, 206.986 148.752, 211.500 145.662 C 214.250 143.780, 218.412 141.276, 220.750 140.099 C 223.088 138.922, 225 137.743, 225 137.480 C 225 136.781, 225.007 136.778, 218.853 140.118 M 433.286 142.500 C 433.294 145.250, 433.488 146.256, 433.718 144.736 C 433.947 143.216, 433.941 140.966, 433.704 139.736 C 433.467 138.506, 433.279 139.750, 433.286 142.500 M 319 139.376 C 319 139.610, 320.602 140.748, 322.560 141.903 C 324.518 143.058, 325.840 143.549, 325.497 142.995 C 324.827 141.911, 319 138.665, 319 139.376 M 375.250 146.716 C 376.762 146.945, 379.238 146.945, 380.750 146.716 C 382.262 146.487, 381.025 146.300, 378 146.300 C 374.975 146.300, 373.738 146.487, 375.250 146.716 M 198.979 155.078 L 192.500 161.157 199.250 155.401 C 205.356 150.194, 206.564 149, 205.729 149 C 205.579 149, 202.542 151.735, 198.979 155.078 M 337 152.500 C 338.866 154.425, 340.617 156, 340.892 156 C 341.167 156, 339.866 154.425, 338 152.500 C 336.134 150.575, 334.383 149, 334.108 149 C 333.833 149, 335.134 150.575, 337 152.500 M 72.320 157 C 72.320 160.575, 72.502 162.037, 72.723 160.250 C 72.945 158.463, 72.945 155.537, 72.723 153.750 C 72.502 151.963, 72.320 153.425, 72.320 157 M 108.382 163.500 C 108.384 170.100, 108.546 172.670, 108.741 169.211 C 108.937 165.752, 108.936 160.352, 108.738 157.211 C 108.540 154.070, 108.380 156.900, 108.382 163.500 M 470.343 159.500 C 470.346 163.900, 470.522 165.576, 470.733 163.224 C 470.945 160.872, 470.942 157.272, 470.727 155.224 C 470.512 153.176, 470.339 155.100, 470.343 159.500 M 434.395 167.500 C 434.396 175.200, 434.553 178.218, 434.743 174.206 C 434.934 170.195, 434.932 163.895, 434.741 160.206 C 434.549 156.518, 434.393 159.800, 434.395 167.500 M 346 161.500 C 347.866 163.425, 349.617 165, 349.892 165 C 350.167 165, 348.866 163.425, 347 161.500 C 345.134 159.575, 343.383 158, 343.108 158 C 342.833 158, 344.134 159.575, 346 161.500 M 188.722 166.250 C 185.417 170.367, 182.653 174.613, 184.653 172.500 C 186.948 170.076, 193.086 162, 192.634 162 C 192.359 162, 190.599 163.912, 188.722 166.250 M 262.762 163.707 C 264.006 163.946, 265.806 163.937, 266.762 163.687 C 267.718 163.437, 266.700 163.241, 264.500 163.252 C 262.300 163.263, 261.518 163.468, 262.762 163.707 M 276.762 163.707 C 278.006 163.946, 279.806 163.937, 280.762 163.687 C 281.718 163.437, 280.700 163.241, 278.500 163.252 C 276.300 163.263, 275.518 163.468, 276.762 163.707 M 71.468 229 C 71.468 260.075, 71.594 272.788, 71.749 257.250 C 71.904 241.713, 71.904 216.288, 71.749 200.750 C 71.594 185.213, 71.468 197.925, 71.468 229 M 232.973 174.648 C 229.365 177.052, 222.308 183.899, 218.694 188.500 C 216.967 190.700, 219.141 188.862, 223.526 184.415 C 227.912 179.969, 232.625 175.605, 234 174.718 C 235.375 173.831, 236.263 173.081, 235.973 173.052 C 235.682 173.024, 234.332 173.742, 232.973 174.648 M 309 174.636 C 310.375 175.568, 315.088 179.969, 319.474 184.415 C 323.859 188.862, 326.039 190.689, 324.317 188.475 C 320.274 183.273, 312.056 175.597, 308.938 174.107 L 306.500 172.942 309 174.636 M 177.949 183.101 C 176.255 186.457, 175.034 189.367, 175.236 189.569 C 175.437 189.771, 177.038 187.025, 178.792 183.468 C 180.546 179.911, 181.767 177, 181.505 177 C 181.243 177, 179.643 179.746, 177.949 183.101 M 471.462 230.500 C 471.463 256.900, 471.592 267.556, 471.749 254.181 C 471.907 240.805, 471.907 219.205, 471.749 206.181 C 471.591 193.156, 471.462 204.100, 471.462 230.500 M 364.628 190.935 C 365.566 194.596, 367.927 199.714, 367.887 198 C 367.867 197.175, 366.986 194.700, 365.928 192.500 C 364.870 190.300, 364.285 189.596, 364.628 190.935 M 213 197 C 211.878 199.200, 211.184 201, 211.459 201 C 211.734 201, 212.878 199.200, 214 197 C 215.122 194.800, 215.816 193, 215.541 193 C 215.266 193, 214.122 194.800, 213 197 M 329 197 C 330.122 199.200, 331.266 201, 331.541 201 C 331.816 201, 331.122 199.200, 330 197 C 328.878 194.800, 327.734 193, 327.459 193 C 327.184 193, 327.878 194.800, 329 197 M 107.397 214 C 107.397 221.975, 107.553 225.238, 107.743 221.250 C 107.932 217.262, 107.932 210.738, 107.743 206.750 C 107.553 202.762, 107.397 206.025, 107.397 214 M 205.232 221 C 205.232 222.925, 205.438 223.713, 205.689 222.750 C 205.941 221.787, 205.941 220.213, 205.689 219.250 C 205.438 218.287, 205.232 219.075, 205.232 221 M 337.232 221 C 337.232 222.925, 337.438 223.713, 337.689 222.750 C 337.941 221.787, 337.941 220.213, 337.689 219.250 C 337.438 218.287, 337.232 219.075, 337.232 221 M 167.365 229.500 C 167.368 235, 167.536 237.122, 167.738 234.216 C 167.941 231.311, 167.939 226.811, 167.734 224.216 C 167.528 221.622, 167.363 224, 167.365 229.500 M 372.365 229.500 C 372.368 235, 372.536 237.122, 372.738 234.216 C 372.941 231.311, 372.939 226.811, 372.734 224.216 C 372.528 221.622, 372.363 224, 372.365 229.500 M 205.232 238 C 205.232 239.925, 205.438 240.713, 205.689 239.750 C 205.941 238.787, 205.941 237.213, 205.689 236.250 C 205.438 235.287, 205.232 236.075, 205.232 238 M 337.232 238 C 337.232 239.925, 337.438 240.713, 337.689 239.750 C 337.941 238.787, 337.941 237.213, 337.689 236.250 C 337.438 235.287, 337.232 236.075, 337.232 238 M 334.571 248.571 C 334.204 250.037, 334.096 251.429, 334.331 251.665 C 334.567 251.900, 335.061 250.894, 335.429 249.429 C 335.796 247.963, 335.904 246.571, 335.669 246.335 C 335.433 246.100, 334.939 247.106, 334.571 248.571 M 212.500 261 C 213.353 262.650, 214.276 264, 214.551 264 C 214.826 264, 214.353 262.650, 213.500 261 C 212.647 259.350, 211.724 258, 211.449 258 C 211.174 258, 211.647 259.350, 212.500 261 M 329.500 261 C 328.647 262.650, 328.174 264, 328.449 264 C 328.724 264, 329.647 262.650, 330.500 261 C 331.353 259.350, 331.826 258, 331.551 258 C 331.276 258, 330.353 259.350, 329.500 261 M 366.789 261.526 C 366.480 262.612, 365.922 264.400, 365.550 265.500 C 365.177 266.600, 365.605 266.236, 366.500 264.690 C 367.395 263.145, 367.952 261.356, 367.739 260.716 C 367.525 260.075, 367.098 260.440, 366.789 261.526 M 325 268 C 323.825 269.650, 323.089 271, 323.364 271 C 323.639 271, 324.825 269.650, 326 268 C 327.175 266.350, 327.911 265, 327.636 265 C 327.361 265, 326.175 266.350, 325 268 M 175.026 269.283 C 174.926 272.270, 187.237 292.069, 191.649 296.015 C 194.040 298.154, 193.975 297.968, 191.180 294.677 C 187.133 289.912, 183.645 284.504, 178.811 275.500 C 176.744 271.650, 175.041 268.852, 175.026 269.283 M 223.500 276 C 225.648 278.200, 227.631 280, 227.906 280 C 228.181 280, 226.648 278.200, 224.500 276 C 222.352 273.800, 220.369 272, 220.094 272 C 219.819 272, 221.352 273.800, 223.500 276 M 318.453 276.250 L 314.500 280.500 318.750 276.547 C 322.702 272.871, 323.460 272, 322.703 272 C 322.540 272, 320.627 273.913, 318.453 276.250 M 434.392 291 C 434.392 298.425, 434.549 301.462, 434.742 297.750 C 434.934 294.038, 434.934 287.962, 434.742 284.250 C 434.549 280.538, 434.392 283.575, 434.392 291 M 302.500 287.553 C 299.200 289.436, 296.950 290.977, 297.500 290.979 C 298.703 290.982, 309 285.163, 309 284.480 C 309 283.823, 309.222 283.718, 302.500 287.553 M 108.382 296.500 C 108.384 303.100, 108.546 305.670, 108.741 302.211 C 108.937 298.752, 108.936 293.352, 108.738 290.211 C 108.540 287.070, 108.380 289.900, 108.382 296.500 M 237 286.493 C 237 287.170, 245.123 291.211, 245.575 290.758 C 245.785 290.549, 243.941 289.398, 241.478 288.202 C 239.015 287.005, 237 286.236, 237 286.493 M 351.997 290.250 C 350.525 292.261, 350.283 292.960, 351.363 292.082 C 353.003 290.751, 355.483 287, 354.723 287 C 354.532 287, 353.305 288.462, 351.997 290.250 M 470.336 298 C 470.336 302.125, 470.513 303.813, 470.728 301.750 C 470.944 299.688, 470.944 296.313, 470.728 294.250 C 470.513 292.188, 470.336 293.875, 470.336 298 M 345.946 297.750 L 342.500 301.500 346.250 298.054 C 348.313 296.158, 350 294.471, 350 294.304 C 350 293.540, 349.154 294.260, 345.946 297.750 M 264.264 295.718 C 265.784 295.947, 268.034 295.941, 269.264 295.704 C 270.494 295.467, 269.250 295.279, 266.500 295.286 C 263.750 295.294, 262.744 295.488, 264.264 295.718 M 274.264 295.718 C 275.784 295.947, 278.034 295.941, 279.264 295.704 C 280.494 295.467, 279.250 295.279, 276.500 295.286 C 273.750 295.294, 272.744 295.488, 274.264 295.718 M 72.328 302.500 C 72.333 306.350, 72.513 307.802, 72.730 305.728 C 72.946 303.653, 72.943 300.503, 72.722 298.728 C 72.501 296.952, 72.324 298.650, 72.328 302.500 M 197 302.296 C 197 302.550, 199.117 304.493, 201.703 306.613 C 204.290 308.733, 206.084 309.945, 205.690 309.307 C 204.849 307.947, 197 301.614, 197 302.296 M 335 308.176 C 331.169 311.721, 330.714 312.348, 333.500 310.243 C 337.211 307.439, 341.834 302.944, 340.905 303.043 C 340.682 303.067, 338.025 305.377, 335 308.176 M 209.875 312.885 C 213.236 315.842, 225 322.604, 225 321.579 C 225 321.283, 223.088 320.078, 220.750 318.901 C 218.412 317.724, 214.250 315.220, 211.500 313.338 C 206.934 310.213, 206.793 310.173, 209.875 312.885 M 433.286 316.500 C 433.294 319.250, 433.488 320.256, 433.718 318.736 C 433.947 317.216, 433.941 314.966, 433.704 313.736 C 433.467 312.506, 433.279 313.750, 433.286 316.500 M 73.300 318 C 73.300 321.025, 73.487 322.262, 73.716 320.750 C 73.945 319.238, 73.945 316.762, 73.716 315.250 C 73.487 313.738, 73.300 314.975, 73.300 318 M 109.286 317.500 C 109.294 320.250, 109.488 321.256, 109.718 319.736 C 109.947 318.216, 109.941 315.966, 109.704 314.736 C 109.467 313.506, 109.279 314.750, 109.286 317.500 M 325.885 314.867 C 324.573 315.894, 320.350 318.347, 316.500 320.318 C 312.650 322.289, 309.849 323.924, 310.275 323.951 C 311.530 324.030, 324.280 317.253, 327 315.060 C 328.375 313.951, 329.223 313.034, 328.885 313.022 C 328.547 313.010, 327.197 313.840, 325.885 314.867 M 469.300 318 C 469.300 321.025, 469.487 322.262, 469.716 320.750 C 469.945 319.238, 469.945 316.762, 469.716 315.250 C 469.487 313.738, 469.300 314.975, 469.300 318 M 74.232 329 C 74.232 330.925, 74.438 331.712, 74.689 330.750 C 74.941 329.788, 74.941 328.212, 74.689 327.250 C 74.438 326.288, 74.232 327.075, 74.232 329 M 468.232 329 C 468.232 330.925, 468.438 331.712, 468.689 330.750 C 468.941 329.788, 468.941 328.212, 468.689 327.250 C 468.438 326.288, 468.232 327.075, 468.232 329 M 430.625 334.125 C 429.791 338.293, 430.599 339.101, 431.500 335 C 431.880 333.271, 431.982 331.649, 431.727 331.394 C 431.472 331.139, 430.976 332.368, 430.625 334.125 M 268.250 332.689 C 269.212 332.941, 270.788 332.941, 271.750 332.689 C 272.712 332.438, 271.925 332.232, 270 332.232 C 268.075 332.232, 267.288 332.438, 268.250 332.689 M 116 348.367 C 116 349.450, 120.970 359, 121.534 359 C 121.809 359, 120.847 356.637, 119.397 353.750 C 116.607 348.197, 116 347.235, 116 348.367 M 423.705 353.528 C 422.229 356.538, 421.234 359, 421.494 359 C 422.167 359, 427.211 348.878, 426.762 348.429 C 426.557 348.224, 425.182 350.518, 423.705 353.528 M 81.071 358.500 C 81.071 359.050, 81.714 360.625, 82.500 362 C 83.286 363.375, 83.929 364.050, 83.929 363.500 C 83.929 362.950, 83.286 361.375, 82.500 360 C 81.714 358.625, 81.071 357.950, 81.071 358.500 M 123.759 362.500 C 124.904 364.150, 128.227 367.750, 131.144 370.500 C 136.040 375.116, 135.954 374.963, 130.034 368.500 C 121.465 359.146, 121.363 359.048, 123.759 362.500 M 413.562 367.798 C 407.754 374.247, 407.482 374.687, 411.892 370.500 C 416.421 366.200, 421.803 359.899, 420.818 360.048 C 420.643 360.075, 417.378 363.562, 413.562 367.798 M 85 367.383 C 85 368.456, 87.975 374, 88.551 374 C 88.826 374, 88.308 372.538, 87.399 370.750 C 85.542 367.100, 85 366.339, 85 367.383 M 137.918 376.363 C 139.249 378.003, 143 380.483, 143 379.723 C 143 379.532, 141.537 378.305, 139.750 376.997 C 137.739 375.525, 137.040 375.283, 137.918 376.363 M 402.500 377.625 C 400.702 379.155, 400.334 379.763, 401.582 379.143 C 403.415 378.233, 406.853 374.941, 405.872 375.036 C 405.668 375.056, 404.150 376.221, 402.500 377.625 M 144 380.490 C 144 381.175, 150.123 384.210, 150.580 383.753 C 150.797 383.536, 149.406 382.610, 147.487 381.695 C 145.569 380.781, 144 380.239, 144 380.490 M 395 382 C 393.075 383.054, 391.860 383.935, 392.300 383.958 C 393.359 384.014, 399 381.081, 399 380.474 C 399 379.820, 398.941 379.842, 395 382 M 448 383 C 446.825 384.650, 446.089 386, 446.364 386 C 446.639 386, 447.825 384.650, 449 383 C 450.175 381.350, 450.911 380, 450.636 380 C 450.361 380, 449.175 381.350, 448 383 M 153 384.831 C 153.825 385.341, 155.625 386.059, 157 386.427 C 158.737 386.892, 159.042 386.813, 158 386.169 C 157.175 385.659, 155.375 384.941, 154 384.573 C 152.263 384.108, 151.958 384.187, 153 384.831 M 384.500 386.045 C 381.750 387.075, 380.400 387.902, 381.500 387.884 C 382.600 387.866, 385.300 387.018, 387.500 386 C 392.659 383.612, 390.932 383.638, 384.500 386.045 M 100.958 391.250 C 103.410 393.863, 105.548 396, 105.708 396 C 106.459 396, 105.665 395.102, 101.250 390.958 L 96.500 386.500 100.958 391.250 M 437.477 395.180 C 433.089 399.679, 431.075 402.041, 433 400.430 C 436.683 397.347, 446.604 387, 445.877 387 C 445.644 387, 441.864 390.681, 437.477 395.180 M 175.250 390.689 C 176.213 390.941, 177.787 390.941, 178.750 390.689 C 179.713 390.438, 178.925 390.232, 177 390.232 C 175.075 390.232, 174.287 390.438, 175.250 390.689 M 364.250 390.689 C 365.212 390.941, 366.788 390.941, 367.750 390.689 C 368.712 390.438, 367.925 390.232, 366 390.232 C 364.075 390.232, 363.288 390.438, 364.250 390.689 M 183.762 391.707 C 185.006 391.946, 186.806 391.937, 187.762 391.687 C 188.718 391.437, 187.700 391.241, 185.500 391.252 C 183.300 391.263, 182.518 391.468, 183.762 391.707 M 355.250 391.689 C 356.212 391.941, 357.788 391.941, 358.750 391.689 C 359.712 391.438, 358.925 391.232, 357 391.232 C 355.075 391.232, 354.288 391.438, 355.250 391.689 M 200.789 392.741 C 204.248 392.937, 209.648 392.936, 212.789 392.738 C 215.930 392.540, 213.100 392.380, 206.500 392.382 C 199.900 392.384, 197.330 392.546, 200.789 392.741 M 329.750 392.740 C 333.188 392.936, 338.813 392.936, 342.250 392.740 C 345.688 392.545, 342.875 392.385, 336 392.385 C 329.125 392.385, 326.313 392.545, 329.750 392.740 M 109.500 399.916 C 111.444 402.152, 117 406.496, 117 405.780 C 117 405.584, 114.862 403.667, 112.250 401.520 C 109.638 399.373, 108.400 398.651, 109.500 399.916 M 122 409.458 C 122 410.141, 131.030 415.303, 131.465 414.869 C 131.671 414.663, 129.625 413.258, 126.920 411.747 C 124.214 410.237, 122 409.206, 122 409.458 M 414.500 412.578 C 412.300 413.892, 410.950 414.973, 411.500 414.980 C 412.702 414.995, 419 411.246, 419 410.515 C 419 409.861, 419.207 409.766, 414.500 412.578 M 178.264 427.718 C 179.784 427.947, 182.034 427.941, 183.264 427.704 C 184.494 427.467, 183.250 427.279, 180.500 427.286 C 177.750 427.294, 176.744 427.488, 178.264 427.718 M 359.750 427.706 C 360.988 427.944, 363.012 427.944, 364.250 427.706 C 365.488 427.467, 364.475 427.272, 362 427.272 C 359.525 427.272, 358.512 427.467, 359.750 427.706 M 198.250 428.742 C 201.963 428.934, 208.037 428.934, 211.750 428.742 C 215.463 428.549, 212.425 428.392, 205 428.392 C 197.575 428.392, 194.537 428.549, 198.250 428.742 M 334.250 428.739 C 337.413 428.937, 342.587 428.937, 345.750 428.739 C 348.913 428.541, 346.325 428.378, 340 428.378 C 333.675 428.378, 331.087 428.541, 334.250 428.739" stroke="none" fill="#ae6464" fill-rule="evenodd"/><path d="M 193.500 31.060 C 152.416 32.874, 126.422 42.660, 104.762 64.466 C 96.522 72.761, 90.719 81.157, 85.612 92.171 C 73.773 117.702, 72 135.633, 72 229.801 C 72 305.435, 73.268 328.043, 78.627 347.950 C 89.862 389.679, 120.418 416.805, 165.500 425.071 C 180.094 427.747, 213.223 428.924, 274 428.924 C 353.450 428.925, 376.736 427.229, 397.669 419.916 C 414.497 414.037, 426.527 406.327, 439.137 393.337 C 450.669 381.458, 458.190 368.297, 463.332 351 C 469.392 330.614, 470.079 320.729, 470.699 244.954 C 471.213 182.115, 470.355 145.887, 467.940 128.500 C 465.408 110.262, 457.317 88.478, 448.627 76.500 C 442.943 68.667, 430.366 56.394, 423.111 51.603 C 402.470 37.971, 382.664 32.677, 346 30.994 C 322.327 29.907, 218.603 29.952, 193.500 31.060 M 204 66.030 C 174.501 67.012, 158.860 70.029, 146 77.220 C 125.696 88.572, 113.872 106.739, 110.014 132.505 C 106.836 153.732, 107.135 310.680, 110.388 328.500 C 113.795 347.166, 119.272 358.368, 130.454 369.538 C 139.523 378.599, 145.980 382.673, 157.272 386.459 C 173.943 392.048, 176.834 392.220, 262 392.710 C 342.363 393.172, 357.427 392.721, 374.988 389.330 C 384.214 387.548, 394.188 383.800, 400.782 379.638 C 407.480 375.409, 418.208 364.679, 421.955 358.460 C 426.882 350.283, 431.592 335.972, 433.155 324.428 C 435.074 310.265, 435.104 147.652, 433.191 134.500 C 430.189 113.863, 424.479 101.397, 412.547 89.429 C 395.103 71.932, 380.688 67.631, 334 65.995 C 304.508 64.962, 235.520 64.981, 204 66.030 M 372.236 99.932 C 367.423 101.143, 361.356 105.502, 358.557 109.759 C 351.360 120.704, 354.188 135.007, 365.034 142.524 C 368.716 145.075, 370.411 145.544, 376.914 145.811 C 383.268 146.071, 385.229 145.746, 388.986 143.811 C 394.848 140.791, 399.525 134.481, 401.092 127.479 C 404.083 114.114, 394.369 101.033, 380.395 99.609 C 377.703 99.334, 374.031 99.480, 372.236 99.932 M 251.500 129.043 C 214.453 135.912, 184.354 162.429, 172.659 198.500 C 166.121 218.667, 166.388 243.471, 173.349 262.771 C 182.791 288.946, 200.108 308.591, 224.500 320.800 C 235.690 326.401, 242.850 328.609, 256.392 330.633 C 266.537 332.149, 269.573 332.226, 278.816 331.198 C 310.332 327.694, 335.783 312.990, 353.589 288 C 380.192 250.665, 377.472 197.138, 347.230 162.820 C 330.379 143.699, 310.181 132.497, 285.348 128.501 C 273.388 126.576, 263.991 126.727, 251.500 129.043 M 257.437 163.963 C 239.456 167.809, 221.178 181.617, 212.692 197.767 C 206.716 209.140, 204.721 218.283, 205.245 231.897 C 205.973 250.796, 211.474 263.476, 224.585 276.475 C 232.724 284.546, 239.750 289.028, 250.165 292.793 C 256.785 295.187, 258.864 295.445, 271.500 295.445 C 284.136 295.445, 286.215 295.187, 292.835 292.793 C 303.233 289.034, 310.266 284.552, 318.415 276.494 C 331.530 263.524, 337.032 250.839, 337.757 231.897 C 338.130 222.174, 337.853 219.022, 336.048 212.442 C 330.094 190.741, 315.305 174.741, 293.500 166.411 C 287.534 164.131, 284.654 163.689, 274 163.415 C 267.125 163.238, 259.672 163.485, 257.437 163.963" stroke="none" fill="#8a0505" fill-rule="evenodd"/></svg>