<svg width="32" height="32" viewBox="0 0 32 32" fill="none" xmlns="http://www.w3.org/2000/svg">
<g id="la:linkedin">
<path id="Vector" d="M8.93236 8.00055C8.68237 7.9945 8.43369 8.03865 8.20096 8.13042C7.96823 8.22218 7.75615 8.3597 7.57721 8.53487C7.39826 8.71005 7.25606 8.91935 7.15897 9.15046C7.06188 9.38156 7.01186 9.62981 7.01186 9.88059C7.01186 10.1314 7.06188 10.3796 7.15897 10.6107C7.25606 10.8418 7.39826 11.0511 7.57721 11.2263C7.75615 11.4015 7.96823 11.539 8.20096 11.6308C8.43369 11.7225 8.68237 11.7667 8.93236 11.7606C9.42174 11.7488 9.88711 11.5455 10.229 11.1942C10.571 10.8429 10.7624 10.3715 10.7624 9.88059C10.7624 9.38968 10.571 8.91823 10.229 8.56695C9.88711 8.21566 9.42174 8.01239 8.93236 8.00055ZM18.7833 12.9914C17.22 12.9914 16.1804 13.8502 15.7505 14.6663H15.6818V13.231H12.6131V23.624H15.8182V18.4953C15.8182 17.1409 16.0865 15.8292 17.7611 15.8292C19.4105 15.8292 19.4324 17.3586 19.4324 18.5642V23.624H22.6364V17.9144C22.6364 15.1203 22.0429 12.9914 18.7833 12.9914ZM7.36364 13.231V23.624H10.6025V13.231H7.36364Z" fill="#0C1A4C"/>
<path id="Vector_2" d="M6.33333 5.66667C5.62609 5.66667 4.94781 5.94762 4.44771 6.44771C3.94762 6.94781 3.66667 7.62609 3.66667 8.33333V24.3333C3.66667 25.0406 3.94762 25.7189 4.44771 26.219C4.94781 26.719 5.62609 27 6.33333 27H22.3333C23.0406 27 23.7189 26.719 24.219 26.219C24.719 25.7189 25 25.0406 25 24.3333V8.33333C25 7.62609 24.719 6.94781 24.219 6.44771C23.7189 5.94762 23.0406 5.66667 22.3333 5.66667H6.33333ZM6.33333 3H22.3333C23.7478 3 25.1044 3.5619 26.1046 4.5621C27.1048 5.56229 27.6667 6.91885 27.6667 8.33333V24.3333C27.6667 25.7478 27.1048 27.1044 26.1046 28.1046C25.1044 29.1048 23.7478 29.6667 22.3333 29.6667H6.33333C4.91885 29.6667 3.56229 29.1048 2.5621 28.1046C1.5619 27.1044 1 25.7478 1 24.3333V8.33333C1 6.91885 1.5619 5.56229 2.5621 4.5621C3.56229 3.5619 4.91885 3 6.33333 3Z" fill="#0C1A4C"/>
</g>
</svg>
