<svg width="53" height="54" viewBox="0 0 53 54" fill="none" xmlns="http://www.w3.org/2000/svg">
<g id="quotation 1">
<g id="Icon">
<path id="Vector" fill-rule="evenodd" clip-rule="evenodd" d="M11.8878 32.8051C6.68937 31.7791 2.76074 27.1126 2.76074 21.5191C2.76074 15.1741 7.81562 10.0238 14.0431 10.0238C20.2706 10.0238 25.3255 15.1741 25.3255 21.5191C25.3255 29.9746 22.5297 35.2261 19.2482 38.5088C14.2242 43.5353 7.93266 43.9718 7.93266 43.9718C7.29224 44.0191 6.68495 43.6838 6.37137 43.1146C6.05558 42.5476 6.09312 41.8433 6.46412 41.3123C6.46412 41.3123 9.4542 37.0238 11.318 33.8513C11.5124 33.5183 11.7089 33.1516 11.8878 32.8051Z" fill="#8ECBF1"/>
<path id="Vector_2" fill-rule="evenodd" clip-rule="evenodd" d="M36.8985 32.8049C31.7001 31.7789 27.7715 27.1124 27.7715 21.5189C27.7715 15.1739 32.8264 10.0237 39.0539 10.0237C45.2814 10.0237 50.3362 15.1739 50.3362 21.5189C50.3362 29.9744 47.5405 35.2259 44.2589 38.5087C39.2349 43.5352 32.9434 43.9717 32.9434 43.9717C32.303 44.0189 31.6957 43.6837 31.3821 43.1144C31.0685 42.5474 31.1039 41.8432 31.4749 41.3122C31.4749 41.3122 34.4649 37.0237 36.3288 33.8512C36.5231 33.5182 36.7197 33.1514 36.8985 32.8049Z" fill="#8ECBF1"/>
</g>
</g>
</svg>
