<svg xmlns="http://www.w3.org/2000/svg" width="53" height="54" viewBox="0 0 53 54" version="1.1"><path d="M 7.400 15.400 C 4.375 18.425, 4 19.394, 4 24.188 C 4 34.448, 10.147 42.428, 17.583 41.820 L 21.500 41.500 18.500 39.991 C 13.870 37.661, 14.087 34.788, 19.058 32.595 C 29.927 27.799, 26.679 12, 14.823 12 C 11.581 12, 10.140 12.660, 7.400 15.400 M 31.766 14.920 C 28.680 17.680, 28.500 18.217, 28.507 24.670 C 28.512 30.013, 29.006 32.294, 30.774 35.147 C 33.846 40.100, 37.292 42.182, 41.802 41.807 L 45.500 41.500 42.500 39.991 C 40.832 39.151, 39.364 37.529, 39.193 36.337 C 38.951 34.646, 39.655 33.939, 42.520 32.993 C 46.828 31.572, 49.991 26.984, 49.996 22.150 C 49.999 19.671, 49.116 17.916, 46.600 15.400 C 42.022 10.822, 36.547 10.645, 31.766 14.920" stroke="none" fill="#850e0e" fill-rule="evenodd"/></svg>