<svg width="24" height="24" viewBox="0 0 24 24" fill="none" xmlns="http://www.w3.org/2000/svg">
<path d="M4.3125 5.43738H12.9375V13.3124H4.3125V5.43738Z" fill="#E9EAF2"/>
<path d="M14.625 14.8124C14.625 14.9155 14.5406 14.9999 14.4375 14.9999H11.8125V16.7108H19.6875V8.83582H14.625V14.8124Z" fill="#E9EAF2"/>
<path d="M20.625 7.14832H14.625V4.49988C14.625 4.08503 14.2898 3.74988 13.875 3.74988H4.3125V2.81238C4.3125 2.70925 4.22813 2.62488 4.125 2.62488H2.8125C2.70937 2.62488 2.625 2.70925 2.625 2.81238V21.1874C2.625 21.2905 2.70937 21.3749 2.8125 21.3749H4.125C4.22813 21.3749 4.3125 21.2905 4.3125 21.1874V14.9999H10.125V17.6483C10.125 18.0632 10.4602 18.3983 10.875 18.3983H20.625C21.0398 18.3983 21.375 18.0632 21.375 17.6483V7.89832C21.375 7.48347 21.0398 7.14832 20.625 7.14832ZM4.3125 13.3124V5.43738H12.9375V13.3124H4.3125ZM19.6875 16.7108H11.8125V14.9999H14.4375C14.5406 14.9999 14.625 14.9155 14.625 14.8124V8.83582H19.6875V16.7108Z" fill="#0C1A4C"/>
</svg>
