<svg xmlns="http://www.w3.org/2000/svg" version="1.0" width="1024.000000pt" height="1024.000000pt" viewBox="0 0 1024.000000 1024.000000" preserveAspectRatio="xMidYMid meet">

<g transform="translate(0.000000,1024.000000) scale(0.100000,-0.100000)" fill="#b71c1c" stroke="none">
<path d="M4985 9520 c-258 -35 -619 -236 -871 -485 -111 -110 -209 -256 -323 -480 -116 -228 -147 -266 -307 -375 -192 -132 -331 -276 -404 -420 -53 -106 -70 -214 -71 -455 -1 -191 10 -294 48 -475 27 -123 27 -130 25 -458 -2 -353 4 -416 49 -538 38 -100 150 -231 262 -304 105 -70 229 -101 472 -120 235 -18 283 -38 435 -175 179 -162 370 -276 553 -329 492 -143 1028 59 1355 509 103 143 219 402 288 648 15 55 34 105 41 113 8 8 60 28 116 45 238 74 397 148 477 225 126 120 168 304 157 694 -6 213 -22 324 -67 470 -61 197 -175 332 -365 434 -61 32 -124 69 -141 82 -47 34 -71 98 -98 256 -31 178 -54 254 -120 393 -142 299 -316 485 -573 614 -189 94 -366 130 -668 136 -110 2 -231 0 -270 -5z m546 -383 c298 -78 531 -290 648 -590 57 -147 75 -244 75 -417 1 -173 -5 -210 -45 -254 -64 -74 -167 -89 -589 -89 -436 0 -646 23 -909 102 -242 73 -579 221 -634 279 -64 67 -43 146 94 350 177 265 368 438 603 547 108 50 140 61 254 86 128 28 369 21 503 -14z m-1847 -1327 c0 -30 -5 -111 -12 -180 -6 -69 -14 -284 -18 -479 l-7 -353 -73 4 c-153 7 -192 86 -201 413 -10 356 20 447 197 596 93 78 115 78 114 -1z m562 -121 c325 -140 556 -205 873 -246 91 -11 252 -18 576 -22 l450 -6 12 -80 c32 -201 25 -733 -13 -1010 -42 -305 -146 -571 -289 -739 -259 -303 -665 -416 -996 -277 -79 33 -280 161 -276 175 5 14 141 65 194 71 35 5 65 1 113 -15 190 -62 394 -16 531 121 152 152 169 349 45 523 -113 159 -304 236 -476 192 -84 -22 -142 -56 -211 -127 -55 -55 -69 -80 -140 -237 -43 -96 -85 -133 -174 -156 -161 -40 -205 8 -322 349 -37 109 -92 369 -120 565 -22 161 -26 784 -5 894 12 63 27 106 36 106 2 0 89 -37 192 -81z m2517 -2 c81 -83 115 -145 147 -271 50 -199 57 -438 16 -578 -27 -94 -67 -145 -142 -180 -87 -40 -145 -47 -172 -20 -16 16 -21 38 -26 118 -3 55 -13 207 -23 339 -25 333 -23 465 6 530 33 74 66 105 113 105 32 0 46 -7 81 -43z m-3123 -1256 c38 -10 67 -63 106 -190 20 -64 58 -186 85 -272 53 -169 57 -194 34 -203 -25 -9 -171 20 -228 47 -148 67 -225 221 -228 451 -2 101 17 144 71 163 38 13 120 15 160 4z m1517 -436 c28 -31 21 -55 -28 -100 -58 -53 -105 -47 -124 14 -9 30 20 95 49 110 31 15 78 5 103 -24z" fill="#b71c1c"/>
<path d="M6085 4930 c-100 -9 -139 -25 -183 -76 -56 -63 -66 -148 -23 -198 37 -44 97 -58 276 -67 301 -14 426 -34 593 -95 510 -184 855 -617 1076 -1349 115 -381 210 -928 276 -1587 16 -151 5 -178 -87 -225 -65 -32 -89 -39 -483 -123 -343 -73 -363 -78 -497 -122 -140 -46 -196 -84 -213 -147 -14 -54 1 -127 34 -160 26 -25 29 -26 154 -25 109 0 156 6 331 43 436 91 825 198 953 262 78 39 145 96 167 143 20 40 22 62 22 183 0 380 -124 1248 -253 1772 -45 184 -168 490 -277 690 -378 692 -885 1033 -1601 1076 -52 3 -117 7 -145 9 -27 1 -81 0 -120 -4z" fill="#b71c1c"/>
<path d="M3479 4815 c-156 -17 -259 -39 -381 -81 -642 -221 -1029 -789 -1238 -1812 -105 -517 -130 -1146 -69 -1724 20 -191 54 -269 133 -308 73 -35 168 -42 481 -37 317 4 368 12 416 63 21 22 24 35 24 99 0 64 -3 77 -25 100 -41 43 -109 56 -353 64 -122 5 -234 13 -249 19 -49 20 -59 50 -69 204 -16 228 5 877 36 1153 54 470 239 1062 419 1340 130 199 300 361 471 447 81 41 253 95 355 112 127 21 342 36 525 36 325 0 398 29 397 152 -1 87 -77 150 -209 173 -99 18 -501 18 -664 0z" fill="#b71c1c"/>
<path d="M4345 4300 c-626 -33 -775 -46 -970 -84 -162 -32 -266 -68 -346 -121 -71 -48 -104 -88 -142 -175 -53 -121 -58 -223 -66 -1310 l-6 -875 -200 -5 c-213 -6 -234 -10 -282 -62 -66 -70 -56 -195 20 -235 46 -24 349 -30 2032 -38 1395 -7 2655 3 3085 25 177 9 200 13 247 36 117 57 141 161 57 254 -44 48 -116 79 -211 90 -42 4 -82 14 -90 22 -23 24 -33 129 -33 363 -1 286 -17 817 -30 992 -24 317 -72 552 -138 677 -20 39 -66 102 -101 139 -186 197 -553 262 -1731 307 -287 11 -883 11 -1095 0z m1115 -390 c741 -21 1213 -69 1364 -141 124 -58 160 -156 191 -524 19 -222 33 -502 45 -910 12 -369 7 -511 -19 -524 -9 -5 -70 -11 -136 -15 -159 -8 -1086 -24 -1820 -31 -324 -2 -886 -8 -1247 -11 l-658 -6 0 613 c0 758 13 1253 35 1325 29 97 76 132 213 158 171 33 601 63 957 69 463 7 745 6 1075 -3z" fill="#b71c1c"/>
<path d="M5079 3361 c-64 -43 -242 -229 -270 -282 -22 -40 -24 -57 -24 -174 0 -165 12 -195 128 -310 92 -92 151 -127 265 -156 90 -23 146 -24 230 -4 149 35 265 125 324 251 26 56 32 82 36 164 16 333 -168 517 -538 536 -105 6 -105 6 -151 -25z m244 -382 c79 -41 102 -116 51 -164 -33 -31 -72 -39 -123 -25 -48 13 -121 78 -121 107 0 25 36 72 64 83 31 13 104 12 129 -1z" fill="#b71c1c"/>
</g>
</svg>