<svg width="25" height="24" viewBox="0 0 25 24" fill="none" xmlns="http://www.w3.org/2000/svg">
<g id="icon">
<path id="Vector" d="M22.0663 20.0273L15.9796 13.9406C16.9241 12.7195 17.4351 11.2266 17.4351 9.65625C17.4351 7.77656 16.7015 6.01406 15.3749 4.68516C14.0483 3.35625 12.2812 2.625 10.4038 2.625C8.52646 2.625 6.75928 3.35859 5.43271 4.68516C4.10381 6.01172 3.37256 7.77656 3.37256 9.65625C3.37256 11.5336 4.10615 13.3008 5.43271 14.6273C6.75928 15.9562 8.52412 16.6875 10.4038 16.6875C11.9741 16.6875 13.4647 16.1766 14.6858 15.2344L20.7726 21.3187C20.7904 21.3366 20.8116 21.3508 20.8349 21.3604C20.8582 21.3701 20.8832 21.3751 20.9085 21.3751C20.9337 21.3751 20.9587 21.3701 20.9821 21.3604C21.0054 21.3508 21.0266 21.3366 21.0444 21.3187L22.0663 20.2992C22.0842 20.2814 22.0983 20.2602 22.108 20.2369C22.1177 20.2135 22.1226 20.1885 22.1226 20.1633C22.1226 20.138 22.1177 20.113 22.108 20.0897C22.0983 20.0664 22.0842 20.0452 22.0663 20.0273ZM14.1163 13.3688C13.1226 14.3602 11.8054 14.9062 10.4038 14.9062C9.00225 14.9062 7.68506 14.3602 6.69131 13.3688C5.6999 12.375 5.15381 11.0578 5.15381 9.65625C5.15381 8.25469 5.6999 6.93516 6.69131 5.94375C7.68506 4.95234 9.00225 4.40625 10.4038 4.40625C11.8054 4.40625 13.1249 4.95 14.1163 5.94375C15.1077 6.9375 15.6538 8.25469 15.6538 9.65625C15.6538 11.0578 15.1077 12.3773 14.1163 13.3688Z" fill="#626A88"/>
</g>
</svg>
