<svg width="46" height="46" viewBox="0 0 46 46" fill="none" xmlns="http://www.w3.org/2000/svg">
<rect width="46.0001" height="46" rx="5" fill="#1D98E4"/>
<path d="M35.425 33.7031L27.3094 25.5875C28.5688 23.9594 29.25 21.9688 29.25 19.875C29.25 17.3688 28.2719 15.0187 26.5031 13.2469C24.7344 11.475 22.3781 10.5 19.875 10.5C17.3719 10.5 15.0156 11.4781 13.2469 13.2469C11.475 15.0156 10.5 17.3688 10.5 19.875C10.5 22.3781 11.4781 24.7344 13.2469 26.5031C15.0156 28.275 17.3688 29.25 19.875 29.25C21.9688 29.25 23.9563 28.5688 25.5844 27.3125L33.7 35.425C33.7238 35.4488 33.7521 35.4677 33.7832 35.4806C33.8143 35.4935 33.8476 35.5001 33.8813 35.5001C33.9149 35.5001 33.9482 35.4935 33.9793 35.4806C34.0104 35.4677 34.0387 35.4488 34.0625 35.425L35.425 34.0656C35.4488 34.0418 35.4677 34.0136 35.4806 33.9825C35.4935 33.9514 35.5001 33.918 35.5001 33.8844C35.5001 33.8507 35.4935 33.8174 35.4806 33.7863C35.4677 33.7552 35.4488 33.7269 35.425 33.7031ZM24.825 24.825C23.5 26.1469 21.7437 26.875 19.875 26.875C18.0062 26.875 16.25 26.1469 14.925 24.825C13.6031 23.5 12.875 21.7437 12.875 19.875C12.875 18.0062 13.6031 16.2469 14.925 14.925C16.25 13.6031 18.0062 12.875 19.875 12.875C21.7437 12.875 23.5031 13.6 24.825 14.925C26.1469 16.25 26.875 18.0062 26.875 19.875C26.875 21.7437 26.1469 23.5031 24.825 24.825Z" fill="white"/>
</svg>
