<svg xmlns="http://www.w3.org/2000/svg" version="1.0" width="1024.000000pt" height="1024.000000pt" viewBox="0 0 1024.000000 1024.000000" preserveAspectRatio="xMidYMid meet">

<g transform="translate(0.000000,1024.000000) scale(0.100000,-0.100000)" fill="#b71c1c" stroke="none">
<path d="M2552 9557 c-72 -30 -118 -69 -146 -125 -52 -104 -58 -186 -42 -577 10 -243 2 -378 -49 -836 -48 -430 -119 -938 -241 -1714 -19 -121 -44 -281 -54 -355 -11 -74 -38 -243 -59 -375 -22 -132 -60 -370 -86 -530 -25 -159 -62 -384 -80 -500 -325 -2008 -365 -2443 -250 -2726 62 -154 207 -319 373 -426 206 -134 530 -253 927 -343 449 -101 730 -147 1585 -260 158 -21 832 -89 992 -100 91 -7 253 -10 360 -8 167 4 202 7 257 27 132 46 235 135 342 294 116 173 286 549 465 1030 24 64 65 172 90 240 25 67 61 165 79 217 19 52 61 172 95 265 84 235 228 644 376 1070 69 198 134 385 145 415 12 30 77 215 144 410 68 195 174 497 235 670 788 2236 820 2341 820 2704 0 253 -38 365 -164 492 -242 241 -763 373 -2366 599 -202 28 -1098 139 -2020 249 -434 52 -929 118 -1255 166 -187 27 -358 50 -380 49 -22 0 -64 -10 -93 -22z m473 -451 c132 -20 332 -47 445 -61 113 -14 252 -32 310 -40 58 -9 249 -33 425 -55 1020 -125 2416 -307 2545 -330 30 -6 150 -24 265 -40 324 -47 690 -116 901 -170 286 -73 423 -143 477 -244 19 -35 22 -57 22 -146 -1 -61 -8 -140 -19 -190 -44 -212 -181 -643 -406 -1280 -94 -266 -376 -1077 -510 -1465 -21 -60 -66 -189 -100 -285 -34 -96 -99 -283 -145 -415 -46 -132 -109 -312 -140 -400 -31 -88 -74 -209 -95 -270 -21 -60 -66 -186 -100 -280 -34 -93 -72 -201 -85 -240 -12 -38 -51 -146 -85 -240 -34 -93 -80 -219 -102 -280 -173 -482 -342 -918 -450 -1165 -109 -250 -165 -333 -251 -373 -120 -57 -214 -58 -732 -6 -1326 131 -2222 284 -2721 465 -225 81 -331 143 -464 270 l-99 95 5 67 c2 37 11 168 19 292 24 350 96 994 150 1340 13 85 31 207 40 270 16 114 36 242 140 880 57 347 137 841 180 1110 49 307 144 982 184 1305 58 471 85 826 111 1460 17 414 20 464 33 460 7 -3 120 -20 252 -39z" fill="#b71c1c"/>
<path d="M5106 7500 c-169 -36 -244 -60 -359 -116 -129 -63 -218 -126 -328 -231 -140 -135 -224 -263 -283 -434 -41 -122 -59 -216 -59 -329 -1 -118 10 -179 59 -330 19 -58 44 -153 56 -212 l21 -107 -30 -49 c-16 -26 -61 -88 -99 -138 -223 -285 -300 -449 -274 -585 22 -115 79 -174 275 -286 108 -62 289 -144 364 -167 74 -22 126 -20 192 8 151 62 346 282 491 553 74 140 100 161 133 110 17 -26 45 -149 69 -297 18 -110 58 -254 86 -309 10 -21 40 -59 66 -84 85 -85 202 -112 469 -111 136 0 197 4 250 17 148 37 244 104 285 200 56 130 27 383 -86 741 -24 77 -51 172 -59 213 -15 71 -15 76 5 116 11 23 38 65 60 92 51 64 114 208 135 310 49 238 24 494 -72 724 -104 252 -331 478 -594 592 -125 54 -191 74 -364 109 -184 37 -233 37 -409 0z m441 -439 c287 -82 514 -292 589 -546 27 -90 24 -259 -5 -345 -110 -319 -411 -520 -781 -520 -151 0 -281 30 -410 95 -207 104 -325 238 -391 444 -56 177 -47 319 30 476 104 210 313 361 566 411 100 19 308 12 402 -15z m-994 -1592 c71 -37 190 -125 203 -150 13 -27 13 -33 -6 -76 -31 -71 -124 -206 -171 -248 -42 -37 -43 -38 -108 -32 -110 9 -241 68 -241 108 0 11 14 41 32 67 59 89 253 342 261 342 5 0 18 -5 30 -11z m1394 -171 c35 -39 101 -202 143 -353 22 -80 40 -150 40 -156 0 -8 -47 -10 -157 -7 -246 6 -256 16 -261 263 -3 154 -3 161 20 195 16 24 41 42 78 57 71 29 111 29 137 1z" fill="#b71c1c"/>
<path d="M3401 3893 c-65 -53 -30 -262 49 -300 58 -27 444 -104 1025 -204 552 -96 850 -139 956 -139 90 0 161 36 207 104 38 57 39 77 10 136 -56 110 -264 161 -1293 320 -655 102 -904 123 -954 83z" fill="#b71c1c"/>
<path d="M3649 3130 c-26 -5 -56 -13 -69 -20 -27 -14 -80 -124 -80 -166 0 -107 168 -169 845 -310 758 -159 1080 -215 1220 -213 121 1 161 36 172 151 11 121 -28 159 -218 211 -249 69 -883 203 -1349 286 -330 59 -449 72 -521 61z" fill="#b71c1c"/>
</g>
</svg>