<svg width="48" height="48" viewBox="0 0 48 48" fill="none" xmlns="http://www.w3.org/2000/svg">
<g clip-path="url(#clip0_675_20847)">
<path d="M44.2352 4.23535H11.294C9.21814 4.23535 7.5293 5.9242 7.5293 8.00006V12.7059H36.7058C38.2651 12.7059 39.5293 13.9701 39.5293 15.5295V32.4706H44.2352C46.311 32.4706 47.9999 30.7818 47.9999 28.7059V8.00006C47.9999 5.9242 46.311 4.23535 44.2352 4.23535Z" fill="#8ECBF1"/>
<path d="M11.7642 27.7647C12.8038 27.7647 13.6465 26.9219 13.6465 25.8824C13.6465 24.8428 12.8038 24 11.7642 24C10.7246 24 9.88184 24.8428 9.88184 25.8824C9.88184 26.9219 10.7246 27.7647 11.7642 27.7647Z" fill="#8ECBF1"/>
<path d="M20.2349 27.7647C21.2745 27.7647 22.1172 26.9219 22.1172 25.8824C22.1172 24.8428 21.2745 24 20.2349 24C19.1953 24 18.3525 24.8428 18.3525 25.8824C18.3525 26.9219 19.1953 27.7647 20.2349 27.7647Z" fill="#8ECBF1"/>
<path d="M28.7056 27.7647C29.7452 27.7647 30.5879 26.9219 30.5879 25.8824C30.5879 24.8428 29.7452 24 28.7056 24C27.666 24 26.8232 24.8428 26.8232 25.8824C26.8232 26.9219 27.666 27.7647 28.7056 27.7647Z" fill="#8ECBF1"/>
<path d="M36.7059 11.7646H3.76471C1.68885 11.7646 0 13.4535 0 15.5294V36.2352C0 38.3111 1.68885 39.9999 3.76471 39.9999H16.0808L19.5698 43.489C19.9372 43.8564 20.5333 43.8565 20.9009 43.489L24.3899 39.9999H36.7059C38.7817 39.9999 40.4706 38.3111 40.4706 36.2352V15.5294C40.4706 13.4535 38.7817 11.7646 36.7059 11.7646ZM38.5882 36.2352C38.5882 37.2732 37.7438 38.1176 36.7059 38.1176H24C23.7504 38.1176 23.511 38.2168 23.3345 38.3933L20.2353 41.4925L17.1361 38.3933C16.9596 38.2168 16.7202 38.1176 16.4706 38.1176H3.76471C2.72678 38.1176 1.88235 37.2732 1.88235 36.2352V15.5294C1.88235 14.4914 2.72678 13.647 3.76471 13.647H36.7059C37.7438 13.647 38.5882 14.4914 38.5882 15.5294V36.2352Z" fill="#0C1A4C"/>
</g>
<defs>
<clipPath id="clip0_675_20847">
<rect width="48" height="48" fill="white"/>
</clipPath>
</defs>
</svg>
