<svg width="48" height="48" viewBox="0 0 48 48" fill="none" xmlns="http://www.w3.org/2000/svg">
<path d="M47.0625 12.2246H0.9375V17.5664H47.0625V12.2246Z" fill="#8ECBF1"/>
<path d="M42.9712 21.8735H19.1826V36.5071H42.9712V21.8735Z" fill="#8ECBF1"/>
<path d="M42.8333 6.29541H5.16666C2.31778 6.29541 0 8.61319 0 11.4621V36.5381C0 39.387 2.31778 41.7048 5.16666 41.7048H42.8333C45.6823 41.7048 48 39.387 48 36.5381V11.4621C48 8.61319 45.6822 6.29541 42.8333 6.29541ZM46.125 36.5381C46.125 38.3531 44.6483 39.8298 42.8333 39.8298H5.16666C3.35156 39.8298 1.875 38.3531 1.875 36.5381V11.4621C1.875 9.64707 3.35156 8.17041 5.16666 8.17041H42.8333C44.6483 8.17041 46.125 9.64697 46.125 11.4621V36.5381Z" fill="#0C1A4C"/>
<path d="M10.1545 29.7645C12.5885 29.7645 14.5687 27.7842 14.5687 25.3503C14.5687 22.9163 12.5884 20.936 10.1545 20.936C7.72052 20.936 5.74023 22.9162 5.74023 25.3503C5.74023 27.7843 7.72052 29.7645 10.1545 29.7645ZM10.1545 22.8109C11.5546 22.8109 12.6937 23.95 12.6937 25.3502C12.6937 26.7503 11.5546 27.8894 10.1545 27.8894C8.7543 27.8894 7.61523 26.7503 7.61523 25.3502C7.61523 23.95 8.7543 22.8109 10.1545 22.8109Z" fill="#0C1A4C"/>
<path d="M10.1549 31.0259C7.06795 31.0259 4.46423 33.3344 4.09842 36.3956C4.06664 36.6618 4.15026 36.9288 4.3281 37.1292C4.50604 37.3296 4.76123 37.4444 5.02926 37.4444H15.2805C15.5486 37.4444 15.8038 37.3296 15.9817 37.1292C16.1595 36.9288 16.2433 36.6618 16.2114 36.3956C15.8457 33.3344 13.2419 31.0259 10.1549 31.0259ZM6.22504 35.5694C6.8482 33.9933 8.38711 32.9009 10.1549 32.9009C11.9227 32.9009 13.4616 33.9933 14.0849 35.5694H6.22504Z" fill="#0C1A4C"/>
<path d="M38.972 26.5854C38.9687 26.5769 38.9654 26.5683 38.9619 26.56C38.8004 26.1672 38.4218 25.9136 37.9972 25.9136H37.9961C37.5711 25.914 37.1925 26.1686 37.0317 26.562C37.0289 26.569 37.0261 26.5759 37.0235 26.583L35.2746 31.1749C35.0902 31.6588 35.3331 32.2004 35.8169 32.3847C36.3007 32.569 36.8423 32.3262 37.0266 31.8422L37.2322 31.3024H38.748L38.9507 31.8395C39.0923 32.215 39.449 32.4463 39.8279 32.4463C39.9379 32.4463 40.0497 32.4268 40.1586 32.3856C40.6431 32.2028 40.8876 31.6619 40.7047 31.1775L38.972 26.5854ZM37.9464 29.4275L37.9936 29.3036L38.0404 29.4275H37.9464Z" fill="#0C1A4C"/>
<path d="M28.1641 25.9136C27.6464 25.9136 27.2266 26.3333 27.2266 26.8511V31.5087C27.2266 32.0264 27.6464 32.4462 28.1641 32.4462C28.6817 32.4462 29.1016 32.0264 29.1016 31.5087V26.8511C29.1016 26.3333 28.6817 25.9136 28.1641 25.9136Z" fill="#0C1A4C"/>
<path d="M33.0715 28.3373C32.6019 28.164 32.1589 27.9777 31.9319 27.88C31.949 27.8613 31.9827 27.8392 32.0393 27.8221C32.2671 27.7535 32.6101 27.8389 32.9057 27.9465C33.2695 28.079 33.6768 27.9532 33.9041 27.6397C34.2112 27.2161 34.0757 26.6222 33.6186 26.3678C33.0657 26.0601 32.292 25.7876 31.4986 26.0267C30.7217 26.2607 30.1713 26.8785 30.0622 27.639C29.9585 28.3612 30.2719 29.0561 30.8802 29.4526C30.9216 29.4796 30.9651 29.5033 31.0103 29.5234C31.0376 29.5356 31.6895 29.8257 32.4227 30.0963C32.708 30.2015 32.799 30.3165 32.8068 30.3334C32.8017 30.3908 32.6526 30.5713 32.3427 30.5713C31.8029 30.5713 31.4957 30.2786 31.4143 30.1888C31.0667 29.8052 30.4739 29.7761 30.0901 30.1238C29.7065 30.4715 29.6774 31.0644 30.0251 31.448C30.6001 32.0825 31.445 32.4463 32.3428 32.4463C33.4968 32.4463 34.4681 31.6968 34.6525 30.6641C34.7871 29.9095 34.4539 28.8471 33.0715 28.3373Z" fill="#0C1A4C"/>
<path d="M25.8157 25.9702C25.325 25.807 24.7937 26.0728 24.6304 26.5643L23.8825 28.8156L23.094 26.5439C22.9241 26.0547 22.3901 25.7959 21.9008 25.9657C21.4118 26.1355 21.1528 26.6696 21.3226 27.1588L22.9173 31.7529C23.0649 32.1685 23.4592 32.4464 23.8997 32.4464C23.902 32.4464 23.9044 32.4464 23.9068 32.4464C24.3503 32.4434 24.744 32.1594 24.8889 31.7333L26.4098 27.1555C26.5731 26.6641 26.307 26.1334 25.8157 25.9702Z" fill="#0C1A4C"/>
</svg>
