<svg width="46" height="46" viewBox="0 0 46 46" fill="none" xmlns="http://www.w3.org/2000/svg">
<g clip-path="url(#clip0_749_19386)">
<path d="M42.3923 4.05884H10.8237C8.8343 4.05884 7.21582 5.67732 7.21582 7.66668V12.1765H35.1766C36.671 12.1765 37.8825 13.388 37.8825 14.8824V31.1177H42.3923C44.3817 31.1177 46.0001 29.4992 46.0001 27.5098V7.66668C46.0001 5.67732 44.3817 4.05884 42.3923 4.05884Z" fill="#8ECBF1"/>
<path d="M11.2746 26.6078C12.2709 26.6078 13.0785 25.8002 13.0785 24.8039C13.0785 23.8076 12.2709 23 11.2746 23C10.2783 23 9.4707 23.8076 9.4707 24.8039C9.4707 25.8002 10.2783 26.6078 11.2746 26.6078Z" fill="#8ECBF1"/>
<path d="M19.3923 26.6078C20.3886 26.6078 21.1962 25.8002 21.1962 24.8039C21.1962 23.8076 20.3886 23 19.3923 23C18.396 23 17.5884 23.8076 17.5884 24.8039C17.5884 25.8002 18.396 26.6078 19.3923 26.6078Z" fill="#8ECBF1"/>
<path d="M27.51 26.6078C28.5063 26.6078 29.3139 25.8002 29.3139 24.8039C29.3139 23.8076 28.5063 23 27.51 23C26.5137 23 25.7061 23.8076 25.7061 24.8039C25.7061 25.8002 26.5137 26.6078 27.51 26.6078Z" fill="#8ECBF1"/>
<path d="M35.1765 11.2744H3.60784C1.61848 11.2744 0 12.8929 0 14.8823V34.7254C0 36.7148 1.61848 38.3332 3.60784 38.3332H15.4107L18.7544 41.6769C19.1065 42.029 19.6777 42.0291 20.03 41.6769L23.3737 38.3332H35.1765C37.1658 38.3332 38.7843 36.7148 38.7843 34.7254V14.8823C38.7843 12.8929 37.1658 11.2744 35.1765 11.2744ZM36.9804 34.7254C36.9804 35.7201 36.1712 36.5293 35.1765 36.5293H23C22.7608 36.5293 22.5313 36.6244 22.3622 36.7935L19.3922 39.7636L16.4221 36.7935C16.253 36.6244 16.0235 36.5293 15.7843 36.5293H3.60784C2.61316 36.5293 1.80392 35.7201 1.80392 34.7254V14.8823C1.80392 13.8876 2.61316 13.0783 3.60784 13.0783H35.1765C36.1712 13.0783 36.9804 13.8876 36.9804 14.8823V34.7254Z" fill="#0C1A4C"/>
</g>
<defs>
<clipPath id="clip0_749_19386">
<rect width="46" height="46" fill="white"/>
</clipPath>
</defs>
</svg>
