<svg width="48" height="46" viewBox="0 0 48 46" fill="none" xmlns="http://www.w3.org/2000/svg">
<path d="M28.7206 24.9296C29.1124 24.0475 29.3293 23.0765 29.3293 22.0569C29.3293 18.01 25.9132 14.7292 21.6992 14.7292V22.0569L28.7206 24.9296Z" fill="#8ECBF1"/>
<path d="M21.6994 29.3846C25.9134 29.3846 29.3295 26.1039 29.3295 22.0569C29.3295 18.01 25.9134 14.7292 21.6994 14.7292C17.4854 14.7292 14.0693 18.01 14.0693 22.0569C14.0693 26.1039 17.4854 29.3846 21.6994 29.3846Z" stroke="#0C1A4C" stroke-width="1.79688" stroke-miterlimit="10" stroke-linecap="round" stroke-linejoin="round"/>
<path d="M39.9468 0H14.3214C12.9035 0 11.7539 1.10391 11.7539 2.46576V5.08471H28.6879L37.0795 13.1314V40.0169H39.9468C41.3647 40.0169 42.5143 38.913 42.5143 37.5512V2.46576C42.5142 1.10391 41.3647 0 39.9468 0Z" fill="#8ECBF1"/>
<path d="M28.688 10.6672C28.688 12.0281 29.8386 13.1314 31.2579 13.1314H37.0797L28.688 5.08472V10.6672Z" stroke="#0C1A4C" stroke-width="1.79688" stroke-miterlimit="10" stroke-linecap="round" stroke-linejoin="round"/>
<path d="M28.688 5.08472H8.88929C7.46993 5.08472 6.31934 6.188 6.31934 7.54895V42.6373C6.31943 43.9983 7.47002 45.1016 8.88929 45.1016H34.5098C35.9291 45.1016 37.0797 43.9983 37.0797 42.6373V13.1314L28.688 5.08472Z" stroke="#0C1A4C" stroke-width="1.79688" stroke-miterlimit="10" stroke-linecap="round" stroke-linejoin="round"/>
<path d="M15.7261 38.0442V38.9063" stroke="#0C1A4C" stroke-width="1.79688" stroke-miterlimit="10" stroke-linecap="round" stroke-linejoin="round"/>
<path d="M19.7085 36.2473V38.9063" stroke="#0C1A4C" stroke-width="1.79688" stroke-miterlimit="10" stroke-linecap="round" stroke-linejoin="round"/>
<path d="M23.6909 34.4504V38.9063" stroke="#0C1A4C" stroke-width="1.79688" stroke-miterlimit="10" stroke-linecap="round" stroke-linejoin="round"/>
<path d="M27.6729 32.6536V38.9063" stroke="#0C1A4C" stroke-width="1.79688" stroke-miterlimit="10" stroke-linecap="round" stroke-linejoin="round"/>
</svg>
