<svg width="117" height="117" viewBox="0 0 117 117" fill="none" xmlns="http://www.w3.org/2000/svg">
<path d="M58.5 5.02734C27.5796 5.02734 2.51367 30.0932 2.51367 61.0137C2.51367 72.6316 6.05292 83.4224 12.1113 92.3681V81.8086C12.1113 80.0445 13.5464 78.6094 15.3105 78.6094H84.7793C86.5434 78.6094 87.9785 80.0445 87.9785 81.8086V102.164C87.9785 103.928 86.5434 105.364 84.7793 105.364H24.3321C33.7863 112.658 45.6353 117 58.5 117C89.4204 117 114.486 91.9341 114.486 61.0137C114.486 30.0932 89.4204 5.02734 58.5 5.02734Z" fill="#CCE6F6"/>
<path d="M39.0408 39.4475C39.0408 37.645 40.5071 36.1784 42.3097 36.1784H47.2595V24.9338C47.2595 23.9617 47.3178 23.0031 47.4277 22.0598C46.9268 21.836 46.3731 21.709 45.789 21.709H10.8831C8.65869 21.7092 6.85547 23.5124 6.85547 25.7368V60.6426C6.85547 62.8669 8.65869 64.6702 10.8831 64.6702H39.0408V39.4475Z" fill="#FF9028"/>
<path d="M25.4479 51.2826C24.8062 50.9457 24.3679 50.2741 24.3679 49.4992V46.8663C24.3679 44.8386 26.0175 43.1892 28.0449 43.1892C31.0467 43.1892 33.4889 40.7471 33.4889 37.7453V37.6018C33.4889 34.7607 31.1774 32.4492 28.3361 32.4492C28.0171 32.4492 27.7054 32.4798 27.4021 32.5356C29.799 32.9764 31.621 35.0797 31.621 37.602V37.7455C31.621 40.7473 29.1791 43.1895 26.177 43.1895C24.1497 43.1895 22.5 44.8389 22.5 46.8665V49.4995C22.5 50.6116 23.4015 51.5131 24.5137 51.5131C24.8512 51.5131 25.1686 51.4293 25.4479 51.2826Z" fill="#E67E1F"/>
<path d="M19.155 38.1729V37.6025C19.155 32.8555 22.7765 28.9388 27.4014 28.4692C27.0943 28.4381 26.7828 28.4219 26.4675 28.4219C21.4054 28.4219 17.2871 32.5402 17.2871 37.6023V38.1726C17.2871 39.2848 18.1886 40.1863 19.3008 40.1863C19.6381 40.1863 19.9555 40.1025 20.2347 39.9557C19.5933 39.6194 19.155 38.9478 19.155 38.1729Z" fill="#E67E1F"/>
<path d="M24.3677 55.9435V55.675C24.3677 54.9001 24.806 54.2285 25.4476 53.8917C25.1684 53.7452 24.851 53.6611 24.5137 53.6611C23.4015 53.6611 22.5 54.5629 22.5 55.6748V55.9433C22.5 57.0555 23.4015 57.957 24.5137 57.957C24.851 57.957 25.1684 57.8731 25.4476 57.7264C24.806 57.3903 24.3677 56.7184 24.3677 55.9435Z" fill="#E67E1F"/>
<path d="M26.3821 51.5134C25.2697 51.5134 24.3685 50.6117 24.3685 49.4997V46.8667C24.3685 44.8391 26.0181 43.1897 28.0455 43.1897C31.0473 43.1897 33.4892 40.7476 33.4892 37.7458V37.6023C33.4892 34.7609 31.1778 32.4495 28.3364 32.4495C25.495 32.4495 23.1836 34.7609 23.1836 37.6023V38.1726C23.1836 39.2848 22.2821 40.1863 21.1699 40.1863C20.0575 40.1863 19.1562 39.2846 19.1562 38.1726V37.6023C19.1562 32.5402 23.2746 28.4219 28.3366 28.4219C33.3987 28.4219 37.517 32.5402 37.517 37.6023V37.7458C37.517 42.851 33.4572 47.0258 28.3963 47.2109V49.4997C28.3958 50.6117 27.4946 51.5134 26.3821 51.5134Z" fill="white"/>
<path d="M26.3828 57.958C25.2704 57.958 24.3691 57.0563 24.3691 55.9443V55.6758C24.3691 54.5636 25.2706 53.6621 26.3828 53.6621C27.495 53.6621 28.3965 54.5638 28.3965 55.6758V55.9443C28.3965 57.0563 27.4952 57.958 26.3828 57.958Z" fill="white"/>
<path d="M85.6523 78.7334C86.9928 79.1148 87.9784 80.3474 87.9784 81.8085V91.6347H101.62C103.551 91.6347 105.117 90.0689 105.117 88.1373V78.7336H85.6523V78.7334Z" fill="#0678BE"/>
<path d="M57.1401 36.1781V24.9336C57.1401 16.7591 63.7906 10.1086 71.965 10.1086C80.1395 10.1086 86.79 16.7591 86.79 24.9336V36.1781H96.8988V24.9336C96.8988 11.1852 85.7135 0 71.965 0C58.2166 0 47.0312 11.1852 47.0312 24.9336V36.1781H57.1401Z" fill="#136598"/>
<path d="M101.62 35.9492H42.3099C40.3783 35.9492 38.8125 37.5152 38.8125 39.4467V78.609H84.7796C85.3031 78.609 85.7962 78.7379 86.2329 78.9618H105.117V39.4469C105.117 37.5152 103.551 35.9492 101.62 35.9492Z" fill="#1D98E4"/>
<path d="M70.9223 76.1723C67.708 76.1723 65.0931 73.5573 65.0931 70.343V62.8187C62.26 60.5313 60.7474 56.9886 61.0964 53.2866C61.5911 48.039 65.9331 43.8078 71.1963 43.4445C71.4513 43.4269 71.7096 43.418 71.9641 43.418C77.9841 43.418 82.8815 48.3153 82.8815 54.3353C82.8815 57.6714 81.3899 60.7573 78.8351 62.8189V70.343C78.8351 73.5573 76.2202 76.1723 73.0059 76.1723H70.9223Z" fill="#0678BE"/>
<path d="M79.3845 54.3349C79.3845 50.0628 75.7739 46.6339 71.4376 46.9333C67.8518 47.181 64.9162 50.0358 64.579 53.6146C64.3011 56.5615 65.7494 59.194 68.0289 60.6234C68.3728 60.8391 68.591 61.2077 68.591 61.6138V70.3426C68.591 71.6303 69.6349 72.6744 70.9228 72.6744H73.0068C74.2945 72.6744 75.3386 71.6305 75.3386 70.3426V61.6202C75.3386 61.2109 75.5578 60.8389 75.9044 60.6211C77.9942 59.3088 79.3845 56.985 79.3845 54.3349Z" fill="#68BAED"/>
<path d="M84.7793 78.3809H15.3105C13.4175 78.3809 11.8828 79.9156 11.8828 81.8086V92.0237C15.3503 97.2259 19.6649 101.814 24.6303 105.592H84.7793C86.6723 105.592 88.207 104.057 88.207 102.164V81.8086C88.207 79.9156 86.6723 78.3809 84.7793 78.3809Z" fill="#FFC700"/>
<path d="M25.0759 89.6113V86.4512C25.0759 86.0588 25.2415 85.706 25.5057 85.456C25.2601 85.2236 24.9294 85.0801 24.5645 85.0801C23.8074 85.0801 23.1934 85.6941 23.1934 86.4512V88.5245L25.0759 89.6113Z" fill="#DBAB00"/>
<path d="M27.8184 89.6114L30.2703 88.1958C29.8407 87.8128 29.1984 87.7278 28.6728 88.0313L27.8184 88.5246V89.6114Z" fill="#DBAB00"/>
<path d="M27.8184 94.3613V95.4481L28.6728 95.9415C28.8887 96.066 29.1246 96.1255 29.357 96.1255C29.6904 96.1255 30.0158 96.0014 30.2687 95.7763L27.8184 94.3613Z" fill="#DBAB00"/>
<path d="M20.4666 95.4396C20.0882 94.7837 20.3126 93.9453 20.9685 93.5667L23.7052 91.9865L20.9685 90.4063C20.3126 90.0276 20.088 89.189 20.4666 88.5334C20.5418 88.4031 20.6357 88.2907 20.742 88.1959L20.4573 88.0316C19.801 87.6529 18.9628 87.8778 18.5843 88.5334C18.2059 89.1892 18.4303 90.0276 19.0862 90.4063L21.8229 91.9865L19.0862 93.5667C18.4303 93.9453 18.2057 94.784 18.5843 95.4396C18.8382 95.8795 19.2991 96.1254 19.7731 96.1254C20.0057 96.1254 20.2415 96.0662 20.4573 95.9414L20.7438 95.776C20.6371 95.6811 20.542 95.5701 20.4666 95.4396Z" fill="#DBAB00"/>
<path d="M25.0756 97.5205V94.3604L23.1934 95.4472V97.5205C23.1934 98.2776 23.8074 98.8916 24.5645 98.8916C24.9294 98.8916 25.2601 98.7481 25.5057 98.5157C25.2415 98.2659 25.0756 97.9129 25.0756 97.5205Z" fill="#DBAB00"/>
<path d="M36.1971 95.4388C35.8187 94.783 36.0431 93.9446 36.6989 93.5659L39.4356 91.9857L36.6989 90.4055C36.0431 90.0269 35.8184 89.1883 36.1971 88.5326C36.2723 88.4024 36.3662 88.29 36.4725 88.1951L36.1877 88.0306C35.5314 87.6519 34.6935 87.8768 34.3148 88.5324C33.9364 89.1882 34.1608 90.0267 34.8166 90.4053L37.5533 91.9855L34.8166 93.5657C34.1608 93.9443 33.9362 94.783 34.3148 95.4386C34.5687 95.8785 35.0296 96.1244 35.5036 96.1244C35.7362 96.1244 35.972 96.0652 36.1877 95.9404L36.4743 95.775C36.3676 95.6804 36.2725 95.5693 36.1971 95.4388Z" fill="#DBAB00"/>
<path d="M43.5488 89.6114L46.0008 88.1958C45.5712 87.8128 44.9288 87.7278 44.4032 88.0313L43.5488 88.5246V89.6114Z" fill="#DBAB00"/>
<path d="M40.8063 89.6113V86.4512C40.8063 86.0588 40.972 85.706 41.2362 85.456C40.9905 85.2236 40.6599 85.0801 40.2949 85.0801C39.5378 85.0801 38.9238 85.6941 38.9238 86.4512V88.5245L40.8063 89.6113Z" fill="#DBAB00"/>
<path d="M40.8061 97.5205V94.3604L38.9238 95.4472V97.5205C38.9238 98.2776 39.5378 98.8916 40.2949 98.8916C40.6599 98.8916 40.9905 98.7481 41.2362 98.5157C40.9718 98.2659 40.8061 97.9129 40.8061 97.5205Z" fill="#DBAB00"/>
<path d="M43.5488 94.3613V95.4481L44.4032 95.9415C44.6192 96.066 44.855 96.1255 45.0874 96.1255C45.4208 96.1255 45.7462 96.0014 45.9992 95.7763L43.5488 94.3613Z" fill="#DBAB00"/>
<path d="M59.2812 89.6114L61.7332 88.1957C61.3036 87.8127 60.6613 87.7277 60.1357 88.0314L59.2812 88.5248V89.6114Z" fill="#DBAB00"/>
<path d="M56.5388 89.6113V86.4512C56.5388 86.0588 56.7044 85.706 56.9686 85.456C56.7229 85.2236 56.3923 85.0801 56.0273 85.0801C55.2703 85.0801 54.6562 85.6941 54.6562 86.4512V88.5245L56.5388 89.6113Z" fill="#DBAB00"/>
<path d="M51.9295 95.4388C51.5511 94.783 51.7755 93.9446 52.4313 93.5659L55.168 91.9857L52.4313 90.4055C51.7755 90.0269 51.5509 89.1883 51.9295 88.5326C52.0047 88.4024 52.0986 88.29 52.2049 88.1951L51.9202 88.0306C51.2639 87.6519 50.4259 87.8768 50.0472 88.5324C49.6688 89.1882 49.8932 90.0267 50.5491 90.4053L53.2858 91.9855L50.5491 93.5657C49.8932 93.9443 49.6686 94.783 50.0472 95.4386C50.3011 95.8785 50.762 96.1244 51.236 96.1244C51.4686 96.1244 51.7044 96.0652 51.9202 95.9404L52.2067 95.775C52.1 95.6804 52.0049 95.5693 51.9295 95.4388Z" fill="#DBAB00"/>
<path d="M59.2812 94.3613V95.4481L60.1357 95.9415C60.3516 96.066 60.5874 96.1255 60.8198 96.1255C61.1533 96.1255 61.4787 96.0014 61.7316 95.7763L59.2812 94.3613Z" fill="#DBAB00"/>
<path d="M56.5385 97.5205V94.3604L54.6562 95.4472V97.5205C54.6562 98.2776 55.2703 98.8916 56.0273 98.8916C56.3923 98.8916 56.7229 98.7481 56.9686 98.5157C56.7042 98.2659 56.5385 97.9129 56.5385 97.5205Z" fill="#DBAB00"/>
<path d="M75.0117 89.6114L77.4637 88.1957C77.0341 87.8127 76.3917 87.7277 75.8661 88.0314L75.0117 88.5248V89.6114Z" fill="#DBAB00"/>
<path d="M72.2692 89.6113V86.4512C72.2692 86.0588 72.4349 85.706 72.6991 85.456C72.4534 85.2236 72.1228 85.0801 71.7578 85.0801C71.0007 85.0801 70.3867 85.6941 70.3867 86.4512V88.5245L72.2692 89.6113Z" fill="#DBAB00"/>
<path d="M75.0117 94.3613V95.4481L75.8661 95.9415C76.0821 96.066 76.3179 96.1255 76.5503 96.1255C76.8837 96.1255 77.2091 96.0014 77.4621 95.7763L75.0117 94.3613Z" fill="#DBAB00"/>
<path d="M72.269 97.5205V94.3604L70.3867 95.4472V97.5205C70.3867 98.2776 71.0007 98.8916 71.7578 98.8916C72.1228 98.8916 72.4534 98.7481 72.6991 98.5157C72.4347 98.2659 72.269 97.9129 72.269 97.5205Z" fill="#DBAB00"/>
<path d="M67.66 95.4388C67.2816 94.783 67.506 93.9446 68.1618 93.5659L70.8985 91.9857L68.1618 90.4055C67.506 90.0269 67.2813 89.1883 67.66 88.5326C67.7352 88.4024 67.8291 88.29 67.9353 88.1951L67.6506 88.0306C66.9943 87.6519 66.1564 87.8768 65.7777 88.5324C65.3993 89.1882 65.6237 90.0267 66.2795 90.4053L69.0162 91.9855L66.2795 93.5657C65.6237 93.9443 65.3991 94.783 65.7777 95.4386C66.0316 95.8785 66.4925 96.1244 66.9664 96.1244C67.1991 96.1244 67.4349 96.0652 67.6506 95.9404L67.937 95.775C67.8305 95.6804 67.7354 95.5693 67.66 95.4388Z" fill="#DBAB00"/>
<path d="M32.429 88.533C32.0506 87.8773 31.2117 87.6523 30.5561 88.0311L27.8192 89.6113V86.4512C27.8192 85.6941 27.2052 85.0801 26.4481 85.0801C25.691 85.0801 25.077 85.6941 25.077 86.4512V89.6113L22.3401 88.0311C21.6838 87.6525 20.8456 87.8773 20.4672 88.533C20.0887 89.1888 20.3131 90.0272 20.969 90.4059L23.7057 91.9861L20.969 93.5662C20.3131 93.9449 20.0885 94.7835 20.4672 95.4391C20.721 95.879 21.182 96.1249 21.6559 96.1249C21.8885 96.1249 22.1244 96.0657 22.3401 95.941L25.077 94.3608V97.5209C25.077 98.278 25.691 98.892 26.4481 98.892C27.2052 98.892 27.8192 98.278 27.8192 97.5209V94.3608L30.5561 95.941C30.7721 96.0655 31.0079 96.1249 31.2403 96.1249C31.7142 96.1249 32.1752 95.879 32.429 95.4391C32.8075 94.7833 32.5831 93.9449 31.9272 93.5662L29.1905 91.9861L31.9272 90.4059C32.5831 90.0272 32.8075 89.1888 32.429 88.533Z" fill="white"/>
<path d="M48.1595 88.533C47.7811 87.8773 46.9422 87.6523 46.2866 88.0311L43.5497 89.6113V86.4512C43.5497 85.6941 42.9356 85.0801 42.1786 85.0801C41.4215 85.0801 40.8075 85.6941 40.8075 86.4512V89.6113L38.0705 88.0311C37.4142 87.6525 36.5763 87.8773 36.1976 88.533C35.8192 89.1888 36.0436 90.0272 36.6994 90.4059L39.4362 91.9861L36.6994 93.5662C36.0436 93.9449 35.819 94.7835 36.1976 95.4391C36.4515 95.879 36.9124 96.1249 37.3864 96.1249C37.619 96.1249 37.8548 96.0657 38.0705 95.941L40.8075 94.3608V97.5209C40.8075 98.278 41.4215 98.892 42.1786 98.892C42.9356 98.892 43.5497 98.278 43.5497 97.5209V94.3608L46.2866 95.941C46.5025 96.0655 46.7384 96.1249 46.9708 96.1249C47.4447 96.1249 47.9056 95.879 48.1595 95.4391C48.5379 94.7833 48.3135 93.9449 47.6577 93.5662L44.921 91.9861L47.6577 90.4059C48.3135 90.0272 48.5379 89.1888 48.1595 88.533Z" fill="white"/>
<path d="M63.8919 88.533C63.5135 87.8773 62.6749 87.6523 62.019 88.0311L59.2821 89.6113V86.4512C59.2821 85.6941 58.6681 85.0801 57.911 85.0801C57.1539 85.0801 56.5399 85.6941 56.5399 86.4512V89.6113L53.803 88.0311C53.1467 87.6525 52.3087 87.8773 51.9301 88.533C51.5516 89.1888 51.776 90.0272 52.4319 90.4059L55.1686 91.9861L52.4319 93.5662C51.776 93.9449 51.5514 94.7835 51.9301 95.4391C52.1839 95.879 52.6448 96.1249 53.1188 96.1249C53.3514 96.1249 53.5872 96.0657 53.803 95.941L56.5399 94.3608V97.5209C56.5399 98.278 57.1539 98.892 57.911 98.892C58.6681 98.892 59.2821 98.278 59.2821 97.5209V94.3608L62.019 95.941C62.235 96.0655 62.4708 96.1249 62.7032 96.1249C63.1771 96.1249 63.638 95.879 63.8919 95.4391C64.2703 94.7833 64.046 93.9449 63.3901 93.5662L60.6534 91.9861L63.3901 90.4059C64.046 90.0272 64.2703 89.1888 63.8919 88.533Z" fill="white"/>
<path d="M79.1206 93.5662L76.3839 91.9861L79.1206 90.4059C79.7764 90.0272 80.001 89.1886 79.6224 88.533C79.244 87.8773 78.4053 87.6523 77.7495 88.0311L75.0126 89.6113V86.4512C75.0126 85.6941 74.3985 85.0801 73.6415 85.0801C72.8844 85.0801 72.2704 85.6941 72.2704 86.4512V89.6113L69.5334 88.0311C68.8771 87.6525 68.0392 87.8773 67.6605 88.533C67.2821 89.1888 67.5065 90.0272 68.1623 90.4059L70.899 91.9861L68.1623 93.5662C67.5065 93.9449 67.2819 94.7835 67.6605 95.4391C67.9144 95.879 68.3753 96.1249 68.8493 96.1249C69.0819 96.1249 69.3177 96.0657 69.5334 95.941L72.2704 94.3608V97.5209C72.2704 98.278 72.8844 98.892 73.6415 98.892C74.3985 98.892 75.0126 98.278 75.0126 97.5209V94.3608L77.7495 95.941C77.9654 96.0655 78.2013 96.1249 78.4337 96.1249C78.9076 96.1249 79.3685 95.879 79.6224 95.4391C80.001 94.7833 79.7764 93.9449 79.1206 93.5662Z" fill="white"/>
</svg>
