<svg width="117" height="117" viewBox="0 0 117 117" fill="none" xmlns="http://www.w3.org/2000/svg">
<g clip-path="url(#clip0_826_20438)">
<path d="M58.5 117C89.4204 117 114.486 91.9341 114.486 61.0137C114.486 30.0933 89.4204 5.02734 58.5 5.02734C27.5796 5.02734 2.51367 30.0933 2.51367 61.0137C2.51367 91.9341 27.5796 117 58.5 117Z" fill="#CCE6F6"/>
<path d="M35.7461 22.9827C35.7461 21.2558 35.9406 19.5735 36.3067 17.9558C33.3312 19.4869 30.5072 21.3271 27.8927 23.4603C19.4068 30.3848 13.4624 40.0599 11.1549 50.7035C10.8875 51.9368 11.6706 53.1534 12.9039 53.421C14.1368 53.6886 15.3541 52.9054 15.6215 51.6719C17.7105 42.0356 23.0948 33.2741 30.7823 27.0016C32.3577 25.7162 34.0181 24.5494 35.7461 23.5028V22.9827Z" fill="#1D98E4"/>
<path d="M109.859 54.7744H106.545C104.473 38.7249 94.5143 25.1133 80.6953 17.9603C81.0609 19.5766 81.2549 21.2573 81.2549 22.9826V23.5146C92.2175 30.1925 100.038 41.5402 101.93 54.7744H98.9857C97.9233 54.7744 97.3148 55.9853 97.9487 56.8379L103.385 64.1488C103.902 64.8437 104.943 64.8437 105.459 64.1488L110.896 56.8379C111.53 55.9851 110.922 54.7744 109.859 54.7744Z" fill="#1D98E4"/>
<path d="M100.89 56.8378C100.256 55.9852 100.865 54.7743 101.927 54.7743H98.985C97.9226 54.7743 97.3141 55.9852 97.948 56.8378L103.385 64.1487C103.901 64.8436 104.942 64.8436 105.459 64.1487L105.893 63.5651L100.89 56.8378Z" fill="#43A9E8"/>
<path d="M19.6524 81.3852C17.37 77.0493 15.7907 72.288 15.0707 67.2529H18.1092C19.1716 67.2529 19.7802 66.042 19.1463 65.1894L13.7096 57.8785C13.193 57.1836 12.1523 57.1836 11.6356 57.8785L6.19901 65.1894C5.56511 66.042 6.17342 67.2529 7.23602 67.2529H10.4556C11.5433 75.6748 14.804 83.424 19.6524 89.9228V81.3852Z" fill="#1D98E4"/>
<path d="M9.16972 65.1897L14.158 58.4817L13.7096 57.8789C13.193 57.1839 12.1523 57.1839 11.6356 57.8789L6.19901 65.1897C5.56511 66.0423 6.17342 67.2532 7.23602 67.2532H10.2067C9.14435 67.253 8.53581 66.0423 9.16972 65.1897Z" fill="#43A9E8"/>
<path d="M104.096 68.6066C102.863 68.3399 101.646 69.1223 101.379 70.3556C100.543 74.2134 99.1767 77.9305 97.3477 81.4042V89.9456C101.455 84.4302 104.382 78.0724 105.845 71.3239C106.113 70.0906 105.33 68.8739 104.096 68.6066Z" fill="#1D98E4"/>
<path d="M81.6975 98.2551C74.7767 102.561 66.7172 104.889 58.5004 104.889C50.0003 104.889 42.0587 102.457 35.3308 98.2551H27.5537C35.9528 105.247 46.7433 109.459 58.5004 109.459C69.6303 109.459 80.5001 105.591 89.1078 98.5673C89.2337 98.4644 89.3574 98.3591 89.4821 98.2551H81.6975Z" fill="#1D98E4"/>
<path d="M44.8353 33.3653V22.9827C44.8353 15.4479 50.9652 9.31772 58.5003 9.31772C66.0354 9.31772 72.1653 15.4479 72.1653 22.9827V33.3653H81.483V22.9827C81.483 10.3099 71.1731 0 58.5003 0C45.8275 0 35.5176 10.3099 35.5176 22.9827V33.3653H44.8353Z" fill="#136598"/>
<path d="M85.8345 33.1368H31.1653C29.3847 33.1368 27.9414 34.5801 27.9414 36.3607V72.3526H89.0584V36.3607C89.0584 34.5801 87.6151 33.1368 85.8345 33.1368Z" fill="#1D98E4"/>
<path d="M57.5392 70.2121C54.5765 70.2121 52.1661 67.8017 52.1661 64.839V57.9034C49.5546 55.7948 48.1604 52.5293 48.4822 49.1172C48.9383 44.2802 52.9405 40.3801 57.7919 40.0451C58.0271 40.0289 58.2649 40.0206 58.4996 40.0206C64.0487 40.0206 68.5628 44.535 68.5628 50.0838C68.5628 53.1589 67.188 56.0032 64.8332 57.9036V64.839C64.8332 67.8017 62.4228 70.2121 59.4601 70.2121H57.5392Z" fill="#0678BE"/>
<path d="M65.3395 50.0838C65.3395 46.146 62.0114 42.9854 58.0146 43.2614C54.7094 43.4897 52.0035 46.1213 51.6925 49.4199C51.4363 52.1363 52.7713 54.5629 54.8725 55.8803C55.1897 56.0791 55.3906 56.4189 55.3906 56.793V64.839C55.3906 66.0259 56.3529 66.9882 57.5398 66.9882H59.4607C60.6476 66.9882 61.6099 66.0259 61.6099 64.839V56.7989C61.6099 56.4217 61.8119 56.0786 62.1313 55.878C64.0579 54.6685 65.3395 52.5264 65.3395 50.0838Z" fill="#68BAED"/>
<path d="M94.1484 98.4837H22.8516C20.9585 98.4837 19.4238 96.9489 19.4238 95.0559V75.5519C19.4238 73.6589 20.9585 72.1241 22.8516 72.1241H94.1484C96.0415 72.1241 97.5762 73.6589 97.5762 75.5519V95.0559C97.5762 96.9489 96.0415 98.4837 94.1484 98.4837Z" fill="#FFC700"/>
<path d="M39.6133 82.929L41.3731 81.913C40.9435 81.523 40.2954 81.4348 39.7659 81.7405L39.6133 81.8287V82.929Z" fill="#DBAB00"/>
<path d="M36.8707 82.929V80.552C36.8707 80.1654 37.0313 79.8166 37.2888 79.5676C37.0421 79.3288 36.7064 79.1809 36.3359 79.1809C35.5789 79.1809 34.9648 79.7949 34.9648 80.552V81.8287L36.8707 82.929Z" fill="#DBAB00"/>
<path d="M39.6133 87.6787V88.779L39.7659 88.8672C39.9819 88.9918 40.2177 89.0512 40.4503 89.0512C40.7876 89.0512 41.1171 88.9244 41.3713 88.6938L39.6133 87.6787Z" fill="#DBAB00"/>
<path d="M36.8707 90.0557V87.6787L34.9648 88.779V90.0557C34.9648 90.8128 35.5789 91.4268 36.3359 91.4268C36.7066 91.4268 37.0421 91.2792 37.2888 91.0402C37.0313 90.7911 36.8707 90.4424 36.8707 90.0557Z" fill="#DBAB00"/>
<path d="M32.9394 88.3654C32.5607 87.7096 32.7856 86.871 33.4412 86.4925L35.4997 85.304L33.4412 84.1155C32.7854 83.7369 32.5607 82.8982 32.9394 82.2426C33.0123 82.1162 33.1028 82.0063 33.2052 81.9131L32.9065 81.7405C32.2509 81.3619 31.412 81.5868 31.0336 82.2424C30.6551 82.898 30.8798 83.7366 31.5354 84.1153L33.5939 85.3038L31.5354 86.4923C30.8795 86.871 30.6549 87.7096 31.0336 88.3652C31.2874 88.8051 31.7484 89.051 32.2223 89.051C32.4549 89.051 32.6908 88.9918 32.9067 88.867L33.2072 88.6936C33.1041 88.6006 33.0125 88.492 32.9394 88.3654Z" fill="#DBAB00"/>
<path d="M50.3755 82.929V80.552C50.3755 80.1654 50.5362 79.8166 50.7937 79.5676C50.5469 79.3288 50.2112 79.1809 49.8408 79.1809C49.0837 79.1809 48.4697 79.7949 48.4697 80.552V81.8287L50.3755 82.929Z" fill="#DBAB00"/>
<path d="M53.1182 82.929L54.878 81.913C54.4484 81.523 53.8003 81.4348 53.2708 81.7405L53.1182 81.8287V82.929Z" fill="#DBAB00"/>
<path d="M53.1182 87.6787V88.779L53.2708 88.8672C53.4868 88.9918 53.7226 89.0512 53.9552 89.0512C54.2925 89.0512 54.622 88.9244 54.8761 88.6938L53.1182 87.6787Z" fill="#DBAB00"/>
<path d="M50.3755 90.0557V87.6787L48.4697 88.779V90.0557C48.4697 90.8128 49.0837 91.4268 49.8408 91.4268C50.2115 91.4268 50.5469 91.2792 50.7937 91.0402C50.5362 90.7911 50.3755 90.4424 50.3755 90.0557Z" fill="#DBAB00"/>
<path d="M46.4443 88.3654C46.0656 87.7096 46.2905 86.871 46.9461 86.4925L49.0046 85.304L46.9461 84.1155C46.2902 83.7369 46.0656 82.8982 46.4443 82.2426C46.5172 82.1162 46.6077 82.0063 46.71 81.9131L46.4114 81.7405C45.7558 81.3619 44.9171 81.5868 44.5384 82.2424C44.1598 82.8982 44.3847 83.7366 45.0403 84.1153L47.0987 85.3038L45.0403 86.4923C44.3844 86.871 44.1598 87.7096 44.5384 88.3652C44.7923 88.8051 45.2532 89.051 45.7272 89.051C45.9598 89.051 46.1956 88.9918 46.4116 88.867L46.7121 88.6936C46.609 88.6006 46.5174 88.492 46.4443 88.3654Z" fill="#DBAB00"/>
<path d="M63.8814 82.929V80.552C63.8814 80.1654 64.0421 79.8166 64.2996 79.5676C64.0528 79.3288 63.7171 79.1809 63.3467 79.1809C62.5896 79.1809 61.9756 79.7949 61.9756 80.552V81.8287L63.8814 82.929Z" fill="#DBAB00"/>
<path d="M59.9501 88.3654C59.5715 87.7096 59.7963 86.871 60.4519 86.4925L62.5104 85.304L60.4519 84.1155C59.7961 83.7369 59.5715 82.8982 59.9501 82.2426C60.023 82.1162 60.1135 82.0063 60.2159 81.9131L59.9172 81.7405C59.2614 81.3619 58.423 81.5868 58.0443 82.2424C57.6657 82.8982 57.8905 83.7366 58.5461 84.1153L60.6046 85.3038L58.5461 86.4923C57.8903 86.871 57.6657 87.7096 58.0443 88.3652C58.2982 88.8051 58.7591 89.051 59.233 89.051C59.4657 89.051 59.7015 88.9918 59.9174 88.867L60.2179 88.6936C60.1151 88.6006 60.0233 88.492 59.9501 88.3654Z" fill="#DBAB00"/>
<path d="M66.624 82.929L68.3841 81.913C67.9544 81.523 67.3064 81.4348 66.7769 81.7405L66.624 81.8287V82.929Z" fill="#DBAB00"/>
<path d="M66.624 87.6787V88.779L66.7769 88.8672C66.9928 88.9918 67.2287 89.0512 67.4613 89.0512C67.7986 89.0512 68.1281 88.9244 68.3822 88.6938L66.624 87.6787Z" fill="#DBAB00"/>
<path d="M63.8814 90.0557V87.6787L61.9756 88.779V90.0557C61.9756 90.8128 62.5896 91.4268 63.3467 91.4268C63.7173 91.4268 64.0528 91.2792 64.2996 91.0402C64.0421 90.7911 63.8814 90.4424 63.8814 90.0557Z" fill="#DBAB00"/>
<path d="M77.3863 82.929V80.552C77.3863 80.1654 77.5469 79.8166 77.8045 79.5676C77.5577 79.3288 77.222 79.1809 76.8516 79.1809C76.0945 79.1809 75.4805 79.7949 75.4805 80.552V81.8287L77.3863 82.929Z" fill="#DBAB00"/>
<path d="M80.1289 82.929L81.8889 81.913C81.4593 81.523 80.8113 81.4348 80.2818 81.7405L80.1289 81.8287V82.929Z" fill="#DBAB00"/>
<path d="M80.1289 87.6787V88.779L80.2818 88.8672C80.4977 88.9918 80.7336 89.0512 80.9662 89.0512C81.3035 89.0512 81.633 88.9244 81.8871 88.6938L80.1289 87.6787Z" fill="#DBAB00"/>
<path d="M73.455 88.3655C73.0764 87.7096 73.3012 86.871 73.9568 86.4925L76.0153 85.304L73.9568 84.1155C73.301 83.7369 73.0764 82.8982 73.455 82.2426C73.5279 82.1162 73.6184 82.0063 73.7208 81.9133L73.4221 81.7408C72.7665 81.3621 71.9278 81.587 71.5492 82.2426C71.1705 82.8984 71.3954 83.7369 72.051 84.1155L74.1095 85.304L72.051 86.4925C71.3952 86.8712 71.1705 87.7098 71.5492 88.3655C71.8031 88.8054 72.264 89.0512 72.7379 89.0512C72.9706 89.0512 73.2064 88.9921 73.4223 88.8673L73.7228 88.6938C73.62 88.6006 73.5281 88.4921 73.455 88.3655Z" fill="#DBAB00"/>
<path d="M77.3863 90.0557V87.6787L75.4805 88.779V90.0557C75.4805 90.8128 76.0945 91.4268 76.8516 91.4268C77.2222 91.4268 77.5577 91.2792 77.8045 91.0402C77.5469 90.7911 77.3863 90.4424 77.3863 90.0557Z" fill="#DBAB00"/>
<path d="M43.545 82.2423C43.1663 81.5867 42.3277 81.3616 41.6721 81.7405L39.6136 82.929V80.552C39.6136 79.7949 38.9996 79.1809 38.2425 79.1809C37.4854 79.1809 36.8714 79.7949 36.8714 80.552V82.929L34.8127 81.7405C34.1571 81.3619 33.3182 81.5867 32.9398 82.2423C32.5614 82.8979 32.786 83.7366 33.4416 84.1152L35.5001 85.3038L33.4416 86.4923C32.7858 86.8709 32.5612 87.7096 32.9398 88.3652C33.1937 88.8051 33.6546 89.051 34.1286 89.051C34.3612 89.051 34.597 88.9918 34.813 88.867L36.8717 87.6785V90.0555C36.8717 90.8126 37.4857 91.4266 38.2428 91.4266C38.9998 91.4266 39.6138 90.8126 39.6138 90.0555V87.6785L41.6723 88.867C41.8883 88.9915 42.1241 89.051 42.3567 89.051C42.8304 89.051 43.2913 88.8051 43.5455 88.3652C43.9241 87.7093 43.6992 86.8707 43.0436 86.4923L40.9852 85.3038L43.0436 84.1152C43.6988 83.7368 43.9234 82.8982 43.545 82.2423Z" fill="white"/>
<path d="M57.0499 82.2423C56.6712 81.5867 55.8326 81.3616 55.177 81.7405L53.1185 82.929V80.552C53.1185 79.7949 52.5045 79.1809 51.7474 79.1809C50.9903 79.1809 50.3763 79.7949 50.3763 80.552V82.929L48.3176 81.7405C47.662 81.3619 46.8233 81.5867 46.4447 82.2423C46.066 82.8982 46.2909 83.7366 46.9465 84.1152L49.005 85.3038L46.9465 86.4923C46.2907 86.8709 46.066 87.7096 46.4447 88.3652C46.6986 88.8051 47.1595 89.051 47.6334 89.051C47.8661 89.051 48.1019 88.9918 48.3178 88.867L50.3765 87.6785V90.0555C50.3765 90.8126 50.9906 91.4266 51.7476 91.4266C52.5047 91.4266 53.1187 90.8126 53.1187 90.0555V87.6785L55.1772 88.867C55.3931 88.9915 55.629 89.051 55.8616 89.051C56.3353 89.051 56.7962 88.8051 57.0503 88.3652C57.429 87.7093 57.2041 86.8707 56.5485 86.4923L54.49 85.3038L56.5485 84.1152C57.2037 83.7368 57.4285 82.8982 57.0499 82.2423Z" fill="white"/>
<path d="M70.5557 82.2423C70.1771 81.5867 69.3384 81.3616 68.6828 81.7405L66.6241 82.929V80.552C66.6241 79.7949 66.0101 79.1809 65.253 79.1809C64.496 79.1809 63.8819 79.7949 63.8819 80.552V82.929L61.8235 81.7405C61.1676 81.3619 60.3292 81.5867 59.9506 82.2423C59.5719 82.8982 59.7968 83.7366 60.4524 84.1152L62.5108 85.3038L60.4524 86.4923C59.7965 86.8709 59.5719 87.7096 59.9506 88.3652C60.2044 88.8051 60.6654 89.051 61.1393 89.051C61.3719 89.051 61.6078 88.9918 61.8237 88.867L63.8822 87.6785V90.0555C63.8822 90.8126 64.4962 91.4266 65.2533 91.4266C66.0103 91.4266 66.6244 90.8126 66.6244 90.0555V87.6785L68.6831 88.867C68.899 88.9915 69.1348 89.051 69.3675 89.051C69.8412 89.051 70.3021 88.8051 70.5562 88.3652C70.9348 87.7093 70.71 86.8707 70.0544 86.4923L67.9959 85.3038L70.0544 84.1152C70.7095 83.7368 70.9344 82.8982 70.5557 82.2423Z" fill="white"/>
<path d="M83.5588 86.4925L81.5003 85.304L83.5588 84.1155C84.2146 83.7368 84.4393 82.8982 84.0606 82.2426C83.682 81.587 82.8433 81.3619 82.1877 81.7408L80.129 82.9293V80.5522C80.129 79.7952 79.515 79.1812 78.7579 79.1812C78.0008 79.1812 77.3868 79.7952 77.3868 80.5522V82.9293L75.3284 81.7408C74.6727 81.3621 73.8341 81.587 73.4554 82.2426C73.0768 82.8984 73.3016 83.7368 73.9573 84.1155L76.0157 85.304L73.9573 86.4925C73.3014 86.8712 73.0768 87.7098 73.4554 88.3654C73.7093 88.8053 74.1702 89.0512 74.6442 89.0512C74.8768 89.0512 75.1126 88.992 75.3286 88.8672L77.3871 87.6787V90.0557C77.3871 90.8128 78.0011 91.4268 78.7581 91.4268C79.5152 91.4268 80.1292 90.8128 80.1292 90.0557V87.6787L82.1879 88.8672C82.4039 88.9918 82.6397 89.0512 82.8723 89.0512C83.3461 89.0512 83.807 88.8053 84.0611 88.3654C84.4393 87.7096 84.2144 86.8709 83.5588 86.4925Z" fill="white"/>
</g>
<defs>
<clipPath id="clip0_826_20438">
<rect width="117" height="117" fill="white"/>
</clipPath>
</defs>
</svg>
