<svg xmlns="http://www.w3.org/2000/svg" width="128" height="53" fill="#1d98e4" xmlns:v="https://vecta.io/nano"><path d="M14.473 30.942c-.396 0-.748-.066-1.04-.149-.636-.191-1.78-.747-2.27-2.349-.172-.556-.249-1.021-.249-1.835 2.442-4.657 3.069-7.854 3.078-7.937l-3.173 6.833a21.44 21.44 0 0 1-1.04 1.619c-.567.797-2.296 3.196-4.978 3.196h-.06c-1.204-.017-2.339-.581-3.19-1.594C.476 27.438-.598 24.89.391 19.983 1.525 14.363 4.053 9.448 4.156 9.24c.662-1.27 2.261-1.785 3.577-1.154 1.315.639 1.848 2.183 1.195 3.454-.026.042-2.313 4.516-3.301 9.423-.301 1.511-.335 2.557-.267 3.263.12-.166.258-.357.395-.581.671-1.03 1.324-2.3 1.969-3.537.636-1.229 1.238-2.383 1.848-3.304.456-.689 1.659-2.515 3.723-2.515.963 0 1.848.382 2.493 1.079 1.35 1.461 1.195 3.827.851 6.824.653-1.038 1.333-2.175 1.995-3.287l2.055-3.379C26.175 6.8 32.245 1.055 32.503.814c1.057-.988 2.743-.971 3.766.05s1.006 2.648-.052 3.636c-.06.05-5.855 5.554-10.971 13.69-.653 1.038-1.333 2.175-1.995 3.279-1.307 2.183-2.648 4.433-3.886 6.094-.765 1.029-1.436 1.752-2.089 2.275-1.049.847-2.012 1.104-2.803 1.104z"/><path d="M32.546 30.941c-3.602 0-6.508-1.237-8.168-3.495-.989-1.337-1.9-3.52-1.324-6.758a2.45 2.45 0 0 1 .232-1.046l.413-1.32c1.634-4.558 5.52-6.094 8.649-5.604 3.087.49 5.253 2.748 5.279 5.504.026 2.781-1.72 4.981-4.66 5.894-1.238.382-2.536.515-4.144.415l.224.208c.722.623 1.952 1.054 3.499 1.054 4.101 0 6.861-3.055 6.887-3.088.946-1.088 2.631-1.229 3.757-.316s1.273 2.54.327 3.628c-.172.199-4.35 4.923-10.962 4.923zM29.03 19.376c.86.075 1.986.05 2.751-.34.49-.249.525-.465.525-.772 0-.141-.318-.39-.808-.465-.378-.058-1.548-.1-2.39 1.395l-.077.183zm39.841 11.565c-3.602 0-6.508-1.237-8.168-3.495-.989-1.337-1.9-3.52-1.324-6.758 0-.232.034-.465.095-.689 0 0 2.278-.789 3.284-.789.026 0-.671-.133-1.556-.008-.671.091-1.573.34-1.565.324l.378-1.204c1.634-4.558 5.52-6.094 8.649-5.604 3.087.49 5.253 2.748 5.279 5.504.026 2.781-1.719 4.981-4.66 5.894-1.281.399-2.743.54-4.196.415.653.814 1.995 1.262 3.774 1.262 4.093 0 6.861-3.055 6.887-3.088.946-1.088 2.631-1.229 3.757-.316a2.54 2.54 0 0 1 .928 2.341 2.57 2.57 0 0 1-.593 1.287c-.172.199-4.35 4.923-10.962 4.923h-.009zm-3.542-11.573c.877.108 1.986.067 2.768-.332.49-.249.525-.465.525-.772 0-.141-.318-.39-.808-.465-.387-.066-1.634-.108-2.485 1.569z"/><path d="M39.63 52.16a7.28 7.28 0 0 1-4.557-1.594c-1.857-1.469-3.069-3.827-3.327-6.459-.267-2.723.507-5.521 2.167-7.87 2.046-2.897 4.823-5.587 8.254-8.011.516-.365 1.057-.731 1.608-1.088-.722-.274-1.427-.664-2.063-1.162-2.132-1.669-3.044-4.242-2.571-7.239.499-3.13 1.986-5.878 4.428-8.177 1.9-1.785 3.852-2.798 4.797-3.279a5.9 5.9 0 0 0 .275-.141c1.247-.739 2.889-.365 3.663.838a2.69 2.69 0 0 1 .37.946 2.8 2.8 0 0 1 1.212-.34c1.444-.058 2.682 1.013 2.777 2.408.009.1.112 1.793-.034 4.026-.052 1.652-.163 3.728-.378 6.06 3.37-1.212 5.709-1.768 5.846-1.802 1.427-.332 2.872.515 3.216 1.901.344 1.378-.533 2.773-1.969 3.105-.077.017-3.43.822-7.815 2.623-1.608 10.261-4.651 17.675-9.07 22.042-1.84 1.818-3.8 2.872-5.829 3.146a8.16 8.16 0 0 1-.997.066zm13.825-24.424c-.034.017-2.064.938-3.938 2.017-4.11 2.366-8.357 5.38-11.194 9.381-2.141 3.03-1.281 6.326.138 7.447.438.349.903.482 1.436.407.576-.075 1.513-.423 2.743-1.644 3.499-3.454 5.554-9.066 6.809-14.877 0 .008 1.264-1.013 4.007-2.731zm-2.132-16.164c-.129.075-.275.149-.447.241-2.45 1.27-5.795 3.445-6.465 7.696-.275 1.735.43 2.283.662 2.466.894.697 2.424.756 3.387.407 1.161-.423 2.132-2.457 2.588-5.438.112-.697.181-1.386.224-2.026.052-1.611.052-2.781.052-3.346zm42.162 26.21a3.03 3.03 0 0 1-.473-.041c-1.444-.249-2.407-1.594-2.149-2.989.009-.066.404-2.167.971-5.255l1.892-1.411c1.333-1.038 2.149-2.167 2.149-2.167-1.247 1.237-3.886 2.74-3.886 2.74L95.841 6.6c.533-3.52 2.674-6.085 5.442-6.534 2.279-.365 4.454.805 5.666 3.072 1.479 2.74.361 6.733-3.499 12.544a78.13 78.13 0 0 1-4.858 6.459l-2.468 13.524c-.249 1.237-1.367 2.117-2.639 2.117zm8.555-32.543c-.353-.033-.739.847-.929 2.117l-.3 1.885c-.018.091-.121.797-.121.797 1.788-3.271 1.539-4.483 1.513-4.541-.008-.174-.086-.249-.163-.257z"/><path d="M83.753 30.941c-3.611 0-6.517-1.245-8.176-3.495-.989-1.337-1.9-3.52-1.324-6.749 0-.357.077-.722.232-1.046l.413-1.32c1.633-4.558 5.52-6.094 8.649-5.604 3.087.49 5.253 2.748 5.279 5.504.026 2.781-1.72 4.981-4.66 5.894-1.281.398-2.743.54-4.196.415.662.814 1.995 1.262 3.783 1.262 5.477 0 9.724-4.583 12.828-7.928 1.298-1.395 2.321-2.499 3.336-3.155 2.716-1.735 6.87-3.802 11.237-3.827h.017c1.479 0 2.674 1.146 2.682 2.557.009 1.42-1.178 2.582-2.648 2.59h-.017c-3.061.017-6.216 1.627-8.331 2.98-.447.282-1.436 1.353-2.304 2.291-1.711 1.843-3.835 4.134-6.526 6.052-3.327 2.366-6.784 3.578-10.274 3.578zm-3.542-11.573c.877.108 1.986.066 2.768-.332.49-.249.525-.465.525-.772 0-.141-.318-.39-.808-.465-.396-.066-1.642-.108-2.485 1.569z"/><path d="M117.731 34.868c-4.892 0-10.034-2.557-13.275-5.396-4.445-3.894-7.385-8.302-7.506-8.493-.791-1.195-.43-2.79.808-3.553s2.888-.415 3.679.78a42.9 42.9 0 0 0 6.595 7.455c2.682 2.358 7.419 4.541 10.91 3.96 1.573-.257 2.717-1.071 3.499-2.482.095-.166.147-.307.19-.415.584-1.353.361-3.968.352-3.835-.06 1.594-.576 3.088-.628 3.022-.507-.648-1.53-1.195-2.536-1.802-.602-.365-1.229-.747-1.788-1.146-2.287-1.652-3.25-4.408-2.408-6.866.946-2.748 3.783-4.392 7.592-4.392 1.47 0 2.665 1.154 2.665 2.574s-1.195 2.574-2.665 2.574c-1.539 0-2.381.44-2.536.872-.095.282.034.747.541 1.121.379.274.886.581 1.428.905 1.393.847 2.983 1.802 4.075 3.196 1.548 1.968 1.694 4.325.404 6.633-1.565 2.814-4.084 4.583-7.291 5.114a12.65 12.65 0 0 1-2.106.174zM72.499 10.427a1.82 1.82 0 0 1-1.272-.515 4.29 4.29 0 0 0-3.267-1.237c-1.101.058-2.21.523-2.949 1.237a1.85 1.85 0 0 1-2.553 0 1.7 1.7 0 0 1 0-2.466c1.376-1.328 3.31-2.15 5.305-2.25a7.99 7.99 0 0 1 6.018 2.25 1.7 1.7 0 0 1 0 2.466 1.82 1.82 0 0 1-1.281.515zm15.776-1.751a1.82 1.82 0 0 1-1.272-.515 4.29 4.29 0 0 0-3.267-1.237c-1.1.058-2.21.523-2.949 1.237a1.85 1.85 0 0 1-2.553 0 1.7 1.7 0 0 1 0-2.466c1.376-1.328 3.31-2.15 5.305-2.25 2.253-.116 4.393.681 6.018 2.25a1.7 1.7 0 0 1 0 2.466 1.86 1.86 0 0 1-1.281.515z"/></svg>