<svg width="89" height="81" viewBox="0 0 89 81" fill="none" xmlns="http://www.w3.org/2000/svg">
<rect y="13.2402" width="71.0278" height="67.1624" rx="5.01893" fill="#A4E9FC"/>
<rect x="7.45117" y="22.6943" width="27.2183" height="6.72529" rx="1.49995" fill="#11BBF1"/>
<rect x="7.45117" y="33.2627" width="27.2183" height="6.72529" rx="1.49995" fill="#11BBF1"/>
<rect x="7.45117" y="43.8311" width="27.2183" height="6.72529" rx="1.49995" fill="#11BBF1"/>
<rect x="7.45117" y="54.3994" width="27.2183" height="6.72529" rx="1.49995" fill="#11BBF1"/>
<rect x="7.45117" y="64.9678" width="27.2183" height="6.72529" rx="1.49995" fill="#11BBF1"/>
<rect x="36.5801" y="22.6943" width="27.2183" height="6.72529" rx="1.49995" fill="#11BBF1"/>
<rect x="36.5801" y="33.2627" width="27.2183" height="6.72529" rx="1.49995" fill="#11BBF1"/>
<rect x="36.5801" y="43.8311" width="27.2183" height="6.72529" rx="1.49995" fill="#11BBF1"/>
<rect x="36.5801" y="54.3994" width="27.2183" height="6.72529" rx="1.49995" fill="#11BBF1"/>
<rect x="36.5801" y="64.9678" width="27.2183" height="6.72529" rx="1.49995" fill="#11BBF1"/>
<rect x="17.877" width="71.0278" height="71.0278" rx="5.01893" fill="#EBF8FF"/>
<g clip-path="url(#clip0_671_18836)">
<path d="M36.7559 73.2029L36.7559 73.2029C36.2281 73.8125 35.2266 73.4397 35.2266 72.6326L35.2266 63.9415C35.2266 63.9414 35.2266 63.9414 35.2266 63.9414C35.2265 63.7763 35.2734 63.6145 35.3618 63.4751C35.4502 63.3356 35.5764 63.2241 35.7258 63.1536C35.8752 63.0831 36.0415 63.0566 36.2053 63.077C36.3692 63.0975 36.5238 63.1641 36.6512 63.2691L36.7559 73.2029ZM36.7559 73.2029L38.9438 70.6741C39.0078 70.6002 39.0869 70.541 39.1758 70.5004C39.2647 70.4598 39.3612 70.4388 39.4589 70.4388H39.4589H42.931C43.7477 70.4388 44.1155 69.4148 43.4848 68.8956C43.4847 68.8956 43.4847 68.8956 43.4847 68.8956L36.6513 63.2692L36.7559 73.2029Z" fill="#0A0A0A" stroke="white" stroke-width="0.499985"/>
</g>
<rect x="26" y="9" width="20.7769" height="3.38228" rx="0.966365" fill="#A4E9FC"/>
<rect x="26" y="18.1016" width="55.566" height="3.86546" rx="0.966365" fill="#A4E9FC"/>
<rect x="26" y="24.3828" width="55.566" height="3.38228" rx="0.966365" fill="#A4E9FC"/>
<rect x="26" y="36" width="56" height="17" rx="0.966365" fill="#A4E9FC"/>
<defs>
<clipPath id="clip0_671_18836">
<rect width="12.4178" height="12.4178" fill="white" transform="translate(32.373 62.042)"/>
</clipPath>
</defs>
</svg>
