<svg width="120" height="79" viewBox="0 0 120 79" fill="none" xmlns="http://www.w3.org/2000/svg">
<rect x="0.316406" y="12" width="52.2753" height="52.2753" rx="5.01893" fill="#A4E9FC"/>
<rect x="6.20508" y="30.3994" width="40.8956" height="2.84491" rx="0.966365" fill="#11BBF1"/>
<rect x="5.87695" y="40.918" width="40.8956" height="2.84491" rx="0.966365" fill="#11BBF1"/>
<rect x="18.7168" y="19.3594" width="17.6636" height="2.94393" rx="0.966365" fill="#11BBF1"/>
<rect x="6.20508" y="35.0225" width="40.8956" height="2.4893" rx="0.966365" fill="#11BBF1"/>
<rect x="5.87695" y="45.541" width="40.8956" height="2.4893" rx="0.966365" fill="#11BBF1"/>
<circle cx="10.989" cy="21.1999" r="4.78389" fill="#11BBF1"/>
<rect x="67.7246" y="12" width="52.2753" height="52.2753" rx="5.01893" fill="#A4E9FC"/>
<rect x="73.6133" y="30.3994" width="40.8956" height="2.84491" rx="0.966365" fill="#11BBF1"/>
<rect x="73.2852" y="40.918" width="40.8956" height="2.84491" rx="0.966365" fill="#11BBF1"/>
<rect x="86.125" y="19.3594" width="17.6636" height="2.94393" rx="0.966365" fill="#11BBF1"/>
<rect x="73.6133" y="35.0225" width="40.8956" height="2.4893" rx="0.966365" fill="#11BBF1"/>
<rect x="73.2852" y="45.541" width="40.8956" height="2.4893" rx="0.966365" fill="#11BBF1"/>
<circle cx="78.3972" cy="21.1999" r="4.78389" fill="#11BBF1"/>
<rect x="20.6738" width="79" height="79" rx="5.01893" fill="#EBF8FF"/>
<rect x="29.5723" y="27.8057" width="61.8027" height="4.29932" rx="0.966365" fill="#A4E9FC"/>
<rect x="48.4805" y="11.1221" width="26.6938" height="4.44896" rx="0.966365" fill="#A4E9FC"/>
<rect x="29.5723" y="34.792" width="61.8027" height="3.7619" rx="0.966365" fill="#A4E9FC"/>
<rect x="29.5723" y="51.1631" width="62.2854" height="18.9081" rx="0.966365" fill="#1D98E4"/>
<path d="M51.4997 57.3125C51.9334 57.3125 52.3027 57.3821 52.6079 57.5213C52.913 57.6605 53.1459 57.8612 53.3065 58.1235C53.4671 58.3858 53.5474 58.7044 53.5474 59.0791C53.5474 59.4538 53.4671 59.7724 53.3065 60.0347C53.1459 60.297 52.913 60.4977 52.6079 60.6369C52.3027 60.7761 51.9334 60.8457 51.4997 60.8457H50.4478V62.6123H49.0667V57.3125H51.4997ZM51.2829 59.8098C51.572 59.8098 51.7888 59.7509 51.9334 59.6332C52.0833 59.51 52.1582 59.3254 52.1582 59.0791C52.1582 58.8329 52.0833 58.6508 51.9334 58.5331C51.7888 58.4099 51.572 58.3484 51.2829 58.3484H50.4478V59.8098H51.2829ZM56.8073 57.2322C57.3427 57.2322 57.803 57.3419 58.1885 57.5614C58.5793 57.7756 58.8791 58.0861 59.0878 58.4929C59.2966 58.8998 59.401 59.3896 59.401 59.9624C59.401 60.5352 59.2966 61.025 59.0878 61.4319C58.8791 61.8387 58.5793 62.1519 58.1885 62.3714C57.803 62.5855 57.3427 62.6926 56.8073 62.6926C56.272 62.6926 55.8089 62.5855 55.4181 62.3714C55.0273 62.1519 54.7276 61.8387 54.5188 61.4319C54.31 61.025 54.2056 60.5352 54.2056 59.9624C54.2056 59.3896 54.31 58.8998 54.5188 58.4929C54.7276 58.0861 55.0273 57.7756 55.4181 57.5614C55.8089 57.3419 56.272 57.2322 56.8073 57.2322ZM56.8073 58.3163C56.5504 58.3163 56.3336 58.3778 56.1569 58.5009C55.9802 58.6241 55.8464 58.8088 55.7554 59.055C55.6644 59.2959 55.6189 59.5984 55.6189 59.9624C55.6189 60.3211 55.6644 60.6235 55.7554 60.8698C55.8464 61.116 55.9802 61.3007 56.1569 61.4239C56.3336 61.547 56.5504 61.6086 56.8073 61.6086C57.0643 61.6086 57.2784 61.547 57.4497 61.4239C57.6264 61.3007 57.7602 61.116 57.8512 60.8698C57.9422 60.6235 57.9877 60.3211 57.9877 59.9624C57.9877 59.5984 57.9422 59.2959 57.8512 59.055C57.7602 58.8088 57.6264 58.6241 57.4497 58.5009C57.2784 58.3778 57.0643 58.3163 56.8073 58.3163ZM62.3757 57.2322C62.8682 57.2322 63.3018 57.3098 63.6766 57.4651C64.0566 57.615 64.3859 57.8371 64.6642 58.1316L63.9978 59.0229C63.7676 58.782 63.5186 58.6027 63.251 58.4849C62.9887 58.3618 62.6889 58.3002 62.3516 58.3002C62.1535 58.3002 61.9929 58.3216 61.8698 58.3644C61.7467 58.4073 61.6583 58.4661 61.6048 58.5411C61.5513 58.616 61.5245 58.7017 61.5245 58.7981C61.5245 58.9105 61.5754 59.0068 61.6771 59.0871C61.7842 59.1621 61.9555 59.2263 62.191 59.2799L63.0823 59.4806C63.6123 59.6037 64.0004 59.7831 64.2467 60.0186C64.4929 60.2542 64.6161 60.5673 64.6161 60.9581C64.6161 61.3329 64.5197 61.6514 64.327 61.9137C64.1343 62.1707 63.8693 62.3661 63.532 62.4999C63.1948 62.6284 62.8093 62.6926 62.3757 62.6926C62.0224 62.6926 61.6851 62.6551 61.3639 62.5802C61.0427 62.4999 60.7536 62.3875 60.4967 62.2429C60.2397 62.0984 60.0229 61.9324 59.8462 61.7451L60.5127 60.8216C60.6466 60.9769 60.8098 61.116 61.0026 61.2392C61.2006 61.3569 61.4148 61.4506 61.645 61.5202C61.8805 61.5898 62.1187 61.6246 62.3596 61.6246C62.547 61.6246 62.7022 61.6059 62.8254 61.5684C62.9539 61.5309 63.0475 61.4747 63.1064 61.3998C63.1653 61.3248 63.1948 61.2365 63.1948 61.1348C63.1948 61.0224 63.1546 60.9287 63.0743 60.8537C62.994 60.7734 62.8414 60.7065 62.6166 60.653L61.6369 60.4362C61.3371 60.3666 61.0695 60.2756 60.8339 60.1632C60.6037 60.0454 60.4217 59.8901 60.2879 59.6974C60.1541 59.4993 60.0871 59.2531 60.0871 58.9587C60.0871 58.6267 60.1782 58.3323 60.3602 58.0754C60.5422 57.813 60.8045 57.6069 61.1471 57.457C61.4897 57.3072 61.8992 57.2322 62.3757 57.2322ZM69.8342 57.3125V58.3805H68.1078V62.6123H66.7266V58.3805H64.9922V57.3125H69.8342Z" fill="white"/>
<path d="M74.3509 75.4832L74.3509 75.4832C73.7809 76.1416 72.6992 75.739 72.6992 74.8673L72.6992 65.2006C72.6992 65.2006 72.6992 65.2006 72.6992 65.2006C72.6992 65.0222 72.7498 64.8476 72.8453 64.6969C72.9408 64.5463 73.0771 64.4258 73.2384 64.3497C73.3997 64.2736 73.5793 64.2449 73.7563 64.267C73.9333 64.2891 74.1003 64.361 74.2379 64.4744L74.3509 75.4832ZM74.3509 75.4832L76.7844 72.6705C76.8582 72.5853 76.9495 72.517 77.052 72.4702C77.1545 72.4234 77.2659 72.3991 77.3786 72.3991H77.3786H81.2403C82.1224 72.3991 82.5196 71.2933 81.8384 70.7325C81.8384 70.7325 81.8384 70.7324 81.8384 70.7324L74.238 64.4745L74.3509 75.4832Z" fill="#0A0A0A" stroke="white" stroke-width="0.499985"/>
<circle cx="36.8018" cy="13.9034" r="7.22956" fill="#1D98E4"/>
</svg>
