<svg xmlns="http://www.w3.org/2000/svg" version="1.0" width="1024.000000pt" height="1024.000000pt" viewBox="0 0 1024.000000 1024.000000" preserveAspectRatio="xMidYMid meet">

<g transform="translate(0.000000,1024.000000) scale(0.100000,-0.100000)" fill="#b71c1c" stroke="none">
<path d="M5390 9423 c-25 -2 -178 -12 -340 -23 -392 -27 -640 -46 -900 -70 -118 -11 -426 -38 -685 -60 -258 -22 -526 -47 -595 -55 -69 -8 -262 -28 -430 -45 -637 -63 -1239 -142 -1381 -180 -45 -12 -86 -58 -95 -105 -4 -24 7 -102 34 -238 173 -860 323 -2348 387 -3842 26 -616 36 -1028 45 -1980 5 -511 14 -977 20 -1035 19 -188 48 -257 151 -356 115 -109 275 -181 514 -229 268 -54 343 -59 870 -60 554 0 695 8 1580 86 299 26 760 74 1340 140 317 36 976 119 1105 139 298 48 485 99 577 159 140 91 165 170 213 686 49 540 69 963 77 1677 l6 558 76 62 c1110 912 1667 1401 1690 1483 12 46 -4 129 -35 183 -57 96 -370 382 -639 582 -136 101 -236 152 -311 158 -106 9 -204 -58 -604 -407 -107 -93 -198 -167 -201 -163 -3 4 -20 196 -38 427 -64 841 -75 946 -115 1065 -31 89 -68 142 -208 297 -241 267 -849 832 -1101 1025 -95 72 -149 93 -301 113 -107 14 -555 19 -706 8z m389 -513 c30 -5 56 -11 57 -13 2 -1 -26 -117 -61 -257 -106 -427 -118 -560 -61 -685 65 -143 147 -187 390 -207 122 -11 199 -9 645 14 278 15 509 24 513 20 12 -13 49 -439 57 -653 4 -118 8 -415 10 -660 l2 -446 -274 -254 c-151 -140 -435 -407 -633 -595 -497 -472 -587 -551 -659 -584 -86 -40 -135 -95 -195 -225 -116 -246 -310 -788 -375 -1047 -30 -114 -36 -157 -33 -213 7 -130 76 -238 187 -289 59 -27 194 -28 296 -1 178 46 459 170 640 283 179 111 255 177 334 290 74 105 597 605 758 724 87 64 87 65 79 -129 -32 -786 -126 -1918 -164 -1955 -4 -4 -137 -23 -297 -43 -159 -19 -391 -49 -515 -65 -220 -29 -829 -103 -1163 -140 -324 -37 -1043 -100 -1365 -120 -556 -35 -1329 -30 -1712 11 -185 20 -267 54 -289 121 -22 70 -31 271 -31 733 0 1010 -27 1911 -80 2720 -72 1080 -136 1720 -276 2735 -85 618 -83 591 -51 617 43 33 156 50 687 103 297 29 1255 111 1750 150 871 68 1654 93 1829 60z m811 -376 c145 -147 259 -269 254 -274 -13 -11 -671 -76 -680 -67 -11 10 143 607 156 607 4 0 125 -120 270 -266z m2203 -2041 c56 -42 133 -107 171 -144 66 -64 69 -69 63 -104 -12 -71 -107 -171 -417 -434 -80 -68 -158 -136 -175 -150 -16 -14 -93 -80 -170 -146 -365 -312 -736 -641 -1160 -1030 -256 -235 -458 -414 -554 -494 l-64 -52 -45 43 c-51 49 -292 336 -291 346 1 13 671 621 1054 957 255 223 298 261 730 634 468 405 512 443 640 555 61 52 111 95 113 96 2 0 49 -35 105 -77z m-2875 -2595 c144 -153 232 -273 232 -314 0 -31 -72 -78 -275 -180 -162 -81 -215 -98 -215 -70 0 40 189 616 202 616 4 0 29 -24 56 -52z" fill="#b71c1c"/>
<path d="M3450 8414 c-226 -15 -372 -28 -545 -50 -380 -47 -515 -74 -630 -129 -129 -61 -175 -131 -183 -272 -16 -300 126 -1312 208 -1480 77 -156 210 -191 545 -142 492 72 1018 203 1209 302 93 48 192 137 224 200 78 157 102 500 57 827 -47 338 -122 549 -230 648 -92 84 -131 94 -385 97 -118 1 -240 1 -270 -1z m320 -483 c14 -10 31 -35 38 -56 37 -113 92 -585 78 -683 -12 -85 -73 -158 -161 -190 -118 -44 -673 -172 -919 -212 -131 -22 -140 -20 -150 33 -18 95 -117 768 -126 861 -11 100 -11 111 5 122 38 28 283 72 605 109 426 49 579 53 630 16z" fill="#b71c1c"/>
<path d="M5595 6089 c-182 -15 -583 -68 -866 -114 -146 -24 -373 -60 -505 -79 -218 -32 -835 -127 -1044 -161 -47 -8 -184 -30 -305 -49 -376 -60 -407 -70 -456 -150 -47 -77 -10 -201 75 -251 38 -22 54 -25 145 -25 108 0 561 43 881 85 344 44 651 84 800 105 900 127 1500 226 1614 266 85 30 138 109 137 206 0 65 -19 109 -61 139 -50 36 -187 46 -415 28z" fill="#b71c1c"/>
<path d="M4000 4609 c-220 -29 -323 -45 -565 -85 -285 -47 -433 -79 -528 -114 -47 -18 -61 -28 -77 -60 -58 -114 18 -278 136 -296 182 -27 1216 118 1372 193 96 46 135 140 92 227 -23 48 -89 104 -154 131 -39 17 -167 18 -276 4z" fill="#b71c1c"/>
<path d="M3575 3179 c-539 -25 -648 -43 -699 -112 -17 -23 -21 -43 -21 -110 0 -174 30 -189 421 -207 358 -16 817 12 910 56 55 26 112 98 120 151 13 91 -45 186 -131 213 -50 16 -356 21 -600 9z" fill="#b71c1c"/>
</g>
</svg>