<svg width="24" height="24" viewBox="0 0 24 24" fill="none" xmlns="http://www.w3.org/2000/svg">
<path fill-rule="evenodd" clip-rule="evenodd" d="M19.6878 6.78631C20.9118 7.99907 21.9673 9.56625 22.8543 11.4879C22.9502 11.6968 23 11.925 23 12.156C23 12.387 22.9502 12.6152 22.8543 12.8241C20.4674 18.0187 16.8493 20.616 12 20.616C10.2507 20.616 8.66111 20.2765 7.23136 19.5975L8.62234 18.1671C9.65176 18.5542 10.7776 18.7478 12 18.7478C16.0722 18.7478 19.052 16.6253 21.1512 12.1573C20.3627 10.4811 19.4509 9.13528 18.4041 8.10649L19.6878 6.78631ZM20.1748 2.06088L21.2504 3.16829C21.2691 3.18757 21.284 3.21046 21.2942 3.23566C21.3043 3.26086 21.3096 3.28787 21.3096 3.31515C21.3096 3.34243 21.3043 3.36944 21.2942 3.39464C21.284 3.41984 21.2691 3.44273 21.2504 3.46201L3.28224 21.9392C3.24439 21.9781 3.19307 22 3.13956 22C3.08605 22 3.03473 21.9781 2.99688 21.9392L1.91978 20.8316C1.88195 20.7927 1.8607 20.7399 1.8607 20.6849C1.8607 20.6298 1.88195 20.577 1.91978 20.5381L4.5897 17.7932C3.24725 16.5476 2.09925 14.8921 1.1457 12.8267C1.04976 12.6178 1 12.3896 1 12.1586C1 11.9276 1.04976 11.6994 1.1457 11.4905C3.53253 6.29592 7.15063 3.69864 12 3.69864C13.8984 3.69864 15.6082 4.09822 17.1297 4.89738L19.8892 2.06088C19.9079 2.04158 19.9302 2.02627 19.9547 2.01582C19.9792 2.00538 20.0054 2 20.032 2C20.0585 2 20.0848 2.00538 20.1093 2.01582C20.1338 2.02627 20.156 2.04158 20.1748 2.06088ZM12 5.56681C7.93026 5.56681 4.9505 7.68926 2.84878 12.1573C3.70662 13.9808 4.71081 15.4134 5.87571 16.4707L7.98047 14.3062C7.53228 13.4424 7.36594 12.4532 7.50599 11.4848C7.64605 10.5163 8.08507 9.61977 8.75831 8.92742C9.43155 8.23508 10.3033 7.78359 11.2451 7.63956C12.1868 7.49553 13.1487 7.66659 13.9887 8.1275L15.7624 6.30344C14.6273 5.80967 13.3761 5.56681 12 5.56681ZM9.3808 10.841C9.17904 11.2488 9.07366 11.6998 9.07321 12.1573C9.07289 12.4584 9.11809 12.7578 9.20719 13.0447L12.762 9.38904C12.3381 9.24991 11.8883 9.21556 11.4492 9.28878C11.01 9.36201 10.5938 9.54073 10.2344 9.81044C9.87502 10.0801 9.58257 10.4332 9.3808 10.841ZM11.6081 15.0511C11.7012 15.0591 11.795 15.0633 11.8903 15.0633C12.2952 15.0635 12.6961 14.9885 13.0702 14.8425C13.4444 14.6965 13.7843 14.4825 14.0706 14.2126C14.3569 13.9427 14.584 13.6223 14.7388 13.2696C14.8936 12.9169 14.9732 12.5389 14.973 12.1572C14.973 12.0675 14.9686 11.979 14.9601 11.8913L16.4139 10.5208C16.7488 11.3451 16.8232 12.2432 16.6282 13.1065C16.4331 13.9698 15.977 14.7614 15.3149 15.3856C14.6528 16.0097 13.8131 16.4397 12.8973 16.6236C11.9814 16.8074 11.0287 16.7373 10.1543 16.4216L11.6081 15.0511Z" fill="#0C1A4C"/>
</svg>
