<svg width="32" height="32" viewBox="0 0 32 32" fill="none" xmlns="http://www.w3.org/2000/svg">
<g id="jam:facebook-square">
<g id="Group">
<path id="Vector" d="M14.26 11.9162V13.7522H12.916V15.9962H14.26V22.6668H17.0227V15.9962H18.876C18.876 15.9962 19.0507 14.9202 19.1347 13.7428H17.0333V12.2095C17.0333 11.9788 17.3347 11.6708 17.6333 11.6708H19.1373V9.3335H17.0907C14.192 9.3335 14.26 11.5802 14.26 11.9162Z" fill="#0C1A4C"/>
<path id="Vector_2" d="M7.99984 5.33341C7.29259 5.33341 6.61432 5.61437 6.11422 6.11446C5.61412 6.61456 5.33317 7.29284 5.33317 8.00008V24.0001C5.33317 24.7073 5.61412 25.3856 6.11422 25.8857C6.61432 26.3858 7.29259 26.6667 7.99984 26.6667H23.9998C24.7071 26.6667 25.3854 26.3858 25.8855 25.8857C26.3855 25.3856 26.6665 24.7073 26.6665 24.0001V8.00008C26.6665 7.29284 26.3855 6.61456 25.8855 6.11446C25.3854 5.61437 24.7071 5.33341 23.9998 5.33341H7.99984ZM7.99984 2.66675H23.9998C25.4143 2.66675 26.7709 3.22865 27.7711 4.22885C28.7713 5.22904 29.3332 6.58559 29.3332 8.00008V24.0001C29.3332 25.4146 28.7713 26.7711 27.7711 27.7713C26.7709 28.7715 25.4143 29.3334 23.9998 29.3334H7.99984C6.58535 29.3334 5.2288 28.7715 4.2286 27.7713C3.22841 26.7711 2.6665 25.4146 2.6665 24.0001V8.00008C2.6665 6.58559 3.22841 5.22904 4.2286 4.22885C5.2288 3.22865 6.58535 2.66675 7.99984 2.66675Z" fill="#0C1A4C"/>
</g>
</g>
</svg>
