<svg width="51" height="48" viewBox="0 0 51 48" fill="none" xmlns="http://www.w3.org/2000/svg">
<path d="M36.3422 15.6733V33.306H13.8115V15.6733H6.85645V37.2244H43.2973V15.6733H36.3422Z" fill="#8ECBF1"/>
<path d="M49.1755 40.1633H48.1959V14.6939C48.1959 12.5333 46.4381 10.7755 44.2776 10.7755H37.3224V0.979592C37.3224 0.438563 36.8838 0 36.3429 0H13.8122C13.2712 0 12.8327 0.438563 12.8327 0.979592V10.7755H5.87755C3.71696 10.7755 1.95918 12.5333 1.95918 14.6939V40.1633H0.979592C0.438563 40.1633 0 40.6019 0 41.1429V44.0816C0 46.2422 1.75778 48 3.91837 48H46.2367C48.3973 48 50.1551 46.2422 50.1551 44.0816V41.1429C50.1551 40.6019 49.7164 40.1633 49.1755 40.1633ZM14.7918 1.95918H35.3633V32.3265H14.7918V1.95918ZM3.91837 14.6939C3.91837 13.6136 4.79726 12.7347 5.87755 12.7347H12.8327V32.3265H11.8531C11.3121 32.3265 10.8735 32.7652 10.8735 33.3061C10.8735 33.8471 11.3121 34.2857 11.8531 34.2857H38.302C38.843 34.2857 39.2816 33.8471 39.2816 33.3061C39.2816 32.7652 38.843 32.3265 38.302 32.3265H37.3224V12.7347H44.2776C45.3578 12.7347 46.2367 13.6136 46.2367 14.6939V40.1633H3.91837V14.6939ZM48.1959 44.0816C48.1959 45.1619 47.317 46.0408 46.2367 46.0408H3.91837C2.83807 46.0408 1.95918 45.1619 1.95918 44.0816V42.1224H48.1959V44.0816Z" fill="#0C1A4C"/>
<path d="M26.6089 11.6195C25.6351 11.2753 24.5572 10.8589 23.9469 10.3802C23.4551 9.99467 23.6552 8.70317 24.5704 8.42761C25.7946 8.0587 26.5865 8.72874 26.6197 8.75735L26.609 8.74765L26.6099 8.74667C26.7894 8.91202 27.0279 9.00734 27.2733 9.00734C27.8128 9.00734 28.2528 8.5676 28.2528 8.02774C28.2528 7.76903 28.148 7.51738 27.9657 7.33517C27.9562 7.32567 27.9459 7.31744 27.9361 7.30843L27.9371 7.30735C27.8958 7.26935 27.2512 6.68943 26.1887 6.45452V5.87754C26.1887 5.33661 25.7501 4.89795 25.2092 4.89795C24.6682 4.89795 24.2296 5.33661 24.2296 5.87754V6.49008C24.1556 6.5085 24.0809 6.52887 24.0052 6.5516C22.8664 6.89475 22.0159 7.8667 21.7858 9.08815C21.5745 10.2099 21.9392 11.2957 22.7377 11.9219C23.4094 12.4487 24.3417 12.8963 25.9559 13.4668C27.1013 13.8717 27.0762 14.8012 27.0121 15.1821C26.8838 15.9448 26.2424 16.7689 25.1369 16.7763C24.0819 16.7828 23.7522 16.7308 22.9379 16.1981C22.4852 15.9017 21.8782 16.0289 21.5818 16.4815C21.2857 16.9343 21.4125 17.5413 21.8653 17.8376C22.7592 18.4225 23.4052 18.6387 24.2296 18.7074V19.2148C24.2296 19.7557 24.6682 20.1944 25.2092 20.1944C25.7501 20.1944 26.1887 19.7557 26.1887 19.2148V18.5916C27.7333 18.1607 28.7226 16.8251 28.9441 15.507C29.2349 13.7782 28.2963 12.2161 26.6089 11.6195Z" fill="#0C1A4C"/>
<path d="M18.7101 24.4898H31.4448C31.9857 24.4898 32.4243 24.0512 32.4243 23.5102C32.4243 22.9692 31.9857 22.5306 31.4448 22.5306H18.7101C18.169 22.5306 17.7305 22.9692 17.7305 23.5102C17.7305 24.0512 18.169 24.4898 18.7101 24.4898Z" fill="#0C1A4C"/>
<path d="M18.7101 29.3878H31.4448C31.9857 29.3878 32.4243 28.9491 32.4243 28.4082C32.4243 27.8673 31.9857 27.4286 31.4448 27.4286H18.7101C18.169 27.4286 17.7305 27.8673 17.7305 28.4082C17.7305 28.9491 18.169 29.3878 18.7101 29.3878Z" fill="#0C1A4C"/>
</svg>
