<?xml version="1.0" encoding="UTF-8"?>
<!DOCTYPE svg PUBLIC "-//W3C//DTD SVG 1.1//EN" "http://www.w3.org/Graphics/SVG/1.1/DTD/svg11.dtd">
<svg xmlns="http://www.w3.org/2000/svg" version="1.1" width="1024px" height="1024px" style="shape-rendering:geometricPrecision; text-rendering:geometricPrecision; image-rendering:optimizeQuality; fill-rule:evenodd; clip-rule:evenodd" xmlns:xlink="http://www.w3.org/1999/xlink">
<g><path style="opacity:1" fill="#fefefe" d="M -0.5,-0.5 C 340.833,-0.5 682.167,-0.5 1023.5,-0.5C 1023.5,340.833 1023.5,682.167 1023.5,1023.5C 682.167,1023.5 340.833,1023.5 -0.5,1023.5C -0.5,682.167 -0.5,340.833 -0.5,-0.5 Z"/></g>
<g><path style="opacity:1" fill="#b8201f" d="M 412.5,277.5 C 470.606,273.115 511.106,297.449 534,350.5C 541.266,374.452 542.599,398.785 538,423.5C 531.484,459.216 519.317,492.882 501.5,524.5C 550.112,528.697 598.112,525.197 645.5,514C 662.349,509.384 678.682,503.384 694.5,496C 700.847,494.902 706.847,495.902 712.5,499C 799,586.167 885.5,673.333 972,760.5C 972.667,761.833 972.667,763.167 972,764.5C 944.795,780.572 915.628,791.739 884.5,798C 838.569,806.687 792.236,810.02 745.5,808C 680.085,804.525 614.751,799.859 549.5,794C 515.18,792.504 480.846,792.171 446.5,793C 388.856,795.711 334.189,809.711 282.5,835C 275.715,836.331 269.382,835.331 263.5,832C 197.333,743.167 131.167,654.333 65,565.5C 60.049,558.898 55.549,552.065 51.5,545C 52.6219,542.418 54.6219,540.752 57.5,540C 116.629,517.089 177.962,506.589 241.5,508.5C 256.167,508.667 270.833,508.833 285.5,509C 307.506,510.667 329.506,512 351.5,513C 328.313,469.403 317.48,422.903 319,373.5C 329.446,321.222 360.612,289.222 412.5,277.5 Z"/></g>
<g><path style="opacity:1" fill="#fefefe" d="M 417.5,315.5 C 454.073,312.362 480.573,327.029 497,359.5C 509.345,396.638 499.845,426.805 468.5,450C 432.022,469.314 399.855,463.814 372,433.5C 351.431,403.141 351.431,372.807 372,342.5C 384.107,328.202 399.274,319.202 417.5,315.5 Z"/></g>
<g><path style="opacity:1" fill="#fefcfc" d="M 697.5,510.5 C 699.199,510.34 700.866,510.506 702.5,511C 783.319,593.319 864.319,675.486 945.5,757.5C 935.504,763.897 924.837,769.063 913.5,773C 876.965,785.923 839.298,792.923 800.5,794C 773.5,794.667 746.5,794.667 719.5,794C 652.178,788.868 584.844,783.868 517.5,779C 473.304,776.945 429.304,778.945 385.5,785C 348.411,790.753 312.745,801.253 278.5,816.5C 211.506,727.999 144.672,639.332 78,550.5C 77.5172,549.552 77.3505,548.552 77.5,547.5C 143.515,524.493 211.515,515.326 281.5,520C 307.116,520.952 332.616,522.785 358,525.5C 361.248,531.664 364.748,537.664 368.5,543.5C 366.667,543.833 364.833,544.167 363,544.5C 315.265,539.388 267.432,537.888 219.5,540C 188.45,542.004 158.116,547.671 128.5,557C 127.978,557.561 127.645,558.228 127.5,559C 180.653,628.822 233.819,698.656 287,768.5C 289.175,771.376 291.675,773.876 294.5,776C 297.167,776.667 299.833,776.667 302.5,776C 357.535,761.579 413.535,754.746 470.5,755.5C 495.861,755.492 521.194,756.325 546.5,758C 603.458,762.921 660.458,767.255 717.5,771C 761.862,773.791 805.862,771.124 849.5,763C 860.622,760.135 871.622,756.802 882.5,753C 886.511,751.661 890.178,749.828 893.5,747.5C 827.682,679.181 761.682,611.015 695.5,543C 691.961,541.496 688.295,541.163 684.5,542C 618.156,556.477 551.156,560.477 483.5,554C 487.167,548.333 490.833,542.667 494.5,537C 520.167,536.667 545.833,536.333 571.5,536C 602.615,534.745 633.282,530.412 663.5,523C 675.238,519.618 686.571,515.451 697.5,510.5 Z"/></g>
<g><path style="opacity:1" fill="#fefdfd" d="M 234.5,544.5 C 253.743,544.174 272.91,544.507 292,545.5C 301.48,577.42 310.646,609.42 319.5,641.5C 284.194,643.187 249.361,648.187 215,656.5C 214.228,656.355 213.561,656.022 213,655.5C 189.153,624.322 165.319,593.156 141.5,562C 142.682,560.265 144.349,559.265 146.5,559C 175.412,550.847 204.746,546.013 234.5,544.5 Z"/></g>
<g><path style="opacity:1" fill="#e1a09f" d="M 312.5,546.5 C 309.615,546.194 306.948,546.527 304.5,547.5C 303.957,547.44 303.624,547.107 303.5,546.5C 306.645,545.197 309.645,545.197 312.5,546.5 Z"/></g>
<g><path style="opacity:1" fill="#fefdfd" d="M 312.5,546.5 C 332.925,547.214 353.258,548.88 373.5,551.5C 389.542,576.556 408.208,599.556 429.5,620.5C 434.152,616.349 438.652,612.015 443,607.5C 451.667,596.833 460.333,586.167 469,575.5C 471.945,598.172 474.778,620.839 477.5,643.5C 476,643.833 474.5,644.167 473,644.5C 425.917,639.93 378.75,638.597 331.5,640.5C 322.626,609.462 313.626,578.462 304.5,547.5C 306.948,546.527 309.615,546.194 312.5,546.5 Z"/></g>
<g><path style="opacity:1" fill="#fefefe" d="M 686.5,547.5 C 687.552,547.351 688.552,547.517 689.5,548C 718.385,578.263 747.385,608.429 776.5,638.5C 755.804,646.23 734.471,651.397 712.5,654C 686.205,656.467 659.871,656.967 633.5,655.5C 615.419,624.335 597.085,593.335 578.5,562.5C 607.344,560.874 636.011,557.708 664.5,553C 672.078,551.631 679.411,549.797 686.5,547.5 Z"/></g>
<g><path style="opacity:1" fill="#fefdfd" d="M 479.5,559.5 C 508.793,561.511 538.126,562.678 567.5,563C 585.626,593.418 603.626,623.918 621.5,654.5C 604.839,654.934 588.173,654.434 571.5,653C 543.838,650.405 516.171,647.905 488.5,645.5C 485.5,616.836 482.5,588.169 479.5,559.5 Z"/></g>
<g><path style="opacity:1" fill="#fefdfd" d="M 779.5,645.5 C 781.199,645.34 782.866,645.506 784.5,646C 815.985,678.985 847.651,711.819 879.5,744.5C 855.419,754.27 830.419,760.437 804.5,763C 768.826,766.272 733.16,766.272 697.5,763C 677.707,729.916 658.041,696.749 638.5,663.5C 673.717,663.852 708.717,661.352 743.5,656C 755.89,653.407 767.89,649.907 779.5,645.5 Z"/></g>
<g><path style="opacity:1" fill="#fefdfd" d="M 345.5,645.5 C 367.858,645.146 390.191,645.646 412.5,647C 421.833,661.667 431.167,676.333 440.5,691C 385.244,705.147 329.91,718.981 274.5,732.5C 273.833,732.333 273.167,732.167 272.5,732C 254.47,709.438 236.804,686.604 219.5,663.5C 235.197,658.826 251.197,655.326 267.5,653C 293.57,649.607 319.57,647.107 345.5,645.5 Z"/></g>
<g><path style="opacity:1" fill="#fefdfd" d="M 425.5,647.5 C 445.529,648.124 465.529,649.291 485.5,651C 532.496,655.222 579.496,659.222 626.5,663C 645.707,695.916 665.041,728.749 684.5,761.5C 682.333,761.833 680.167,762.167 678,762.5C 614.959,756.228 551.792,751.561 488.5,748.5C 467.051,715.064 446.051,681.397 425.5,647.5 Z"/></g>
<g><path style="opacity:1" fill="#fefdfd" d="M 475.5,747.5 C 465.167,748.167 454.833,748.833 444.5,749.5C 395.824,749.621 347.991,755.954 301,768.5C 293.147,759.304 285.647,749.804 278.5,740C 333.219,725.779 388.052,711.945 443,698.5C 445.628,699.794 447.628,701.794 449,704.5C 457.844,718.861 466.678,733.195 475.5,747.5 Z"/></g>
<g><path style="opacity:1" fill="#d06a69" d="M 475.5,747.5 C 476.043,747.56 476.376,747.893 476.5,748.5C 465.854,749.499 455.187,749.832 444.5,749.5C 454.833,748.833 465.167,748.167 475.5,747.5 Z"/></g>
</svg>
