<svg width="24" height="24" viewBox="0 0 24 24" fill="none" xmlns="http://www.w3.org/2000/svg">
<path opacity="0.2" d="M15.0001 12C15.0001 12.5933 14.8241 13.1734 14.4945 13.6667C14.1648 14.1601 13.6963 14.5446 13.1481 14.7716C12.5999 14.9987 11.9967 15.0581 11.4148 14.9424C10.8328 14.8266 10.2983 14.5409 9.87874 14.1213C9.45918 13.7018 9.17346 13.1672 9.0577 12.5853C8.94195 12.0033 9.00136 11.4001 9.22842 10.8519C9.45548 10.3038 9.84 9.83524 10.3333 9.50559C10.8267 9.17595 11.4067 9 12.0001 9C12.7957 9 13.5588 9.31607 14.1214 9.87868C14.684 10.4413 15.0001 11.2044 15.0001 12ZM18.7501 6C18.9088 6.93686 19.3551 7.80113 20.027 8.47304C20.6989 9.14494 21.5632 9.59121 22.5001 9.75V6H18.7501ZM18.7501 18H22.5001V14.25C21.5632 14.4088 20.6989 14.8551 20.027 15.527C19.3551 16.1989 18.9088 17.0631 18.7501 18ZM1.50006 14.25V18H5.25006C5.09127 17.0631 4.645 16.1989 3.9731 15.527C3.30119 14.8551 2.43692 14.4088 1.50006 14.25ZM1.50006 9.75C2.43692 9.59121 3.30119 9.14494 3.9731 8.47304C4.645 7.80113 5.09127 6.93686 5.25006 6H1.50006V9.75Z" fill="#0C1A4C"/>
<path d="M12 8.25C11.2583 8.25 10.5333 8.46993 9.91661 8.88199C9.29993 9.29404 8.81928 9.87971 8.53545 10.5649C8.25162 11.2502 8.17736 12.0042 8.32205 12.7316C8.46675 13.459 8.8239 14.1272 9.34835 14.6516C9.8728 15.1761 10.541 15.5332 11.2684 15.6779C11.9958 15.8226 12.7498 15.7484 13.4351 15.4645C14.1203 15.1807 14.706 14.7001 15.118 14.0834C15.5301 13.4667 15.75 12.7417 15.75 12C15.75 11.0054 15.3549 10.0516 14.6517 9.34835C13.9484 8.64509 12.9946 8.25 12 8.25ZM12 14.25C11.555 14.25 11.12 14.118 10.75 13.8708C10.38 13.6236 10.0916 13.2722 9.92127 12.861C9.75097 12.4499 9.70642 11.9975 9.79323 11.561C9.88005 11.1246 10.0943 10.7237 10.409 10.409C10.7237 10.0943 11.1246 9.88005 11.561 9.79323C11.9975 9.70642 12.4499 9.75097 12.861 9.92127C13.2722 10.0916 13.6236 10.38 13.8708 10.75C14.118 11.12 14.25 11.555 14.25 12C14.25 12.5967 14.0129 13.169 13.591 13.591C13.169 14.0129 12.5967 14.25 12 14.25ZM22.5 5.25H1.5C1.30109 5.25 1.11032 5.32902 0.96967 5.46967C0.829018 5.61032 0.75 5.80109 0.75 6V18C0.75 18.1989 0.829018 18.3897 0.96967 18.5303C1.11032 18.671 1.30109 18.75 1.5 18.75H22.5C22.6989 18.75 22.8897 18.671 23.0303 18.5303C23.171 18.3897 23.25 18.1989 23.25 18V6C23.25 5.80109 23.171 5.61032 23.0303 5.46967C22.8897 5.32902 22.6989 5.25 22.5 5.25ZM2.25 6.75H4.25344C3.86662 7.64959 3.14959 8.36662 2.25 8.75344V6.75ZM2.25 17.25V15.2466C3.14959 15.6334 3.86662 16.3504 4.25344 17.25H2.25ZM21.75 17.25H19.7466C20.1334 16.3504 20.8504 15.6334 21.75 15.2466V17.25ZM21.75 13.6547C20.8984 13.9065 20.1233 14.3674 19.4953 14.9953C18.8674 15.6233 18.4065 16.3984 18.1547 17.25H5.84531C5.5935 16.3984 5.13263 15.6233 4.50467 14.9953C3.87671 14.3674 3.10162 13.9065 2.25 13.6547V10.3453C3.10162 10.0935 3.87671 9.63263 4.50467 9.00467C5.13263 8.37671 5.5935 7.60162 5.84531 6.75H18.1547C18.4065 7.60162 18.8674 8.37671 19.4953 9.00467C20.1233 9.63263 20.8984 10.0935 21.75 10.3453V13.6547ZM21.75 8.75344C20.8504 8.36662 20.1334 7.64959 19.7466 6.75H21.75V8.75344Z" fill="#0C1A4C"/>
</svg>
