<svg width="24" height="24" viewBox="0 0 24 24" fill="none" xmlns="http://www.w3.org/2000/svg">
<path opacity="0.2" d="M3.75006 6H8.25006V19.5H3.75006C3.55115 19.5 3.36038 19.421 3.21973 19.2803C3.07908 19.1397 3.00006 18.9489 3.00006 18.75V6.75C3.00006 6.55109 3.07908 6.36032 3.21973 6.21967C3.36038 6.07902 3.55115 6 3.75006 6ZM20.2501 6H15.7501V19.5H20.2501C20.449 19.5 20.6397 19.421 20.7804 19.2803C20.921 19.1397 21.0001 18.9489 21.0001 18.75V6.75C21.0001 6.55109 20.921 6.36032 20.7804 6.21967C20.6397 6.07902 20.449 6 20.2501 6Z" fill="#0C1A4C"/>
<path d="M20.2501 5.25H16.5001V4.5C16.5001 3.90326 16.263 3.33097 15.8411 2.90901C15.4191 2.48705 14.8468 2.25 14.2501 2.25H9.75006C9.15332 2.25 8.58103 2.48705 8.15907 2.90901C7.73711 3.33097 7.50006 3.90326 7.50006 4.5V5.25H3.75006C3.35224 5.25 2.97071 5.40804 2.6894 5.68934C2.4081 5.97064 2.25006 6.35218 2.25006 6.75V18.75C2.25006 19.1478 2.4081 19.5294 2.6894 19.8107C2.97071 20.092 3.35224 20.25 3.75006 20.25H20.2501C20.6479 20.25 21.0294 20.092 21.3107 19.8107C21.592 19.5294 21.7501 19.1478 21.7501 18.75V6.75C21.7501 6.35218 21.592 5.97064 21.3107 5.68934C21.0294 5.40804 20.6479 5.25 20.2501 5.25ZM9.00006 4.5C9.00006 4.30109 9.07908 4.11032 9.21973 3.96967C9.36038 3.82902 9.55115 3.75 9.75006 3.75H14.2501C14.449 3.75 14.6397 3.82902 14.7804 3.96967C14.921 4.11032 15.0001 4.30109 15.0001 4.5V5.25H9.00006V4.5ZM15.0001 6.75V18.75H9.00006V6.75H15.0001ZM3.75006 6.75H7.50006V18.75H3.75006V6.75ZM20.2501 18.75H16.5001V6.75H20.2501V18.75Z" fill="#0C1A4C"/>
</svg>
