<svg width="24" height="24" viewBox="0 0 24 24" fill="none" xmlns="http://www.w3.org/2000/svg">
<path d="M19.5 1.49988H4.5C4.08516 1.49988 3.75 1.83503 3.75 2.24988V21.7499C3.75 22.1647 4.08516 22.4999 4.5 22.4999H19.5C19.9148 22.4999 20.25 22.1647 20.25 21.7499V2.24988C20.25 1.83503 19.9148 1.49988 19.5 1.49988ZM13.4062 3.18738H15.6562V8.10691L14.5664 7.31238L13.4062 8.14207V3.18738ZM5.4375 20.8124V3.18738H12V10.146C12 10.2233 12.0234 10.3007 12.0703 10.3639C12.0988 10.4042 12.1349 10.4383 12.1767 10.4645C12.2184 10.4907 12.2649 10.5083 12.3135 10.5164C12.3622 10.5244 12.4119 10.5228 12.4598 10.5115C12.5078 10.5002 12.553 10.4795 12.593 10.4507L14.557 9.04675L16.4648 10.4389C16.5281 10.4858 16.6055 10.5116 16.6852 10.5116C16.8914 10.5116 17.0602 10.3428 17.0602 10.1366V3.18738H18.5602V20.8124H5.4375Z" fill="#0C1A4C"/>
<path d="M15.6562 8.10691V3.18738H13.4062V8.14206L14.5664 7.31238L15.6562 8.10691Z" fill="#E9EAF2"/>
<path d="M17.0602 3.18738V10.1366C17.0602 10.3428 16.8914 10.5116 16.6852 10.5116C16.6055 10.5116 16.5281 10.4858 16.4648 10.4389L14.557 9.04675L12.593 10.4507C12.553 10.4795 12.5078 10.5002 12.4598 10.5115C12.4119 10.5228 12.3622 10.5244 12.3135 10.5164C12.2649 10.5083 12.2184 10.4907 12.1767 10.4645C12.1349 10.4383 12.0988 10.4042 12.0703 10.3639C12.0234 10.3007 12 10.2233 12 10.146V3.18738H5.4375V20.8124H18.5602V3.18738H17.0602Z" fill="#E9EAF2"/>
</svg>
