<svg width="29" height="29" viewBox="0 0 29 29" fill="none" xmlns="http://www.w3.org/2000/svg">
<g clip-path="url(#clip0_823_19934)">
<path d="M14.5 28.4336C22.1953 28.4336 28.4336 22.1953 28.4336 14.5C28.4336 6.80469 22.1953 0.566406 14.5 0.566406C6.80469 0.566406 0.566406 6.80469 0.566406 14.5C0.566406 22.1953 6.80469 28.4336 14.5 28.4336Z" fill="#FFC700"/>
<path d="M14.5002 25.8281C19.9194 25.8281 24.3125 23.2922 24.3125 20.1641C24.3125 17.0359 19.9194 14.5 14.5002 14.5C9.08108 14.5 4.68799 17.0359 4.68799 20.1641C4.68799 23.2922 9.08108 25.8281 14.5002 25.8281Z" fill="#EBF5FF"/>
<path d="M14.5 14.5C17.6282 14.5 20.1641 11.9641 20.1641 8.83594C20.1641 5.70776 17.6282 3.17188 14.5 3.17188C11.3718 3.17188 8.83594 5.70776 8.83594 8.83594C8.83594 11.9641 11.3718 14.5 14.5 14.5Z" fill="#EBF5FF"/>
<path d="M14.4999 21.2969L19.0716 15.4607C17.6733 14.8431 16.1267 14.5 14.4999 14.5C12.8731 14.5 11.3265 14.8431 9.92822 15.4607L14.4999 21.2969Z" fill="#CCE6F6"/>
</g>
<defs>
<clipPath id="clip0_823_19934">
<rect width="29" height="29" fill="white"/>
</clipPath>
</defs>
</svg>
