<svg width="16" height="16" viewBox="0 0 16 16" fill="none" xmlns="http://www.w3.org/2000/svg">
<path d="M13.9374 12.0624H12.6874V10.8124C12.6874 10.7436 12.6312 10.6874 12.5624 10.6874H11.8124C11.7437 10.6874 11.6874 10.7436 11.6874 10.8124V12.0624H10.4374C10.3687 12.0624 10.3124 12.1186 10.3124 12.1874V12.9374C10.3124 13.0061 10.3687 13.0624 10.4374 13.0624H11.6874V14.3124C11.6874 14.3811 11.7437 14.4374 11.8124 14.4374H12.5624C12.6312 14.4374 12.6874 14.3811 12.6874 14.3124V13.0624H13.9374C14.0062 13.0624 14.0624 13.0061 14.0624 12.9374V12.1874C14.0624 12.1186 14.0062 12.0624 13.9374 12.0624ZM5.83588 7.78738C5.82182 7.65144 5.814 7.51394 5.814 7.37488C5.814 7.12644 5.83744 6.88425 5.88119 6.64832C5.89213 6.59207 5.86244 6.53425 5.81088 6.51082C5.59838 6.4155 5.40307 6.28425 5.23432 6.11863C5.03547 5.92583 4.879 5.69369 4.77489 5.43704C4.67077 5.18039 4.6213 4.90485 4.62963 4.628C4.64369 4.12644 4.84525 3.64988 5.19682 3.2905C5.58275 2.89519 6.1015 2.67957 6.65307 2.68582C7.1515 2.6905 7.63275 2.88269 7.99682 3.22332C8.12025 3.33894 8.2265 3.46707 8.31557 3.60457C8.34682 3.653 8.40775 3.67332 8.46088 3.65457C8.73588 3.55925 9.0265 3.49207 9.32494 3.46082C9.41244 3.45144 9.46244 3.35769 9.42338 3.27957C8.91557 2.27488 7.87807 1.58113 6.67807 1.56238C4.94682 1.53582 3.50307 2.95613 3.50307 4.68738C3.50307 5.66863 3.95463 6.54363 4.66244 7.11707C4.16557 7.34675 3.70775 7.66394 3.31088 8.06082C2.45463 8.9155 1.97025 10.0436 1.939 11.2483C1.93859 11.265 1.94151 11.2816 1.94761 11.2971C1.9537 11.3126 1.96284 11.3268 1.97449 11.3387C1.98614 11.3507 2.00006 11.3602 2.01544 11.3666C2.03081 11.3731 2.04732 11.3764 2.064 11.3764H2.94057C3.00775 11.3764 3.064 11.3233 3.06557 11.2561C3.09525 10.3499 3.46244 9.50144 4.10775 8.85769C4.56713 8.39832 5.12963 8.07957 5.74369 7.92488C5.80307 7.90769 5.84369 7.84988 5.83588 7.78738ZM12.8749 7.37488C12.8749 5.6655 11.5015 4.27644 9.79838 4.24988C8.06713 4.22332 6.62494 5.64363 6.62494 7.37488C6.62494 8.35613 7.07807 9.23113 7.78432 9.80457C7.2823 10.0373 6.82528 10.3568 6.43432 10.7483C5.57807 11.603 5.09369 12.7311 5.06244 13.9343C5.06202 13.9509 5.06495 13.9675 5.07104 13.983C5.07714 13.9986 5.08628 14.0127 5.09793 14.0247C5.10958 14.0366 5.1235 14.0461 5.13887 14.0526C5.15425 14.059 5.17076 14.0624 5.18744 14.0624H6.06244C6.12963 14.0624 6.18588 14.0093 6.18744 13.9421C6.21713 13.0358 6.58432 12.1874 7.22963 11.5436C7.90307 10.8702 8.79682 10.4999 9.74994 10.4999C11.4749 10.4999 12.8749 9.10144 12.8749 7.37488ZM11.164 8.78894C10.7859 9.16707 10.2843 9.37488 9.74994 9.37488C9.21557 9.37488 8.714 9.16707 8.33588 8.78894C8.14719 8.60124 7.9981 8.37756 7.89745 8.13117C7.7968 7.88478 7.74664 7.6207 7.74994 7.35457C7.75463 6.84207 7.95932 6.34675 8.31713 5.97957C8.69213 5.59519 9.19369 5.38113 9.72963 5.37488C10.2593 5.37019 10.7734 5.57644 11.1515 5.94675C11.539 6.32644 11.7515 6.83425 11.7515 7.37488C11.7499 7.90925 11.5421 8.41082 11.164 8.78894Z" fill="#0C1A4C"/>
</svg>
