<svg width="48" height="48" viewBox="0 0 48 48" fill="none" xmlns="http://www.w3.org/2000/svg">
<path d="M15.7784 22.137C15.1286 15.7019 17.9886 9.28618 23.5313 6.43504C21.4954 5.38785 19.0977 4.82151 16.3789 4.91169C16.3705 4.91169 16.3621 4.91141 16.3537 4.91141C7.11224 4.91141 1.87478 11.7362 2.78584 20.5253L0.0217073 25.3851C-0.278481 25.7523 2.63294 26.8834 2.69734 27.9325L2.92891 32.3236C3.01441 33.9445 4.40819 35.1821 6.02632 35.074L12.2288 34.6597V43.0973H21.0874V35.038C21.0874 35.038 22.1201 34.77 23.5314 34.0139C20.7454 32.5216 16.4841 29.1269 15.7784 22.137Z" fill="#8ECBF1"/>
<path d="M47.8378 24.8903L45.2382 20.3198C45.6521 15.6542 44.4053 11.4549 41.7124 8.46839C39.0612 5.5282 35.2562 3.974 30.7087 3.974L30.6936 3.97419C26.1103 3.82709 22.1282 5.41898 19.1755 8.5778C17.5703 10.295 16.3281 12.4581 15.5831 14.8333C14.8483 17.1756 14.5932 19.7338 14.8454 22.2312C15.4276 27.9978 18.3474 31.4184 20.6941 33.2724C22.4422 34.6534 24.1245 35.3869 25.0375 35.7188V43.0975C25.0375 43.6153 25.4572 44.035 25.975 44.035H34.8337C35.3515 44.035 35.7712 43.6153 35.7712 43.0975V35.6621L40.9736 36.0096C42.0078 36.0784 43.0049 35.7377 43.7807 35.0494C44.5573 34.3605 45.015 33.41 45.0697 32.3731L45.298 28.0436C45.4564 27.7664 46.257 27.2487 46.6477 26.9959C47.3994 26.5097 47.8959 26.1885 47.9872 25.6068C48.0266 25.3566 47.9723 25.1015 47.8378 24.8903ZM45.6295 25.4216C44.6292 26.0686 43.4953 26.8019 43.4289 27.8833L43.1973 32.2744C43.1693 32.8063 42.9346 33.2937 42.5365 33.6469C42.139 33.9995 41.6281 34.1738 41.0986 34.1388L34.8962 33.7246C34.6377 33.7073 34.3827 33.7981 34.1933 33.9753C34.0038 34.1526 33.8963 34.4005 33.8963 34.66V42.1601H26.9126V35.0383C26.9126 34.6112 26.6239 34.2381 26.2106 34.1309C26.1897 34.1254 24.0922 33.5674 21.8566 31.8012C18.8566 29.4313 17.1254 26.1481 16.711 22.043C16.2498 17.4752 17.6833 12.9201 20.5453 9.85824C23.1168 7.10714 26.6034 5.72151 30.6262 5.84798C30.627 5.84798 30.6278 5.84807 30.6286 5.84807C30.6601 5.84995 30.6914 5.85023 30.7223 5.84891C34.718 5.85201 38.0367 7.1918 40.3198 9.7239C42.7107 12.3754 43.7847 16.1771 43.344 20.4287C43.3238 20.623 43.365 20.819 43.4615 20.9889L45.8872 25.2536C45.7997 25.3115 45.7096 25.3697 45.6295 25.4216Z" fill="#0C1A4C"/>
<path d="M25.7575 13.4133C25.3919 13.0466 24.7983 13.0458 24.4317 13.4113C24.065 13.7768 24.0642 14.3704 24.4297 14.7371L24.8163 15.1248H20.8555C20.3377 15.1248 19.918 15.5446 19.918 16.0623C19.918 16.5801 20.3377 16.9998 20.8555 16.9998H24.8163L24.4297 17.3876C24.0642 17.7543 24.065 18.3479 24.4317 18.7134C24.6147 18.8958 24.8541 18.987 25.0936 18.987C25.334 18.987 25.5744 18.8951 25.7576 18.7114L27.7389 16.7243C28.1037 16.3584 28.1037 15.7664 27.7389 15.4005L25.7575 13.4133Z" fill="#0C1A4C"/>
<path d="M26.9471 22.8187H22.9863L23.3729 22.431C23.7384 22.0643 23.7376 21.4708 23.3709 21.1052C23.0042 20.7396 22.4107 20.7404 22.045 21.1071L20.0636 23.0943C19.6988 23.4602 19.6988 24.0523 20.0636 24.4182L22.045 26.4053C22.2282 26.589 22.4686 26.6809 22.709 26.6809C22.9484 26.6809 23.1879 26.5896 23.3709 26.4073C23.7376 26.0417 23.7384 25.4481 23.3729 25.0815L22.9863 24.6937H26.9471C27.4649 24.6937 27.8846 24.274 27.8846 23.7562C27.8846 23.2384 27.4649 22.8187 26.9471 22.8187Z" fill="#0C1A4C"/>
</svg>
