<svg width="48" height="48" viewBox="0 0 48 48" fill="none" xmlns="http://www.w3.org/2000/svg">
<g clip-path="url(#clip0_675_20846)">
<mask id="mask0_675_20846" style="mask-type:luminance" maskUnits="userSpaceOnUse" x="0" y="0" width="48" height="48">
<path d="M0 -1.14441e-05H48V48H0V-1.14441e-05Z" fill="white"/>
</mask>
<g mask="url(#mask0_675_20846)">
<path fill-rule="evenodd" clip-rule="evenodd" d="M23.9997 21.9094C22.8454 21.9094 21.9097 22.8451 21.9097 23.9993C21.9097 25.1536 22.8454 26.0893 23.9997 26.0893C25.1539 26.0893 26.0896 25.1536 26.0896 23.9993C26.0896 22.8451 25.1539 21.9094 23.9997 21.9094ZM23.9997 10.4147C31.5022 10.4147 37.5844 16.4968 37.5844 23.9993C37.5844 31.5019 31.5022 37.584 23.9997 37.584C16.4971 37.584 10.415 31.5019 10.415 23.9993C10.415 16.4968 16.4971 10.4147 23.9997 10.4147Z" fill="#8ECBF1"/>
<path d="M23.9999 41.7642C33.7844 41.7642 41.7645 33.784 41.7645 23.9997C41.7645 14.2152 33.7844 6.23496 23.9999 6.23496C14.2155 6.23496 6.23535 14.2152 6.23535 23.9997C6.23535 33.784 14.2155 41.7642 23.9999 41.7642Z" stroke="#0C1A4C" stroke-width="1.875" stroke-miterlimit="22.926" stroke-linecap="round" stroke-linejoin="round"/>
<path d="M24 26.0894C25.1512 26.0894 26.09 25.1504 26.09 23.9994C26.09 22.8483 25.1512 21.9094 24 21.9094C22.849 21.9094 21.9102 22.8483 21.9102 23.9994C21.9102 25.1504 22.849 26.0894 24 26.0894Z" stroke="#0C1A4C" stroke-width="1.875" stroke-miterlimit="22.926" stroke-linecap="round" stroke-linejoin="round"/>
<path d="M24 21.9097V14.6485" stroke="#0C1A4C" stroke-width="1.875" stroke-miterlimit="22.926" stroke-linecap="round" stroke-linejoin="round"/>
<path d="M24 26.0897V30.2695" stroke="#0C1A4C" stroke-width="1.875" stroke-miterlimit="22.926" stroke-linecap="round" stroke-linejoin="round"/>
<path d="M14.0732 23.9995H14.074" stroke="#0C1A4C" stroke-width="1.875" stroke-miterlimit="22.926" stroke-linecap="round" stroke-linejoin="round"/>
<path d="M15.4023 28.9634L15.403 28.963" stroke="#0C1A4C" stroke-width="1.875" stroke-miterlimit="22.926" stroke-linecap="round" stroke-linejoin="round"/>
<path d="M19.0361 32.5967L19.0365 32.5959" stroke="#0C1A4C" stroke-width="1.875" stroke-miterlimit="22.926" stroke-linecap="round" stroke-linejoin="round"/>
<path d="M24 33.9268V33.9259" stroke="#0C1A4C" stroke-width="1.875" stroke-miterlimit="22.926" stroke-linecap="round" stroke-linejoin="round"/>
<path d="M28.9633 32.5967L28.9629 32.5959" stroke="#0C1A4C" stroke-width="1.875" stroke-miterlimit="22.926" stroke-linecap="round" stroke-linejoin="round"/>
<path d="M32.5973 28.9634L32.5967 28.963" stroke="#0C1A4C" stroke-width="1.875" stroke-miterlimit="22.926" stroke-linecap="round" stroke-linejoin="round"/>
<path d="M33.9275 23.9995H33.9268" stroke="#0C1A4C" stroke-width="1.875" stroke-miterlimit="22.926" stroke-linecap="round" stroke-linejoin="round"/>
<path d="M32.5973 19.0357L32.5967 19.0361" stroke="#0C1A4C" stroke-width="1.875" stroke-miterlimit="22.926" stroke-linecap="round" stroke-linejoin="round"/>
<path d="M28.9633 15.4022L28.9629 15.4028" stroke="#0C1A4C" stroke-width="1.875" stroke-miterlimit="22.926" stroke-linecap="round" stroke-linejoin="round"/>
<path d="M19.0361 15.4022L19.0365 15.4028" stroke="#0C1A4C" stroke-width="1.875" stroke-miterlimit="22.926" stroke-linecap="round" stroke-linejoin="round"/>
<path d="M15.4023 19.0357L15.403 19.0361" stroke="#0C1A4C" stroke-width="1.875" stroke-miterlimit="22.926" stroke-linecap="round" stroke-linejoin="round"/>
<path d="M4.02731 35.5308C2.00316 32.0249 0.9375 28.0478 0.9375 23.9995C0.9375 11.2624 11.2629 0.937001 24 0.937001C29.8536 0.937001 35.4882 3.16281 39.7614 7.16341" stroke="#0C1A4C" stroke-width="1.875" stroke-miterlimit="22.926" stroke-linecap="round" stroke-linejoin="round"/>
<path d="M40.3074 6.00066V7.69172L38.6357 7.94775" stroke="#0C1A4C" stroke-width="1.875" stroke-miterlimit="22.926" stroke-linecap="round" stroke-linejoin="round"/>
<path d="M43.9724 12.4683C45.9966 15.9741 47.0622 19.9512 47.0622 23.9995C47.0622 36.7366 36.7368 47.062 23.9997 47.062C18.1462 47.062 12.5115 44.8362 8.23828 40.8357" stroke="#0C1A4C" stroke-width="1.875" stroke-miterlimit="22.926" stroke-linecap="round" stroke-linejoin="round"/>
<path d="M7.69238 41.998V40.307L9.36404 40.051" stroke="#0C1A4C" stroke-width="1.875" stroke-miterlimit="22.926" stroke-linecap="round" stroke-linejoin="round"/>
</g>
</g>
<defs>
<clipPath id="clip0_675_20846">
<rect width="48" height="48" fill="white"/>
</clipPath>
</defs>
</svg>
