<svg width="46" height="46" viewBox="0 0 46 46" fill="none" xmlns="http://www.w3.org/2000/svg">
<g clip-path="url(#clip0_749_19367)">
<path d="M27.9617 36.9827H18.0386V44.1995H27.9617V36.9827Z" fill="#8ECBF1"/>
<path d="M29.8091 4.50684H42.3953C43.8901 4.50684 45.1016 5.71838 45.1016 7.21311V34.2763C45.1016 35.7711 43.89 36.9826 42.3953 36.9826H3.60471C2.10998 36.9827 0.898438 35.7711 0.898438 34.2763V7.2132C0.898438 5.71838 2.10998 4.50693 3.60471 4.50693H16.1909" stroke="#0C1A4C" stroke-width="1.79688" stroke-miterlimit="10" stroke-linecap="round" stroke-linejoin="round"/>
<path d="M32.2465 8.11523H41.4932V31.57H4.50684V8.11523H13.7535" stroke="#0C1A4C" stroke-width="1.79688" stroke-miterlimit="10" stroke-linecap="round" stroke-linejoin="round"/>
<path d="M0.898438 31.5701H45.1016" stroke="#0C1A4C" stroke-width="1.79688" stroke-miterlimit="10" stroke-linecap="round" stroke-linejoin="round"/>
<path d="M15.332 44.1995H30.6678" stroke="#0C1A4C" stroke-width="1.79688" stroke-miterlimit="10" stroke-linecap="round" stroke-linejoin="round"/>
<path d="M33.374 24.353H37.8845" stroke="#0C1A4C" stroke-width="1.79688" stroke-miterlimit="10" stroke-linecap="round" stroke-linejoin="round"/>
<path d="M33.374 27.9614H37.8845" stroke="#0C1A4C" stroke-width="1.79688" stroke-miterlimit="10" stroke-linecap="round" stroke-linejoin="round"/>
<path d="M8.11523 24.353H12.6258" stroke="#0C1A4C" stroke-width="1.79688" stroke-miterlimit="10" stroke-linecap="round" stroke-linejoin="round"/>
<path d="M8.11523 27.9614H12.6258" stroke="#0C1A4C" stroke-width="1.79688" stroke-miterlimit="10" stroke-linecap="round" stroke-linejoin="round"/>
<path d="M22.9998 22.5452C17.0328 22.5452 12.1782 17.6907 12.1782 11.7237C12.1782 5.75663 17.0328 0.9021 22.9998 0.9021C28.9669 0.9021 33.8214 5.75663 33.8214 11.7237C33.8214 17.6907 28.9669 22.5452 22.9998 22.5452Z" fill="#8ECBF1"/>
<path d="M24.7865 7.81165C24.7775 7.80438 24.7807 7.80662 24.767 7.79593C24.615 7.67653 23.5879 6.92849 22.2022 7.3459C20.7629 7.7794 20.4056 9.74868 21.3836 10.5158C21.9452 10.9563 22.7902 11.3183 23.929 11.7209C26.4777 12.6219 25.5355 16.2164 22.9429 16.2336C21.9311 16.2403 21.4581 16.1761 20.5693 15.5946" stroke="#0C1A4C" stroke-width="1.79688" stroke-miterlimit="10" stroke-linecap="round" stroke-linejoin="round"/>
<path d="M23 5.40894V7.21318" stroke="#0C1A4C" stroke-width="1.79688" stroke-miterlimit="10" stroke-linecap="round" stroke-linejoin="round"/>
<path d="M23 16.2341V18.0383" stroke="#0C1A4C" stroke-width="1.79688" stroke-miterlimit="10" stroke-linecap="round" stroke-linejoin="round"/>
</g>
<defs>
<clipPath id="clip0_749_19367">
<rect width="46" height="46" fill="white"/>
</clipPath>
</defs>
</svg>
